<svg width="213" height="113" viewBox="0 0 213 113" fill="none" xmlns="http://www.w3.org/2000/svg">
<g clip-path="url(#clip0)">
<path opacity="0.1" d="M9.02997 15.4568C9.375 17.6458 10.2567 19.76 10.2644 21.9739C10.2931 29.2078 1.51619 33.6509 0.172529 40.7583C-0.624852 44.9753 1.44144 49.2842 4.35495 52.4296C7.26845 55.5751 10.9832 57.8426 14.4046 60.4303C23.8712 67.603 31.1681 77.2556 35.4873 88.3194C36.3518 90.5429 37.0955 92.8354 37.3408 95.2083C37.5191 96.9334 37.4348 98.6988 37.8392 100.384C39.4397 107.071 47.5554 109.667 54.4174 110.1C65.4694 110.786 76.532 108.938 86.7612 104.698C89.0613 103.74 91.4362 102.651 93.9051 102.921C95.8793 103.138 97.6409 104.206 99.3736 105.178C104.477 108.041 109.907 110.277 115.547 111.836C118.672 112.699 121.951 113.355 125.143 112.795C134.727 111.104 139.82 99.4808 149.223 96.9392C155.729 95.1815 162.499 98.2522 168.334 101.624C174.168 104.995 180.191 108.879 186.926 108.888C195.912 108.9 203.3 102.099 209.395 95.4978C210.673 94.1119 211.973 92.6629 212.583 90.8783C213.819 87.2556 211.816 83.1863 208.854 80.752C205.893 78.3177 202.159 77.1101 198.592 75.7185C192.546 73.3596 186.776 70.3464 181.385 66.7326C177.896 64.3942 174.517 61.749 172.131 58.2988C170.078 55.324 168.845 51.8757 167.469 48.5328C164.452 41.2126 160.185 33.7736 153.061 30.3387C147.243 27.5326 140.487 27.8469 134.029 27.7722C124.514 27.6667 114.758 26.5224 106.322 22.1215C99.1973 18.4049 93.3454 12.5376 86.1152 9.02412C74.6146 3.44054 61.4674 4.53502 49.0754 4.74587C43.1199 4.84745 36.0413 5.44166 30.3216 3.49037C26.0912 2.04704 23.9138 -0.902889 19.0547 0.285515C12.4093 1.90519 7.96808 8.70402 9.02997 15.4568Z" fill="#05002E"/>
<path d="M185.224 68.1472C184.923 67.1509 184.955 66.0838 185.314 65.1072C185.889 63.6197 187.291 62.5463 187.783 61.0263C188.699 58.2029 186.231 55.5597 184.716 53.0008C183.327 50.6266 182.698 47.8843 182.913 45.142C183.148 42.1978 184.354 39.3821 184.446 36.4302C184.528 33.6796 183.637 31.0038 182.757 28.397C182.031 26.2425 181.291 24.0631 180.062 22.1502C177.739 18.5332 173.612 16.2599 169.369 15.8842C167.366 15.706 165.407 16.3577 163.438 16.1028C160.705 15.7501 158.121 15.0409 155.334 14.9527C152.687 14.8741 149.76 15.2095 147.956 17.1493C146.578 18.6348 146.137 20.7797 144.876 22.3668C143.086 24.619 139.956 25.3915 137.976 27.4769C137.12 28.3986 136.519 29.5272 136.233 30.7517C135.946 31.9761 135.983 33.2541 136.341 34.4598C136.615 35.3491 137.063 36.1753 137.355 37.0589C138.579 40.7506 136.971 44.6992 135.999 48.4638C135.89 48.7713 135.87 49.1037 135.942 49.4221C136.095 49.8822 136.578 50.1237 136.979 50.3959C138.29 51.2891 138.959 52.9069 139.087 54.4882C139.216 56.0695 138.85 57.6451 138.489 59.1901C137.571 63.1175 136.423 67.3249 133.396 69.9374C132.847 68.6269 132.197 67.3606 131.453 66.1499C129.601 63.1482 128.231 59.4412 128.208 55.8932C128.206 55.8824 128.206 55.8714 128.208 55.8606C128.208 55.6689 128.217 55.4773 128.229 55.2856C128.468 51.0993 130.278 47.0607 130.238 42.8936C130.238 42.5562 130.228 42.2183 130.209 41.8796C129.973 38.3125 128.259 35.0137 126.295 32.0274C124.828 29.7982 123.176 27.6456 121.06 26.0221C117.788 23.5322 113.631 22.4511 109.546 21.8799C105.461 21.3087 101.745 20.772 97.6273 20.496C93.1996 20.1989 88.3271 20.0321 84.8271 22.7578C80.2632 26.3115 80.0102 33.1755 76.5312 37.795C74.4611 40.5436 71.1642 42.6674 70.0736 45.7898C69.7786 45.0236 69.5327 44.2393 69.3376 43.4418C69.326 43.3881 69.3146 43.3364 69.3031 43.2827C70.6184 39.5151 70.9244 35.4688 70.1905 31.5463C70.2771 30.911 70.3213 30.2706 70.3228 29.6295C70.3442 28.9317 70.2687 28.2344 70.0985 27.5574C69.6059 25.6905 68.2469 24.1973 66.9339 22.7808C66.4559 22.24 65.9368 21.737 65.3813 21.2761C61.9452 17.1131 57.1412 14.3071 51.8271 13.3592C46.5131 12.4114 41.0352 13.3834 36.3716 16.1017C31.7081 18.82 28.1628 23.1076 26.3688 28.1986C24.5748 33.2897 24.6489 38.8527 26.578 43.8942C26.4093 45.2014 25.9033 46.4722 24.9737 47.3942C24.55 47.814 24.0019 48.3392 24.0939 48.8759C24.0653 49.0287 24.0868 49.1867 24.1552 49.3263C24.2494 49.4936 24.3805 49.6372 24.5385 49.7461C25.8795 50.7709 27.5495 51.2687 29.2327 51.1453C30.6531 55.3197 33.4376 58.8942 37.1376 61.2928C37.1376 61.4206 37.1331 61.5445 37.1241 61.6646C37.1241 61.8774 37.1069 62.0882 37.0973 62.3029C37.0973 62.3508 37.0973 62.3988 37.0973 62.4467C37.0973 62.4294 37.0973 62.4103 37.0973 62.3911C37.0973 62.3719 30.4231 71.0914 24.2549 71.4153C20.9618 71.5878 18.0886 73.8093 15.9111 76.3491C13.2966 79.3968 11.6827 82.9006 11.5447 83.8705C11.2898 85.6493 9.51099 94.294 9.51099 94.294H60.7542C60.1485 97.4068 59.332 101.373 59.332 101.373H142.288C142.097 98.7064 141.884 96.2414 141.686 94.1541H152.116L152.104 94.2173H200.215L203.267 89.6381C202.51 76.2954 194.639 68.9599 185.224 68.1472ZM65.4446 53.2423C66.5269 53.8246 67.6896 54.2432 68.8948 54.4844C69.4181 54.5917 70.0027 54.6588 70.4493 54.3655C70.7453 54.142 70.9644 53.8318 71.0761 53.4781L71.0991 53.5356C72.3929 56.7941 73.5909 60.1561 73.8228 63.6562C73.8439 63.9858 73.8573 64.3155 73.8592 64.6471C73.8644 66.6437 73.4525 68.6193 72.6498 70.4473C68.3161 68.1683 64.1368 65.6071 60.1389 62.7802L59.8686 62.6652C59.8686 62.6863 59.9626 62.9259 60.0737 63.3303C60.1006 63.4281 60.1293 63.5354 60.1581 63.6504C59.884 62.7649 59.6348 61.8601 59.4163 60.9382C59.3914 60.8289 59.3665 60.7197 59.3415 60.6104C61.9518 58.6946 64.0482 56.1636 65.4446 53.2423Z" fill="url(#paint0_linear)"/>
<path d="M154.565 15.6313C151.961 15.5527 149.078 15.8843 147.305 17.7934C145.948 19.254 145.514 21.3663 144.272 22.9285C142.511 25.1462 139.431 25.9052 137.479 27.9581C136.637 28.8653 136.046 29.9762 135.763 31.1815C135.481 32.3868 135.517 33.6448 135.869 34.8317C136.139 35.7057 136.58 36.5204 136.868 37.3887C138.073 41.0305 136.5 44.9082 135.526 48.6133C135.417 48.9172 135.398 49.2458 135.47 49.5602C135.62 50.0126 136.097 50.2503 136.49 50.5186C137.78 51.3984 138.44 52.9893 138.556 54.5438C138.673 56.0984 138.323 57.6509 137.968 59.1709C137.027 63.1962 135.839 67.53 132.57 70.0659C131.19 71.1489 129.346 72.0268 128.986 73.7519C128.564 75.7722 130.493 77.4896 132.342 78.4039C137.773 81.0874 144.077 81.1257 150.017 82.3218C155.248 83.3761 160.465 85.3733 165.759 84.691C168.119 84.3881 170.375 83.5581 172.608 82.7358L186.512 77.6123C186.905 77.4923 187.275 77.3062 187.605 77.0622C188.443 76.3645 188.471 75.038 188.015 74.0471C187.559 73.0561 186.731 72.2971 186.003 71.4843C184.415 69.7075 183.208 67.1984 184.074 64.9788C184.649 63.5144 186.02 62.4582 186.505 60.9536C187.406 58.1742 184.971 55.5712 183.495 53.0526C182.13 50.7182 181.511 48.0223 181.72 45.326C181.952 42.4279 183.139 39.6562 183.225 36.7504C183.306 34.0439 182.43 31.4102 181.563 28.8436C180.848 26.7237 180.12 24.5788 178.91 22.6946C176.624 19.1352 172.562 16.8983 168.384 16.5264C166.411 16.352 164.485 16.9922 162.547 16.743C159.854 16.4114 157.308 15.7137 154.565 15.6313Z" fill="#F7D6C8"/>
<path d="M158.455 91.6909C158.455 91.6909 142.691 81.808 148.821 70.4147C150.239 67.781 150.866 65.2892 150.994 63.014C151.028 62.4145 151.028 61.8136 150.994 61.2141C150.994 61.1854 150.994 61.1566 150.994 61.1279C150.974 60.8186 150.947 60.5145 150.912 60.2155C150.182 54.2006 146.318 50.2808 146.318 50.2808C146.318 50.2808 172.464 42.6501 168.086 49.5294C166.055 52.7228 166.662 55.8548 168.023 59.0961C168.167 59.4373 168.32 59.7823 168.479 60.1254C170.051 63.543 172.232 67.0833 172.842 70.9226C174.092 78.8044 158.455 91.6909 158.455 91.6909Z" fill="#ECB4B6"/>
<path opacity="0.1" d="M168.086 49.5295C166.055 52.7229 166.662 55.8549 168.023 59.0962C165.501 60.7225 162.605 61.6794 159.611 61.8766C156.616 62.0738 153.62 61.5048 150.906 60.2233C150.182 54.2007 146.318 50.2809 146.318 50.2809C146.318 50.2809 172.466 42.6483 168.086 49.5295Z" fill="black"/>
<path d="M158.453 61.54C168.195 61.54 176.093 53.6423 176.093 43.8999C176.093 34.1575 168.195 26.2598 158.453 26.2598C148.71 26.2598 140.812 34.1575 140.812 43.8999C140.812 53.6423 148.71 61.54 158.453 61.54Z" fill="#ECB4B6"/>
<path opacity="0.1" d="M150.994 61.2219C150.994 61.1931 150.994 61.1643 150.994 61.1356L151.015 61.1011C151.004 61.1433 150.996 61.1835 150.994 61.2219Z" fill="black"/>
<path opacity="0.1" d="M158.455 91.6911C158.455 91.6911 142.691 81.8082 148.821 70.4149C150.239 67.7812 150.866 65.2894 150.995 63.0142C151.353 65.828 153.295 69.3261 156.829 74.1679C158.363 76.2764 159.022 79.2244 159.231 82.1705L159.582 82.4254L161.307 81.3827C161.499 78.1242 162.158 74.8311 163.718 72.4965C167.818 66.3628 168.792 63.2959 168.489 60.1179C170.061 63.5355 172.242 67.0758 172.852 70.9152C174.092 78.8046 158.455 91.6911 158.455 91.6911Z" fill="black"/>
<path d="M183.725 67.9518C174.333 67.2695 168.391 59.978 168.391 59.978C168.891 63.3937 168.079 66.451 163.699 73.0121C162.148 75.3391 161.491 78.6264 161.299 81.8926L159.574 82.9353L159.223 82.6804C159.014 79.7362 158.357 76.7844 156.821 74.6778C152.443 68.6725 150.496 64.7316 151.004 61.6035C151.004 61.6035 146.187 69.422 136.804 70.0488C127.422 70.6756 119.54 77.3057 118.787 89.4409L121.788 93.5696H151.397L151.385 93.6329H198.73L201.743 89.1227C200.99 75.8739 193.117 68.6342 183.725 67.9518Z" fill="#C4C1FF"/>
<path opacity="0.05" d="M183.725 67.9518C174.333 67.2695 168.391 59.978 168.391 59.978C168.891 63.3937 168.079 66.451 163.699 73.0121C162.148 75.3391 161.491 78.6264 161.299 81.8926L159.574 82.9353L159.223 82.6804C159.014 79.7362 158.357 76.7844 156.821 74.6778C152.443 68.6725 150.496 64.7316 151.004 61.6035C151.004 61.6035 146.187 69.422 136.804 70.0488C127.422 70.6756 119.54 77.3057 118.787 89.4409L121.788 93.5696H151.397L151.385 93.6329H198.73L201.743 89.1227C200.99 75.8739 193.117 68.6342 183.725 67.9518Z" fill="black"/>
<path opacity="0.1" d="M170.379 35.3741C169.612 37.2717 168.251 38.8742 166.764 40.2811C164.709 42.2266 162.125 43.9402 159.3 43.808C160.84 42.373 161.955 40.5412 162.522 38.5138C160.739 39.5527 159.392 41.1973 157.69 42.3685C155.988 43.5396 153.582 44.1434 151.918 42.9205C154.94 41.4013 157.451 39.0295 159.139 36.0987C155.098 37.1472 153.024 41.6976 149.384 43.7409C147.678 44.6993 145.683 45.0596 143.728 45.0175C142.338 44.9887 140.79 44.6648 140.015 43.5109C139.563 42.84 139.457 41.9966 139.44 41.1858C139.356 37.5094 140.853 33.902 143.159 31.0403C145.465 28.1785 148.526 26.003 151.8 24.3143C152.965 23.7124 154.18 23.1642 155.478 22.9726C157.092 22.7387 158.736 23.0818 160.32 23.446C162.378 23.9175 164.448 24.4351 166.344 25.3628C170.39 27.3658 172.158 30.9962 170.379 35.3741Z" fill="black"/>
<path d="M170.379 35.1232C169.612 37.0208 168.251 38.6232 166.764 40.0301C164.709 41.9757 162.125 43.6893 159.3 43.557C160.84 42.1221 161.955 40.2902 162.522 38.2629C160.739 39.3017 159.392 40.9463 157.69 42.1175C155.988 43.2886 153.582 43.8924 151.918 42.6695C154.94 41.1503 157.451 38.7786 159.139 35.8477C155.098 36.8962 153.024 41.4466 149.384 43.4899C147.678 44.4483 145.683 44.8087 143.728 44.7665C142.338 44.7377 140.79 44.4138 140.015 43.2599C139.563 42.589 139.457 41.7456 139.44 40.9348C139.356 37.2585 140.853 33.6511 143.159 30.7893C145.465 27.9276 148.526 25.752 151.8 24.0633C152.965 23.4615 154.18 22.9133 155.478 22.7216C157.092 22.4877 158.736 22.8308 160.32 23.195C162.378 23.6666 164.448 24.1841 166.344 25.1118C170.39 27.111 172.158 30.7452 170.379 35.1232Z" fill="#F7D6C8"/>
<path d="M48.7474 58.4887C61.1151 58.4887 71.1411 48.4627 71.1411 36.0949C71.1411 23.7272 61.1151 13.7012 48.7474 13.7012C36.3797 13.7012 26.3536 23.7272 26.3536 36.0949C26.3536 48.4627 36.3797 58.4887 48.7474 58.4887Z" fill="#C3705A"/>
<path d="M68.8279 79.1939C68.8279 79.1939 48.3183 84.4478 47.8104 84.9443C47.3024 85.4407 30.5459 86.3205 35.4241 76.0619C37.2163 72.2954 37.962 67.1795 38.1881 62.2132C38.1977 62.0023 38.2073 61.7934 38.215 61.5844C38.5236 53.2599 37.4272 45.5352 37.4272 45.5352C37.4272 45.5352 61.1953 36.143 59.4453 50.4154C59.0082 53.9652 59.3705 57.5324 60.164 60.8867C60.4286 62.0061 60.7391 63.1006 61.0841 64.1625C63.8596 72.719 68.8279 79.1939 68.8279 79.1939Z" fill="#ECB4B6"/>
<path opacity="0.1" d="M60.162 60.8904C57.0097 63.2276 53.2189 64.5468 49.2966 64.6715C45.3743 64.7962 41.5074 63.7204 38.213 61.5881C38.5216 53.2635 37.4252 45.5389 37.4252 45.5389C37.4252 45.5389 61.1932 36.1467 59.4432 50.419C59.0081 53.9708 59.3704 57.538 60.162 60.8904Z" fill="black"/>
<path d="M48.6843 64.3043C59.3244 64.3043 67.9498 55.6788 67.9498 45.0388C67.9498 34.3987 59.3244 25.7732 48.6843 25.7732C38.0442 25.7732 29.4187 34.3987 29.4187 45.0388C29.4187 55.6788 38.0442 64.3043 48.6843 64.3043Z" fill="#ECB4B6"/>
<path opacity="0.1" d="M68.8279 79.1937C68.8279 79.1937 48.3183 84.4476 47.8104 84.944C47.3024 85.4405 30.5459 86.3202 35.4241 76.0616C37.2163 72.2952 37.962 67.1793 38.1881 62.2129C38.3798 64.8082 39.8634 71.0933 40.0532 73.1845C40.0652 73.3068 40.0897 73.4275 40.126 73.5449C40.4039 74.4745 41.3949 75.546 42.5891 76.5619L42.66 76.6213C44.1454 77.8673 45.9886 78.6084 47.923 78.7377C49.8575 78.8669 51.7829 78.3774 53.4208 77.3401C55.1256 76.2661 56.7619 75.0869 58.3201 73.8094C60.5512 71.9674 61.247 69.4852 61.3333 67.2924C61.369 66.2397 61.2854 65.1865 61.0841 64.1527C63.8596 72.7188 68.8279 79.1937 68.8279 79.1937Z" fill="black"/>
<path d="M94.7255 93.7076H11.0236C11.0236 93.7076 12.7755 85.2009 13.0247 83.449C13.1608 82.4906 14.7498 79.0404 17.324 76.0444C19.467 73.5526 22.2942 71.3579 25.5355 71.1873C31.6021 70.8691 38.1709 62.3049 38.1709 62.3049C38.3166 64.7967 39.8539 71.3042 40.0475 73.4395C40.0595 73.5618 40.0839 73.6825 40.1203 73.7999C40.3982 74.7295 41.3892 75.801 42.5834 76.8169L42.6543 76.8763C44.1393 78.1228 45.9825 78.8645 47.917 78.9941C49.8515 79.1236 51.7771 78.6343 53.4151 77.597C55.1196 76.5225 56.7558 75.3434 58.3144 74.0663C60.5455 72.2243 61.2413 69.742 61.3276 67.5493C61.3715 66.0941 61.1951 64.6407 60.8043 63.2384C60.695 62.8397 60.6126 62.6059 60.6011 62.5848L60.8675 62.6979C60.8675 62.6979 72.2015 70.94 82.5847 74.3097C83.8015 74.7059 84.9498 75.2878 85.9889 76.0348C86.8305 76.6433 87.6054 77.3391 88.3005 78.1107C89.7059 79.7001 90.8686 81.4887 91.7507 83.4183C94.1582 88.5208 94.7255 93.7076 94.7255 93.7076Z" fill="#C4C1FF"/>
<path opacity="0.05" d="M94.7255 93.7076H11.0236C11.0236 93.7076 12.7755 85.2009 13.0247 83.449C13.1608 82.4906 14.7498 79.0404 17.324 76.0444C19.467 73.5526 22.2942 71.3579 25.5355 71.1873C31.6021 70.8691 38.1709 62.3049 38.1709 62.3049C38.3166 64.7967 39.8539 71.3042 40.0475 73.4395C40.0595 73.5618 40.0839 73.6825 40.1203 73.7999C40.3982 74.7295 41.3892 75.801 42.5834 76.8169L42.6543 76.8763C44.1393 78.1228 45.9825 78.8645 47.917 78.9941C49.8515 79.1236 51.7771 78.6343 53.4151 77.597C55.1196 76.5225 56.7558 75.3434 58.3144 74.0663C60.5455 72.2243 61.2413 69.742 61.3276 67.5493C61.3715 66.0941 61.1951 64.6407 60.8043 63.2384C60.695 62.8397 60.6126 62.6059 60.6011 62.5848L60.8675 62.6979C60.8675 62.6979 72.2015 70.94 82.5847 74.3097C83.8015 74.7059 84.9498 75.2878 85.9889 76.0348C86.8305 76.6433 87.6054 77.3391 88.3005 78.1107C89.7059 79.7001 90.8686 81.4887 91.7507 83.4183C94.1582 88.5208 94.7255 93.7076 94.7255 93.7076Z" fill="black"/>
<path opacity="0.1" d="M57.9462 38.5695C58.4446 40.4863 59.0963 42.6158 60.808 43.6144C61.0374 43.7244 61.2487 43.8685 61.4348 44.0419C61.8565 44.5 61.7281 45.215 61.6648 45.836C61.4463 47.9674 62.3625 50.1277 63.8653 51.6553C65.368 53.183 67.4017 54.1165 69.5006 54.5458C70.0143 54.6513 70.5912 54.7184 71.034 54.4289C71.3332 54.2015 71.5532 53.8856 71.6627 53.5261C72.2473 51.9716 72.0001 50.2254 71.5113 48.6383C71.0225 47.0512 70.3018 45.537 69.9319 43.9173C69.0521 40.0742 70.2175 36.1026 70.7427 32.1943C70.9171 30.8947 71.0187 29.5549 70.6832 28.2879C70.1983 26.4516 68.8604 24.9795 67.5685 23.586C66.8727 22.8365 66.1616 22.0737 65.2683 21.583C62.6347 20.1435 59.2439 21.422 56.432 20.3735C55.3068 19.9537 54.3504 19.187 53.2789 18.6484C51.0037 17.4983 48.3067 17.4351 45.813 17.9583C43.3193 18.4816 40.9827 19.5569 38.6692 20.6227L36.9 21.4239C34.4082 22.5739 31.7381 23.8735 30.3963 26.2791C28.9683 28.8399 29.3651 32.1176 27.9371 34.6784C27.5039 35.4451 26.9001 36.1812 26.7871 37.0629C26.7104 37.6993 26.9059 38.3356 27.088 38.9509C27.5327 40.4479 27.9199 41.9871 27.8854 43.5512C27.8509 45.1153 27.3525 46.7177 26.2446 47.8179C25.7769 48.2818 25.152 48.876 25.4396 49.4683C25.5339 49.6339 25.6651 49.7755 25.8229 49.8823C26.7328 50.5733 27.8024 51.0234 28.9326 51.191C30.0628 51.3585 31.217 51.238 32.2882 50.8407C33.1278 50.5206 33.9213 50.0069 34.3967 49.2498C34.7127 48.6951 34.9415 48.0952 35.0752 47.471C35.6809 45.215 36.2905 42.9206 36.2425 40.584C36.2157 39.2423 35.9703 37.889 36.1659 36.5588C36.3614 35.2285 37.1377 33.858 38.4315 33.4919C39.3899 33.2178 40.4154 33.5494 41.4159 33.5398C42.8573 33.5283 44.6246 31.9298 45.9606 32.3994C47.1107 32.8057 48.0212 35.0062 48.9719 35.8496C51.3832 38.0021 54.749 39.1273 57.9462 38.5695Z" fill="black"/>
<path d="M57.9462 38.3183C58.4445 40.2351 59.0962 42.3647 60.8079 43.3633C61.034 43.471 61.2426 43.6118 61.427 43.7812C61.8487 44.2393 61.7203 44.9542 61.657 45.5753C61.4385 47.7067 62.3548 49.8669 63.8575 51.3946C65.3603 52.9223 67.394 53.8558 69.4928 54.2851C70.0065 54.3905 70.5835 54.4576 71.0263 54.1682C71.3255 53.9408 71.5455 53.6249 71.655 53.2654C72.2396 51.7109 71.9923 49.9647 71.5036 48.3776C71.0148 46.7905 70.2941 45.2762 69.9241 43.6566C69.0443 39.8134 70.2097 35.8418 70.7349 31.9335C70.9093 30.634 71.0109 29.2941 70.6755 28.0271C70.1906 26.1909 68.8526 24.7188 67.5607 23.3253C66.8649 22.5758 66.1538 21.8129 65.2606 21.3222C62.6269 19.8827 59.2362 21.1612 56.4242 20.1127C55.2991 19.693 54.3426 18.9263 53.2711 18.3876C50.9959 17.2376 48.299 17.1743 45.8053 17.6976C43.3115 18.2209 40.975 19.2962 38.6614 20.3619L36.9152 21.167C34.4234 22.317 31.7534 23.6166 30.4116 26.0222C28.9836 28.583 29.3804 31.8607 27.9524 34.4215C27.5192 35.1882 26.9154 35.9243 26.8023 36.806C26.7256 37.4424 26.9212 38.0787 27.1032 38.694C27.5479 40.191 27.9351 41.7302 27.9006 43.2943C27.8661 44.8584 27.3678 46.4608 26.2599 47.561C25.7922 48.0249 25.1673 48.6191 25.4548 49.2114C25.5491 49.377 25.6803 49.5187 25.8382 49.6254C26.7481 50.3164 27.8177 50.7666 28.9479 50.9341C30.0781 51.1016 31.2322 50.9811 32.3035 50.5838C33.143 50.2637 33.9366 49.75 34.4119 48.9929C34.7279 48.4382 34.9568 47.8383 35.0905 47.2141C35.6962 44.9581 36.3057 42.6637 36.2578 40.3271C36.231 38.9854 35.9856 37.6321 36.1811 36.3019C36.3766 34.9716 37.1529 33.6011 38.4468 33.235C39.4051 32.9609 40.4306 33.2925 41.4312 33.2829C42.8726 33.2714 44.6399 31.6729 45.9759 32.1425C47.1259 32.5488 48.0364 34.7493 48.9871 35.5927C51.3831 37.7529 54.749 38.878 57.9462 38.3183Z" fill="#C3705A"/>
<path d="M122.124 46.501H78.2106V84.1581H122.124V46.501Z" fill="#463A3E"/>
<path opacity="0.05" d="M122.124 46.501H78.2106V84.1581H122.124V46.501Z" fill="black"/>
<path d="M115.827 100.673H78.2584C78.7434 97.9379 80.1618 94.94 82.9258 91.7084C85.1082 89.1679 86.8932 86.3114 88.2199 83.2362C88.5765 82.4145 88.8959 81.5909 89.1783 80.7654C90.0086 78.3143 90.5734 75.7811 90.8632 73.2095C90.8632 73.1367 90.8804 73.0638 90.8881 72.991C91.0818 71.214 91.16 69.4264 91.122 67.6393C91.122 67.5109 91.122 67.3863 91.122 67.256C90.9877 62.8709 90.2624 58.5241 88.9656 54.333L88.9177 54.1835C88.5094 52.8974 88.2104 52.1747 88.2104 52.1747C88.2104 52.1747 88.956 51.7703 90.1866 51.1742L90.2901 51.1243C94.8156 48.9507 105.528 44.4156 110.251 47.6473L110.328 47.699C111.98 48.8759 112.87 51.0362 112.452 54.634C112.452 54.6474 112.452 54.6627 112.452 54.6761C112.452 54.7432 112.437 54.8084 112.431 54.8678C112.178 57.3476 112.058 59.8391 112.072 62.3318C112.072 62.4563 112.072 62.5809 112.072 62.7151C112.072 63.2991 112.079 63.8907 112.092 64.49C112.092 64.5706 112.092 64.6511 112.092 64.7316C112.13 66.6675 112.216 68.6667 112.337 70.6947C112.504 73.5066 112.741 76.3703 113.015 79.1803C113.132 80.3821 113.259 81.5762 113.399 82.7512C113.414 82.8892 113.429 83.0311 113.445 83.1672C113.606 84.599 113.773 86.0021 113.943 87.363L113.955 87.4512C114.606 92.8565 115.327 97.5756 115.827 100.673Z" fill="#C17174"/>
<path opacity="0.1" d="M112.436 54.6418C112.436 54.6552 112.436 54.6705 112.436 54.684C112.166 57.2306 112.038 59.7902 112.053 62.3511C112.053 62.4757 112.053 62.6003 112.053 62.7344C109.53 65.6623 106.145 67.7158 102.383 68.6001C98.6207 69.4844 94.6751 69.1542 91.1123 67.6567C91.1123 67.5283 91.1123 67.4037 91.1123 67.2734C90.9772 62.8357 90.2355 58.4375 88.908 54.2009C88.4997 52.9148 88.2007 52.1921 88.2007 52.1921C88.2007 52.1921 88.9463 51.7877 90.1769 51.1916C94.6583 49.0256 105.594 44.3487 110.313 47.7069C111.963 48.8838 112.852 51.044 112.436 54.6418Z" fill="black"/>
<path d="M98.2064 68.6956C108.297 68.6956 116.477 60.5155 116.477 50.4248C116.477 40.3342 108.297 32.1541 98.2064 32.1541C88.1158 32.1541 79.9357 40.3342 79.9357 50.4248C79.9357 60.5155 88.1158 68.6956 98.2064 68.6956Z" fill="#C17174"/>
<path opacity="0.1" d="M99.1744 100.549H60.1967C60.1967 100.549 61.9486 92.0419 62.1978 90.29C62.3339 89.3316 63.9229 85.8814 66.4971 82.8855C69.8035 80.2479 73.8987 78.7948 78.1281 78.7586C85.5825 78.6474 87.7523 81.214 88.3407 83.1116C88.5463 83.7479 88.5988 84.4236 88.4941 85.084L89.9048 87.1273L99.1744 100.549Z" fill="black"/>
<path d="M99.0498 100.673H60.072C60.072 100.673 61.824 92.1664 62.0731 90.4145C62.2092 89.4561 63.7982 86.0059 66.3725 83.01C69.6789 80.3724 73.7741 78.9194 78.0035 78.8831C85.4579 78.772 87.6277 81.3385 88.2161 83.2361C88.4217 83.8724 88.4742 84.5482 88.3694 85.2085L89.7802 87.2518L99.0498 100.673Z" fill="#C4C1FF"/>
<path opacity="0.1" d="M141.598 100.548H100.76C102.707 96.4044 107.811 85.3561 108.095 82.801C108.204 81.8119 109.259 80.8842 110.654 80.0964C111.095 79.8441 111.548 79.615 112.013 79.4102L112.097 79.3719C112.353 79.2594 112.612 79.1553 112.874 79.0594C116.406 77.7662 120.288 77.7969 123.799 79.1457C127.152 80.4203 131.466 82.1378 134.825 83.746L134.851 83.7594C135.714 84.1734 136.517 84.5778 137.224 84.9669C138.639 85.7432 139.672 86.4524 140.069 87.0198C140.251 87.2805 140.452 88.4555 140.673 90.2783C140.966 92.7433 141.286 96.4005 141.598 100.548Z" fill="black"/>
<path d="M141.723 100.673H100.884C102.832 96.5291 107.936 85.4808 108.22 82.9257C108.329 81.9367 109.383 81.009 110.779 80.2212C111.219 79.9688 111.673 79.7398 112.138 79.5349L112.222 79.4966C112.477 79.3842 112.736 79.28 112.998 79.1842C116.531 77.891 120.412 77.9216 123.924 79.2704C127.276 80.5451 131.591 82.2625 134.949 83.8707L134.976 83.8841C135.839 84.2982 136.642 84.7026 137.349 85.0917C138.764 85.868 139.797 86.5772 140.194 87.1446C140.376 87.4053 140.577 88.5802 140.797 90.4031C141.092 92.8681 141.411 96.5272 141.723 100.673Z" fill="#C4C1FF"/>
<path opacity="0.1" d="M135.15 80.6333C135.15 81.2224 135.134 81.8121 135.102 82.4025C135.084 82.69 135.063 82.9776 135.037 83.2651C135.02 83.4721 134.999 83.6772 134.978 83.8823L134.951 84.12C134.638 86.907 134.062 89.6786 133.993 92.479C133.993 92.6113 133.993 92.7436 133.993 92.8758C133.979 95.5056 134.405 98.0952 134.982 100.673H111.463C111.424 100.196 111.405 99.7149 111.411 99.2414C111.411 98.814 111.438 98.3866 111.482 97.9572C111.844 94.4284 113.648 91.1258 113.92 87.62L113.931 87.459C113.949 87.1964 113.958 86.9319 113.954 86.6674C113.954 86.6444 113.954 86.6214 113.954 86.5964C113.925 85.4373 113.746 84.2868 113.424 83.1731C113.408 83.1175 113.393 83.0619 113.378 83.0063C113.049 81.9016 112.665 80.8141 112.227 79.7478L112.143 79.535C111.505 77.9402 110.834 76.3589 110.38 74.7737C110.019 73.5932 109.832 72.3663 109.826 71.1318C109.826 70.9114 109.839 70.691 109.856 70.4706C109.872 70.2904 109.893 70.1102 109.92 69.9281C109.962 69.6437 110.018 69.3615 110.088 69.0828C110.472 67.5724 111.29 66.1559 112.074 64.7528C112.946 63.1906 113.778 61.6457 113.928 60.003C113.947 59.7953 113.954 59.5867 113.949 59.3781C113.943 59.1096 113.917 58.8418 113.872 58.5769C113.671 57.4115 113.071 56.363 112.578 55.2877C112.528 55.1785 112.479 55.0692 112.431 54.958C112.431 54.9408 112.415 54.9235 112.41 54.9063C111.451 52.6924 110.895 50.3309 110.311 47.981C110.286 47.8794 110.261 47.7778 110.234 47.6781C110.09 47.1031 109.943 46.528 109.785 45.953C108.927 42.8172 107.704 39.6487 105.377 37.385C103.05 35.1213 99.339 33.975 96.4255 35.4165C93.905 36.672 92.5402 39.482 91.9249 42.2268C91.3097 44.9716 91.2598 47.8372 90.4605 50.536C90.403 50.7328 90.3391 50.929 90.2688 51.1245C90.2343 51.2242 90.1998 51.3162 90.1653 51.4254C89.8222 52.403 89.3986 53.371 88.9424 54.3332L88.8945 54.4348C87.4378 57.5342 85.7452 60.58 85.6916 63.6947V63.735C85.6916 63.8193 85.6916 63.9017 85.6916 63.9861C85.7015 64.7263 85.8138 65.4617 86.0251 66.1712C86.4084 67.4478 87.1023 68.5614 87.9112 69.6214C88.0709 69.8297 88.2345 70.0361 88.4019 70.2405C89.2069 71.2296 90.081 72.188 90.8458 73.2077L90.8707 73.2403C91.4523 73.9935 91.9431 74.8124 92.3332 75.6804C92.7956 76.7675 93.0371 77.9358 93.0437 79.1171C93.0503 80.2985 92.8218 81.4694 92.3716 82.5616C92.1545 83.0664 91.9054 83.5568 91.6259 84.0299C91.1333 84.8809 90.5909 85.709 90.1634 86.5945C90.0197 86.8916 89.8912 87.1945 89.7801 87.5012C88.8217 89.97 88.6147 92.7014 87.8326 95.2488C87.2269 97.2046 86.2844 99.0397 85.0475 100.671H60.1294C60.4188 99.2549 61.8545 92.2375 62.0807 90.6619C62.2168 89.7035 63.8058 86.2533 66.38 83.2574C66.1634 83.428 65.9545 83.6005 65.7532 83.773C64.1299 85.1565 62.7233 86.7756 61.5804 88.5765C61.636 88.404 61.6935 88.2295 61.751 88.057C62.1018 87.0105 62.4813 85.9735 62.8666 84.9499C63.9821 82.0019 65.2242 78.9945 67.4477 76.7595C68.7031 75.4983 70.2308 74.5265 71.4269 73.2096C73.5354 70.8922 74.4075 67.6816 74.3826 64.5343C74.3826 64.2084 74.3692 63.8845 74.3481 63.5606C74.12 60.1104 72.9412 56.8077 71.6646 53.5933C70.9784 51.8682 70.25 50.0549 70.2826 48.2263C70.2847 47.9698 70.3032 47.7137 70.3382 47.4596C70.8653 43.6701 74.6988 41.4006 77.0009 38.3434C80.4243 33.7949 80.6734 27.0344 85.1645 23.542C88.6147 20.8585 93.4066 21.0233 97.7635 21.3147C101.816 21.5869 105.473 22.114 109.494 22.6775C113.516 23.2411 117.596 24.2991 120.822 26.7775C122.906 28.3761 124.531 30.4942 125.975 32.6889C127.907 35.6292 129.595 38.8762 129.827 42.3859C129.845 42.637 129.854 42.8862 129.854 43.1334C129.894 47.2353 128.114 51.2107 127.878 55.3299C127.868 55.5216 127.861 55.7133 127.859 55.9049C127.858 55.9151 127.858 55.9254 127.859 55.9356C127.817 59.5066 129.187 63.2558 131.052 66.2862C133.702 70.605 135.119 75.5666 135.15 80.6333Z" fill="black"/>
<path d="M135.15 80.6334C135.15 81.1394 135.131 81.6473 135.102 82.1514C135.085 82.439 135.063 82.7265 135.037 83.014C135.012 83.3015 134.983 83.5865 134.951 83.8689C134.639 86.6559 134.062 89.4275 133.993 92.228C133.993 92.4426 133.993 92.6592 133.993 92.8739C134.006 95.5018 134.451 98.0933 135.037 100.671H111.484C111.44 100.194 111.413 99.713 111.409 99.2395C111.404 98.7275 111.428 98.2155 111.48 97.7061C111.842 94.1773 113.646 90.8747 113.918 87.3689C113.937 87.1121 113.951 86.8552 113.953 86.6022C113.953 86.5428 113.953 86.4814 113.953 86.422C113.928 85.1814 113.735 83.9498 113.38 82.761C113.051 81.6563 112.667 80.5687 112.23 79.5024C111.566 77.8368 110.855 76.1826 110.38 74.5188C110.045 73.4157 109.859 72.2728 109.826 71.1204C109.821 70.8159 109.831 70.5114 109.857 70.208C109.872 70.0278 109.893 69.8476 109.92 69.6655C109.962 69.3811 110.018 69.099 110.089 68.8202C110.472 67.3098 111.29 65.8933 112.074 64.4902C112.948 62.9261 113.784 61.3774 113.932 59.7328C113.943 59.6082 113.949 59.4817 113.953 59.3494C113.962 58.997 113.936 58.6445 113.876 58.2971C113.675 57.1317 113.075 56.0832 112.582 55.0079C112.532 54.8986 112.483 54.7894 112.435 54.6782C111.463 52.4509 110.901 50.0779 110.315 47.7011C110.146 47.0226 109.973 46.344 109.791 45.6713C108.933 42.5354 107.71 39.367 105.383 37.1032C103.056 34.8395 99.3507 33.7163 96.4391 35.1654C93.9185 36.4209 92.5538 39.2309 91.9385 41.9757C91.3232 44.7205 91.2734 47.5861 90.4741 50.285C90.3859 50.5821 90.2824 50.8792 90.1846 51.1743C89.8281 52.1845 89.3834 53.187 88.9157 54.1837C87.4187 57.3636 85.6764 60.4918 85.7128 63.6948V63.735C85.7227 64.4753 85.835 65.2106 86.0463 65.9201C86.4297 67.1967 87.1235 68.3104 87.9324 69.3703C88.0922 69.5786 88.2557 69.785 88.4231 69.9895C89.2378 70.99 90.1214 71.958 90.8919 72.9892C91.4735 73.7424 91.9644 74.5614 92.3544 75.4293C92.8168 76.5164 93.0584 77.6847 93.0649 78.8661C93.0715 80.0474 92.843 81.2183 92.3928 82.3105C92.1757 82.8153 91.9266 83.3057 91.6471 83.7788C91.1545 84.6298 90.6121 85.4579 90.1846 86.3434C90.0409 86.6405 89.9125 86.9434 89.8013 87.2501C88.8429 89.7189 88.6359 92.4503 87.8538 94.9977C87.2161 97.0542 86.2073 98.9764 84.8771 100.669H60.072C60.072 100.669 61.824 92.1628 62.0731 90.4108C62.1977 89.5349 63.5414 86.5773 65.7457 83.773C65.9374 83.5162 66.1559 83.2593 66.3725 83.0063C64.57 84.4309 63.0078 86.1355 61.7454 88.0551L61.5748 88.3235C61.9735 87.0986 62.4124 85.8892 62.8629 84.6969C63.9784 81.7489 65.2205 78.7415 67.444 76.5065C68.6995 75.2453 70.2271 74.2735 71.4232 72.9566C73.4703 70.7006 74.3559 67.5897 74.3789 64.5228C74.3789 64.1126 74.3789 63.7043 74.3444 63.298C74.1163 59.8478 72.9375 56.5452 71.6609 53.3307C71.0073 51.6784 70.3191 49.9572 70.2789 48.2052C70.27 47.8676 70.2886 47.5298 70.3345 47.1951C70.8635 43.4267 74.6971 41.1668 76.9991 38.1C80.4225 33.5515 80.6717 26.791 85.1627 23.2986C88.6129 20.6151 93.4048 20.7799 97.7617 21.0713C101.814 21.3435 105.471 21.8706 109.492 22.4341C113.514 22.9977 117.6 24.0538 120.822 26.5245C122.906 28.1327 124.531 30.2412 125.975 32.4378C127.907 35.3781 129.596 38.6252 129.828 42.1348C129.851 42.4683 129.859 42.8012 129.854 43.1334C129.822 47.1453 128.108 51.044 127.878 55.0807C127.863 55.3529 127.855 55.6232 127.859 55.8973C127.858 55.9075 127.858 55.9178 127.859 55.928C127.882 59.4242 129.231 63.0699 131.052 66.0236C133.748 70.4185 135.168 75.4774 135.15 80.6334Z" fill="#463A3E"/>
</g>
<defs>
<linearGradient id="paint0_linear" x1="106.385" y1="101.369" x2="106.385" y2="13.0052" gradientUnits="userSpaceOnUse">
<stop stop-color="#808080" stop-opacity="0.25"/>
<stop offset="0.54" stop-color="#808080" stop-opacity="0.12"/>
<stop offset="1" stop-color="#808080" stop-opacity="0.1"/>
</linearGradient>
<clipPath id="clip0">
<rect width="212.956" height="113" fill="white"/>
</clipPath>
</defs>
</svg>
