<svg width="195" height="113" viewBox="0 0 195 113" fill="none" xmlns="http://www.w3.org/2000/svg">
<g clip-path="url(#clip0)">
<path opacity="0.1" d="M189.206 31.7371C181.439 19.302 168.349 10.5577 154.196 8.33535C141.424 6.33178 127.969 9.66707 117.388 17.3121L119.72 15.4709C111.386 20.9158 100.56 20.5602 91.0786 17.7258C81.5975 14.8914 72.8892 9.83632 63.6491 6.2463C55.9103 3.24063 47.8082 1.27073 39.5533 0.38774C27.7798 -0.877313 14.6266 0.654427 6.42943 9.47048C-2.70459 19.2883 -2.00368 36.9939 7.8774 46.01C12.9017 50.595 19.4834 52.8481 25.2223 56.4227C30.9612 59.9974 36.2744 65.9465 35.7855 72.8548C35.3325 79.2501 30.0722 84.1548 24.6291 87.2319C20.4202 89.6133 15.2386 92.2118 14.7309 97.1472C14.2403 101.917 18.5979 105.654 22.7657 107.78C36.3394 114.713 53.062 114.646 66.5844 107.61C71.4087 105.098 75.8432 101.756 80.9017 99.7987C94.1848 94.6581 108.822 99.8329 122.888 101.725C134.833 103.325 146.978 102.499 158.596 99.2978C165.563 97.3763 172.555 94.4393 177.447 88.9688C180.964 85.0095 183.168 80.0228 185.238 75.0942C187.44 69.8357 189.556 64.5402 191.585 59.2076C192.802 56.0056 194.003 52.7421 194.321 49.3179C194.881 43.1089 192.478 36.9717 189.206 31.7371ZM52.3628 32.6141H39.9106C39.5678 32.6141 39.2391 32.4779 38.9967 32.2356C38.7544 31.9932 38.6182 31.6645 38.6182 31.3217C38.6182 30.9789 38.7544 30.6502 38.9967 30.4078C39.2391 30.1655 39.5678 30.0293 39.9106 30.0293H44.1844C44.0902 29.8783 44.0283 29.7095 44.0027 29.5334C43.9771 29.3573 43.9882 29.1778 44.0354 29.0062C44.0827 28.8347 44.165 28.6747 44.2771 28.5366C44.3893 28.3984 44.5288 28.285 44.687 28.2035H43.2869C42.9442 28.2035 42.6154 28.0674 42.3731 27.825C42.1307 27.5826 41.9945 27.2539 41.9945 26.9111C41.9945 26.5683 42.1307 26.2396 42.3731 25.9972C42.6154 25.7549 42.9442 25.6187 43.2869 25.6187H55.7374C56.0274 25.6173 56.3095 25.7134 56.5383 25.8917C56.767 26.07 56.9292 26.32 56.9986 26.6016C57.0681 26.8832 57.0408 27.1799 56.9212 27.4441C56.8016 27.7083 56.5966 27.9246 56.3392 28.0582H57.741C58.0838 28.0582 58.4125 28.1944 58.6549 28.4367C58.8972 28.6791 59.0334 29.0078 59.0334 29.3506C59.0334 29.6934 58.8972 30.0221 58.6549 30.2645C58.4125 30.5069 58.0838 30.643 57.741 30.643H53.4672C53.5963 30.8477 53.6644 31.0849 53.6638 31.3268C53.6615 31.6699 53.5233 31.9981 53.2794 32.2394C53.0355 32.4807 52.7059 32.6155 52.3628 32.6141ZM72.8909 51.048H68.617C68.7393 51.2433 68.8069 51.4678 68.8129 51.6982C68.8189 51.9285 68.7631 52.1563 68.6512 52.3577C68.5393 52.5591 68.3755 52.7269 68.1768 52.8435C67.978 52.9601 67.7517 53.0213 67.5212 53.0208H55.0707C54.7279 53.0208 54.3992 52.8846 54.1568 52.6422C53.9145 52.3999 53.7783 52.0711 53.7783 51.7284C53.7783 51.3856 53.9145 51.0569 54.1568 50.8145C54.3992 50.5721 54.7279 50.436 55.0707 50.436H59.3445C59.2504 50.2849 59.1886 50.1159 59.1631 49.9398C59.1376 49.7636 59.1489 49.5841 59.1963 49.4125C59.2437 49.2409 59.3261 49.081 59.4385 48.9429C59.5508 48.8048 59.6905 48.6915 59.8489 48.6102H58.447C58.1043 48.6102 57.7755 48.474 57.5332 48.2317C57.2908 47.9893 57.1546 47.6605 57.1546 47.3178C57.1546 46.975 57.2908 46.6463 57.5332 46.4039C57.7755 46.1615 58.1043 46.0254 58.447 46.0254H70.8976C71.1872 46.0246 71.4687 46.1214 71.6967 46.3C71.9247 46.4786 72.086 46.7287 72.1547 47.0101C72.2234 47.2915 72.1954 47.5878 72.0753 47.8513C71.9552 48.1149 71.7499 48.3304 71.4925 48.4632H72.8926C73.2353 48.4632 73.5641 48.5993 73.8064 48.8417C74.0488 49.0841 74.185 49.4128 74.185 49.7556C74.185 50.0983 74.0488 50.4271 73.8064 50.6694C73.5641 50.9118 73.2353 51.048 72.8926 51.048H72.8909ZM91.6342 37.211L91.8359 37.5256C91.41 37.5751 90.9785 37.532 90.5708 37.3991C89.945 37.3505 89.3463 37.1233 88.8459 36.7443L89.9383 36.5614C89.9246 36.2349 90.0426 35.8024 90.3674 35.228L91.0957 36.3682L93.0479 36.0434C92.6924 36.5547 92.2034 36.9586 91.6342 37.211ZM120.397 50.3471L120.599 50.6616C120.173 50.7102 119.742 50.6671 119.334 50.5351C118.708 50.4866 118.109 50.2593 117.609 49.8804L118.701 49.6974C118.687 49.3709 118.805 48.9384 119.13 48.364L119.859 49.5043L121.811 49.1795C121.455 49.6907 120.966 50.0946 120.397 50.3471ZM143.071 39.536L143.272 39.8506C142.846 39.9001 142.415 39.8569 142.007 39.724C141.379 39.674 140.778 39.4437 140.277 39.0607L141.37 38.8778C141.356 38.5513 141.474 38.1188 141.799 37.5444L142.527 38.6847L144.477 38.3598C144.125 38.8736 143.639 39.2806 143.071 39.536ZM158.398 25.9777H154.124C154.247 26.173 154.314 26.3976 154.32 26.6279C154.326 26.8582 154.27 27.086 154.159 27.2874C154.047 27.4889 153.883 27.6566 153.684 27.7732C153.485 27.8899 153.259 27.9511 153.029 27.9505H140.581C140.239 27.9505 139.91 27.8143 139.668 27.572C139.425 27.3296 139.289 27.0009 139.289 26.6581C139.289 26.3153 139.425 25.9866 139.668 25.7442C139.91 25.5019 140.239 25.3657 140.581 25.3657H144.855C144.761 25.2141 144.7 25.0447 144.675 24.8681C144.65 24.6916 144.662 24.5118 144.711 24.3401C144.759 24.1685 144.842 24.0087 144.955 23.871C145.069 23.7332 145.209 23.6205 145.368 23.5399H143.966C143.624 23.5399 143.295 23.4038 143.052 23.1614C142.81 22.919 142.674 22.5903 142.674 22.2475C142.674 21.9047 142.81 21.576 143.052 21.3336C143.295 21.0913 143.624 20.9551 143.966 20.9551H156.417C156.706 20.9544 156.988 21.0511 157.216 21.2297C157.444 21.4083 157.605 21.6584 157.674 21.9398C157.743 22.2212 157.715 22.5175 157.595 22.7811C157.474 23.0446 157.269 23.2601 157.012 23.3929H158.398C158.741 23.3929 159.07 23.5291 159.312 23.7714C159.554 24.0138 159.691 24.3425 159.691 24.6853C159.691 25.0281 159.554 25.3568 159.312 25.5992C159.07 25.8415 158.741 25.9777 158.398 25.9777Z" fill="#C4C1FF"/>
<path d="M74.701 79.486C103.781 79.486 127.355 78.6441 127.355 77.6056C127.355 76.567 103.781 75.7251 74.701 75.7251C45.6213 75.7251 22.0475 76.567 22.0475 77.6056C22.0475 78.6441 45.6213 79.486 74.701 79.486Z" fill="#DAD9E7"/>
<path d="M148.724 92.8203C162.131 92.8203 172.999 91.7871 172.999 90.5125C172.999 89.2379 162.131 88.2046 148.724 88.2046C135.317 88.2046 124.448 89.2379 124.448 90.5125C124.448 91.7871 135.317 92.8203 148.724 92.8203Z" fill="#DAD9E7"/>
<path d="M77.7782 19.8232H71.6239V77.6054H77.7782V19.8232Z" fill="#9A9CB8"/>
<path d="M102.908 32.9868H65.1277V22.3877H102.908L113.849 27.6872L102.908 32.9868Z" fill="#C0BCCF"/>
<path opacity="0.1" d="M102.908 32.1319H65.1277V32.9867H102.908L113.849 27.6871L112.967 27.2598L102.908 32.1319Z" fill="#BFC3CF"/>
<path d="M46.6648 47.0049H84.4454V36.4058H46.6648L35.7238 41.7053L46.6648 47.0049Z" fill="#C0BCCF"/>
<path opacity="0.1" d="M36.606 41.2781L35.7238 41.7055L46.6648 47.005H84.4454V46.1502H46.6648L36.606 41.2781Z" fill="black"/>
<path d="M92.822 24.439H86.3258V30.9352H92.822V24.439Z" fill="#BAB7F2"/>
<path d="M60.17 44.9535C61.9639 44.9535 63.4181 43.4993 63.4181 41.7054C63.4181 39.9115 61.9639 38.4573 60.17 38.4573C58.3761 38.4573 56.9219 39.9115 56.9219 41.7054C56.9219 43.4993 58.3761 44.9535 60.17 44.9535Z" fill="#BAB7F2"/>
<path d="M74.701 29.2258C75.7396 29.2258 76.5815 28.3839 76.5815 27.3453C76.5815 26.3068 75.7396 25.4648 74.701 25.4648C73.6625 25.4648 72.8206 26.3068 72.8206 27.3453C72.8206 28.3839 73.6625 29.2258 74.701 29.2258Z" fill="#9A9CB8"/>
<path d="M74.701 43.2439C75.7396 43.2439 76.5815 42.402 76.5815 41.3634C76.5815 40.3248 75.7396 39.4829 74.701 39.4829C73.6625 39.4829 72.8206 40.3248 72.8206 41.3634C72.8206 42.402 73.6625 43.2439 74.701 43.2439Z" fill="#9A9CB8"/>
<path d="M62.0506 71.1667C62.0506 75.0077 59.7673 76.3489 56.9504 76.3489C56.8852 76.3489 56.82 76.3482 56.755 76.3467C56.6245 76.3439 56.4952 76.3377 56.3675 76.329C53.8253 76.1491 51.8502 74.739 51.8502 71.1667C51.8502 67.4698 56.5744 62.8049 56.9293 62.4597L56.9299 62.4591C56.9436 62.4457 56.9504 62.4392 56.9504 62.4392C56.9504 62.4392 62.0506 67.3256 62.0506 71.1667Z" fill="#BAB7F2"/>
<path d="M56.7643 75.7613L58.6297 73.1548L56.7597 76.0475L56.7547 76.3467C56.6242 76.344 56.4949 76.3377 56.3672 76.329L56.5682 72.4861L56.5667 72.4563L56.5701 72.4507L56.5891 72.0877L54.7144 69.1879L56.595 71.8155L56.5993 71.8926L56.7513 68.989L55.1463 65.9925L56.7708 68.4794L56.929 62.4597L56.9296 62.4392V62.4591L56.9032 67.206L58.5011 65.3241L56.8967 67.6149L56.8544 70.2146L58.3463 67.7196L56.8482 70.5971L56.8246 72.0424L58.9905 68.5698L56.8165 72.5467L56.7643 75.7613Z" fill="#3F3D56"/>
<path d="M140.866 86.3093C140.866 86.3093 138.446 88.3477 137.172 88.2203C135.898 88.0929 133.477 88.0929 134.496 89.4942C135.516 90.8956 139.72 91.66 141.503 91.7874C143.287 91.9148 147.236 92.0422 146.981 91.2778C146.727 90.5134 146.472 86.9463 145.453 86.6915C144.433 86.4367 140.866 86.3093 140.866 86.3093Z" fill="#191847"/>
<path d="M154.759 84.308C154.759 84.308 152.975 86.9219 151.714 87.1416C150.453 87.3613 148.121 88.0118 149.479 89.0877C150.838 90.1636 155.093 89.77 156.845 89.4133C158.597 89.0567 162.435 88.118 161.984 87.4502C161.533 86.7825 160.329 83.415 159.279 83.4435C158.229 83.472 154.759 84.308 154.759 84.308Z" fill="#191847"/>
<path d="M139.449 46.926C139.449 46.926 137.809 58.1549 138.191 60.1933C138.574 62.2316 138.828 65.4165 138.828 65.4165C138.828 65.4165 138.574 68.0918 138.828 69.3658C139.083 70.6398 140.612 82.7424 140.612 82.9972C140.612 83.252 140.357 84.0164 140.612 84.6534C140.867 85.2904 141.376 84.7808 140.612 85.8C139.848 86.8191 140.357 87.0739 140.485 87.0739C140.612 87.0739 145.58 87.5835 145.835 87.0739C146.09 86.5643 145.708 86.4369 145.835 85.8C145.963 85.163 146.09 85.0356 146.345 84.9082C146.6 84.7808 147.109 85.0356 146.727 84.3986C146.345 83.7616 145.453 82.9972 145.708 82.615C145.963 82.2329 145.58 79.4301 145.58 79.4301C145.58 79.4301 145.326 73.1877 145.198 69.3658C145.071 65.5439 146.345 61.5946 146.345 61.5946C146.503 64.7217 147.665 67.7146 149.657 70.1302C152.969 74.0795 154.626 81.4685 154.626 81.4685C154.626 81.4685 155.39 82.6151 155.008 83.6342C154.626 84.6534 153.479 84.0164 154.626 84.6534C155.772 85.2904 159.721 84.3986 160.104 84.0164C160.486 83.6342 159.594 83.1246 159.849 82.1055C160.104 81.0863 161.123 81.3411 160.231 80.8315C159.339 80.3219 159.084 80.4493 159.084 79.9397C159.084 79.4301 156.791 68.3466 153.224 65.1617L152.969 53.5686C152.969 53.5686 156.154 45.4153 152.842 44.6509C149.53 43.8865 139.449 46.926 139.449 46.926Z" fill="#5F5D7E"/>
<path d="M141.758 16.7508C141.758 16.7508 143.924 22.1014 143.414 22.8658C142.905 23.6302 149.657 20.3179 149.657 20.3179C149.657 20.3179 147.491 14.9672 147.491 14.3302C147.491 13.6933 141.758 16.7508 141.758 16.7508Z" fill="#A0616A"/>
<path d="M143.351 18.0885C145.954 18.0885 148.064 15.9781 148.064 13.3748C148.064 10.7715 145.954 8.66113 143.351 8.66113C140.748 8.66113 138.637 10.7715 138.637 13.3748C138.637 15.9781 140.748 18.0885 143.351 18.0885Z" fill="#A0616A"/>
<path d="M149.657 18.1521C149.657 18.1521 146.344 17.7699 144.688 19.8083C143.032 21.8466 142.777 22.3562 142.777 22.3562C142.777 22.3562 138.828 28.726 139.592 31.9109C139.779 32.1985 139.949 32.4962 140.102 32.8027C140.357 33.3123 140.357 40.4465 140.102 41.5931C139.847 42.7396 139.592 43.1218 139.847 44.778C140.102 46.4341 137.809 49.1094 140.484 49.619C143.159 50.1286 145.198 49.7464 146.09 48.5999C146.981 47.4533 146.217 46.6889 149.02 46.6889C151.822 46.6889 153.606 44.778 153.606 44.778C153.606 44.778 152.205 43.2492 152.714 42.9944C153.224 42.7396 152.714 42.1026 152.459 41.4657C152.205 40.8287 152.205 40.3191 152.587 40.3191C152.969 40.3191 152.714 40.0643 152.459 39.4273C152.205 38.7903 156.918 27.8342 154.116 24.6493C151.313 21.4644 149.911 19.6809 149.911 19.6809C149.911 19.6809 150.421 17.7699 149.657 18.1521Z" fill="#DCE6F2"/>
<path d="M142.395 30.2549V35.8603L138.319 49.3644C138.319 49.3644 135.643 56.3712 138.319 56.3712C140.994 56.3712 140.851 49.6834 140.851 49.6834L146.599 39.5548C146.599 39.5548 148.893 31.5288 148.638 30.8919C148.383 30.2549 142.395 30.2549 142.395 30.2549Z" fill="#A0616A"/>
<path d="M144.561 21.9743C144.561 21.9743 140.739 23.503 141.758 27.5797C142.777 31.6564 141.758 31.529 141.758 31.529C141.758 31.529 146.981 31.0194 148.638 32.166L149.02 30.6372C149.02 30.6372 150.549 21.8469 144.561 21.9743Z" fill="#DCE6F2"/>
<path d="M141.741 9.83608C141.447 9.94045 141.131 9.96997 140.823 9.92198C140.515 9.87398 140.223 9.74999 139.974 9.56117C139.494 9.16552 139.291 8.4355 139.573 7.88111C139.817 7.40238 140.339 7.13974 140.839 6.94387C141.943 6.51216 143.105 6.24967 144.287 6.16526C144.851 6.12517 145.443 6.13153 145.946 6.38897C146.195 6.51636 146.411 6.7002 146.657 6.83215C147.11 7.07478 147.638 7.12873 148.127 7.28489C148.628 7.44834 149.088 7.71749 149.476 8.07414C149.864 8.43079 150.171 8.86661 150.376 9.35213C150.509 9.68184 150.602 10.0264 150.653 10.3783C150.8 11.3418 150.697 12.3268 150.356 13.2397C149.813 14.6856 148.674 15.9496 148.61 17.4928C147.913 16.987 147.654 16.0741 147.095 15.4186C146.68 14.9341 146.112 14.6048 145.485 14.4846C145.312 14.4741 145.145 14.4133 145.005 14.3096C144.908 14.1935 144.847 14.0512 144.83 13.9007L144.353 11.6485C144.256 11.1902 144.133 10.6905 143.756 10.4119C143.522 10.2619 143.256 10.1682 142.979 10.138C142.321 10.0231 141.655 9.96236 140.987 9.95645" fill="#2F2E41"/>
</g>
<defs>
<clipPath id="clip0">
<rect width="194.545" height="113" fill="white"/>
</clipPath>
</defs>
</svg>
