<svg width="212" height="210" viewBox="0 0 212 210" fill="none" xmlns="http://www.w3.org/2000/svg">
<mask id="mask0" mask-type="alpha" maskUnits="userSpaceOnUse" x="0" y="0" width="212" height="210">
<rect x="0.523438" y="0.5" width="210.994" height="209.5" fill="#C4C4C4"/>
</mask>
<g mask="url(#mask0)">
<path opacity="0.376424" fill-rule="evenodd" clip-rule="evenodd" d="M49.4834 140.919C50.8541 135.077 43.5026 130.647 39.4203 128.129C24.6863 119.041 2.18178 127.322 4.24807 146.648C6.88945 171.353 64.9805 179.771 49.5355 143.152L49.4834 140.919Z" fill="#FFD166"/>
<path opacity="0.376424" fill-rule="evenodd" clip-rule="evenodd" d="M69.8109 191.063C70.945 186.23 64.8626 182.565 61.4852 180.481C49.295 172.962 30.6757 179.814 32.3853 195.803C34.5706 216.243 82.6325 223.207 69.854 192.911L69.8109 191.063Z" fill="#FFD166"/>
<path opacity="0.376424" fill-rule="evenodd" clip-rule="evenodd" d="M183.422 145.761C183.422 138.907 174.427 136.765 165.431 136.766C151.421 136.766 143.231 142.285 145.297 161.611C147.939 186.315 201.009 195.659 185.564 159.04L183.422 145.761Z" fill="#FFD166"/>
<path opacity="0.5" fill-rule="evenodd" clip-rule="evenodd" d="M51.2513 23.0384C12.8204 20.5893 1.3647 58.6782 32.8977 80.2087C48.3271 90.7438 68.4131 87.9361 82.7531 100.957C89.7065 107.27 91.5854 121.157 94.1921 128.466C101.029 147.634 111.575 156.817 132.096 160.048C171.238 166.209 211.806 115.819 181.866 83.1677C160.379 59.7343 102.01 51.7986 81.3013 46.0911C60.533 41.9251 74.3771 24.5121 51.2513 23.0384Z" fill="#FFD166"/>
<path fill-rule="evenodd" clip-rule="evenodd" d="M175.302 138.119C178.438 141.155 183.35 146.176 186.715 148.986C188.63 150.585 191.685 148.118 192.598 146.343C193.863 143.886 189.149 140.862 187.214 138.638C179.973 130.312 181.137 134.364 178.759 138.007L175.302 138.119Z" fill="#FDBE9C"/>
<path fill-rule="evenodd" clip-rule="evenodd" d="M62.7352 130.265C56.5701 130.265 47.262 127.287 42.2833 127.573C34.8485 128 41.7045 131.994 48.2081 134.788C54.2068 137.365 61.4529 142.142 58.6193 134.41L62.7352 130.265Z" fill="#FCBE99"/>
<path fill-rule="evenodd" clip-rule="evenodd" d="M102.679 35.0713C99.7785 38.291 100.651 44.7198 93.9308 50.5968C91.7885 52.4702 85.871 52.9483 83.3077 54.181C74.8711 58.2382 77.7069 58.6832 71.6552 69.1936C68.8357 74.0905 55.6865 79.9478 53.7702 81.6035C49.5378 85.2602 54.3019 89.1985 57.5264 89.6532C64.6959 90.664 71.9296 92.7661 79.1248 91.9586C92.1624 90.4953 104.837 86.597 117.434 82.9297C124.332 80.9212 126.09 69.1377 126.466 64.3327C127.006 57.4169 125.178 47.1388 122.593 39.787C120.635 34.2192 118.806 31.4304 110.64 32.8014C107.267 32.1682 104.613 32.9248 102.679 35.0713Z" fill="#EE504F"/>
<mask id="mask1" mask-type="alpha" maskUnits="userSpaceOnUse" x="103" y="90" width="83" height="52">
<path d="M103.337 104.264C116.775 113.79 124.844 113.502 146.072 116.948C148.837 117.397 151.378 124.743 156.131 128.895C163.944 135.721 170.678 135.154 179.165 141.123C181.526 142.784 186.757 138.447 185.662 136.125C184.127 132.871 182.357 132.091 178.351 128.606C166.562 118.351 137.475 88.5116 116.516 90.0886C112.205 90.4129 111.366 96.8499 107.81 99.3086L103.337 104.264Z" fill="white"/>
</mask>
<g mask="url(#mask1)">
<path d="M103.337 104.264C116.775 113.79 124.844 113.502 146.072 116.948C148.837 117.397 151.378 124.743 156.131 128.895C163.944 135.721 170.678 135.154 179.165 141.123C181.526 142.784 186.757 138.447 185.662 136.125C184.127 132.871 182.357 132.091 178.351 128.606C166.562 118.351 137.475 88.5116 116.516 90.0886C112.205 90.4129 111.366 96.8499 107.81 99.3086L103.337 104.264Z" fill="#5A5ABA"/>
<path fill-rule="evenodd" clip-rule="evenodd" d="M119.367 86.5418C117.777 89.3547 114.522 87.6399 113.178 90.5787C102.176 114.632 112.765 113.287 141.809 118.607C142.261 118.69 144.925 118.681 144.646 118.315C132.65 102.506 116.672 120.299 117.811 95.5026L119.367 86.5418Z" fill="#493682"/>
<path fill-rule="evenodd" clip-rule="evenodd" d="M160.797 129.807C166.463 132.66 171.874 135.926 178.42 136.989C183.562 137.824 186.702 135.19 186.776 137.994C186.778 138.079 176.446 147.932 174.757 146.903C164.524 140.672 155.13 133.15 145.58 125.916C144.923 125.419 143.463 123.691 144.277 123.817L145.054 122.892C147.592 123.286 145.832 116.595 151.633 122.288" fill="#493682"/>
</g>
<path fill-rule="evenodd" clip-rule="evenodd" d="M97.7487 90.8966C91.0687 102.869 88.938 112.992 91.3127 126.223C92.0895 130.551 95.6568 139.98 94.9791 140.295C92.2754 141.55 88.8798 136.276 83.7447 133.649C76.7833 130.088 61.9342 129.333 57.9096 129.333C54.8476 129.333 49.5139 137.049 59.425 141.55C72.9372 147.686 88.938 155.223 104.932 157.25C112.965 151.85 112.312 140.764 113.893 129.333C115.486 117.817 115.738 108.891 115.8 106.617C115.998 99.3206 116.863 90.6467 117.07 87.2596C117.312 83.3221 117.461 91.6479 101.724 90.6974L97.7487 90.8966Z" fill="#5A5ABA"/>
<path fill-rule="evenodd" clip-rule="evenodd" d="M109.352 51.9375C109.399 53.3948 108.283 56.1142 106.88 56.1142C105.301 56.1142 102.375 55.9787 102.097 56.3867C101.335 57.5059 104.932 60.6905 106.377 61.3758C108.892 62.5688 112.405 63.6492 115.268 62.7183C116.946 62.173 122.107 59.9327 121.428 59.1681C121.055 58.7481 119.307 58.4183 117.129 58.0183C115.589 57.7355 117.23 53.5275 118.433 52.0142C119.375 50.8275 121.777 52.3672 122.936 51.3902C125.129 49.5409 125.975 46.8885 125.764 44.1641C125.714 43.5162 124.234 43.0896 124.327 42.42C125.046 37.2115 119.74 32.7885 113.775 32.7988C93.5333 36.5713 109.233 48.2558 109.352 51.9375Z" fill="#FCBE99"/>
<path fill-rule="evenodd" clip-rule="evenodd" d="M115.8 47.9365C115.122 52.0142 113.988 58.4722 107.702 56.6799C106.197 56.2506 108.835 54.6127 108.687 53.962C108.139 51.5578 111.724 49.2254 112.844 48.7145L115.8 47.9365Z" fill="#DF9067"/>
<path fill-rule="evenodd" clip-rule="evenodd" d="M106.882 34.2448C103.513 36.1945 99.8876 35.6697 101.128 41.4683C101.943 45.2802 101.719 46.0104 104.933 48.7144L106.882 56.1162C112.301 56.1162 116.771 48.328 115.826 47.0824C113.895 47.9364 110.733 46.4643 112.715 43.332C113.502 42.0895 114.704 42.0895 116.323 43.332C117.153 41.1849 116.019 38.4162 117.284 36.4931C117.881 35.5858 119.452 37.2335 120.506 36.9729C121.366 36.7603 123.021 35.9156 122.491 35.2057C120.96 33.1535 117.857 30.2402 113.406 30.2402C111.289 30.2402 109.115 31.5751 106.882 34.2448Z" fill="#EE504F"/>
<g opacity="0.214915">
<path opacity="0.8" d="M105.266 38.5801C103.855 42.5205 103.061 46.7394 101.034 50.4012C97.9201 56.0277 89.4874 52.6304 85.7748 57.6249C82.6871 61.7789 80.8427 66.6967 77.7502 70.9185C73.4007 76.8565 73.4007 68.4764 63.9844 84.3085" stroke="white" stroke-linecap="round"/>
<path opacity="0.8" d="M108.687 40.2021C105.518 45.5976 106.074 53.3923 100.905 57.1646C97.6266 59.5574 93.6457 60.987 90.6405 63.7157C85.7324 68.1721 89.9433 77.531 79.1797 87.0949" stroke="white" stroke-linecap="round"/>
<path opacity="0.8" d="M99.3243 65.0547C92.2359 72.5424 94.5897 79.3626 87.7383 86.8826" stroke="white" stroke-linecap="round"/>
</g>
<mask id="mask2" mask-type="alpha" maskUnits="userSpaceOnUse" x="52" y="48" width="115" height="50">
<path d="M52.0996 95.116C65.2917 80.6385 85.8382 52.8567 109.343 56.3643C117.687 57.6094 118.917 58.6897 127.209 60.2409C130.289 60.817 142.142 64.5908 143.384 62.7325C149.368 53.7831 164.53 44.5518 166.314 50.7163C166.593 51.68 162.257 56.8027 161.412 57.8354C154.592 66.1756 152.822 72.9635 145.732 75.549C139.402 77.8571 129.67 77.3742 125.795 75.549C125.085 75.2142 123.972 74.2724 123.972 82.2508C123.972 85.575 125.981 92.0302 121.85 92.317C113.15 92.921 102.02 100.603 94.5601 96.5438C91.0917 94.6567 93.4649 86.1369 94.5601 82.2508C96.444 75.5662 98.0284 71.4327 96.7023 71.4327C95.3763 71.4327 93.5819 76.433 85.0125 82.2508C76.8964 87.7609 60.5969 99.0037 53.7361 97.6862L52.0996 95.116Z" fill="white"/>
</mask>
<g mask="url(#mask2)">
<path d="M52.0996 95.116C65.2917 80.6385 85.8382 52.8567 109.343 56.3643C117.687 57.6094 118.917 58.6897 127.209 60.2409C130.289 60.817 142.142 64.5908 143.384 62.7325C149.368 53.7831 164.53 44.5518 166.314 50.7163C166.593 51.68 162.257 56.8027 161.412 57.8354C154.592 66.1756 152.822 72.9635 145.732 75.549C139.402 77.8571 129.67 77.3742 125.795 75.549C125.085 75.2142 123.972 74.2724 123.972 82.2508C123.972 85.575 125.981 92.0302 121.85 92.317C113.15 92.921 102.02 100.603 94.5601 96.5438C91.0917 94.6567 93.4649 86.1369 94.5601 82.2508C96.444 75.5662 98.0284 71.4327 96.7023 71.4327C95.3763 71.4327 93.5819 76.433 85.0125 82.2508C76.8964 87.7609 60.5969 99.0037 53.7361 97.6862L52.0996 95.116Z" fill="#7CC7DE"/>
<path opacity="0.548814" fill-rule="evenodd" clip-rule="evenodd" d="M85.415 80.7693C80.949 80.7693 82.2078 77.8468 79.1804 79.8128C75.3052 82.3293 77.6778 86.1939 72.4435 91.5001C68.5984 95.3981 100.799 78.2376 91.9857 80.7693H85.415Z" fill="#6682E9"/>
<path fill-rule="evenodd" clip-rule="evenodd" d="M78.9316 67.2006C87.2595 64.1389 95.5173 59.2599 103.915 58.0155C113.883 56.5386 101.706 53.9069 99.2945 54.8937C84.6043 60.9062 87.9149 59.0145 78.9341 66.439L78.9316 67.2006Z" fill="#6682E9"/>
<path d="M124.936 70.2296C125.298 69.7548 125.976 69.6631 126.45 70.0247C126.897 70.3651 127.005 70.9857 126.714 71.4533L126.655 71.5391L119.233 81.2857C118.828 81.8172 118.052 81.8524 117.599 81.3846L117.526 81.302L112.583 73.5671L107.747 82.1172C107.365 82.8388 106.365 82.8856 105.91 82.2378L105.854 82.1494L101.171 76.2483L95.6599 82.314C95.2967 82.7395 94.6746 82.8134 94.2243 82.5016L94.1367 82.4341C93.7113 82.0708 93.6374 81.4486 93.9491 80.9983L94.0166 80.9107L101.171 72.5306C101.633 71.989 102.474 72.0398 102.874 72.6064L102.93 72.6952L106.753 79.3707L110.781 71.7479C111.129 71.0879 112.016 70.9788 112.517 71.5058L112.583 71.5816L118.356 78.8693C120.81 75.1246 122.742 72.5885 124.151 71.2609C124.385 71.04 124.647 70.6962 124.936 70.2296Z" fill="#EE504F"/>
<g style="mix-blend-mode:multiply">
<path fill-rule="evenodd" clip-rule="evenodd" d="M96.7013 71.4316C98.7648 71.4316 99.4146 76.0004 98.8385 86.4617C98.7648 87.7993 98.9763 89.1724 99.4146 90.4379C99.6202 91.0316 100.081 91.6862 100.695 91.821C103.274 92.3879 105.953 92.5577 108.591 92.4549C113.21 92.2749 117.759 91.1043 122.379 90.9761C123.17 90.9542 125.166 91.5665 124.513 92.0131C121.469 94.0958 117.871 95.2736 114.376 96.4509C87.6615 105.447 84.6772 104.711 93.1509 79.7438C95.0037 74.2024 96.1872 71.4316 96.7013 71.4316Z" fill="#4F6DBA" fill-opacity="0.4"/>
</g>
<path fill-rule="evenodd" clip-rule="evenodd" d="M124.644 67.4688C123.65 80.895 120.45 80.895 141.195 78.7824C144.831 78.4121 154.789 75.7031 150.515 74.6264C139.929 71.9596 134.985 74.0371 130.169 72.1901C126.269 70.6947 126.561 67.4688 124.644 67.4688Z" fill="#6682E9"/>
</g>
<mask id="mask3" mask-type="alpha" maskUnits="userSpaceOnUse" x="28" y="86" width="26" height="28">
<path d="M29.8408 92.5529L45.9241 86.4629L53.952 104.496L51.7526 112.071C51.5308 112.835 50.7315 113.275 49.9674 113.053C49.7378 112.986 49.5283 112.863 49.358 112.695L48.5104 111.86L46.8748 112.97C46.2618 113.386 45.4277 113.226 45.0117 112.613C44.861 112.391 44.7803 112.129 44.7803 111.86L42.3062 112.862C41.5687 113.161 40.7288 112.805 40.4302 112.067C40.3606 111.896 40.3248 111.712 40.3248 111.527V110.593L34.1901 113.021C33.4503 113.314 32.6133 112.951 32.3205 112.211C32.2864 112.125 32.2607 112.036 32.2437 111.945L28.9346 94.164C28.807 93.4784 29.1887 92.7999 29.8408 92.5529Z" fill="white"/>
</mask>
<g mask="url(#mask3)">
<path d="M29.8408 92.5529L45.9241 86.4629L53.952 104.496L51.7526 112.071C51.5308 112.835 50.7315 113.275 49.9674 113.053C49.7378 112.986 49.5283 112.863 49.358 112.695L48.5104 111.86L46.8748 112.97C46.2618 113.386 45.4277 113.226 45.0117 112.613C44.861 112.391 44.7803 112.129 44.7803 111.86L42.3062 112.862C41.5687 113.161 40.7288 112.805 40.4302 112.067C40.3606 111.896 40.3248 111.712 40.3248 111.527V110.593L34.1901 113.021C33.4503 113.314 32.6133 112.951 32.3205 112.211C32.2864 112.125 32.2607 112.036 32.2437 111.945L28.9346 94.164C28.807 93.4784 29.1887 92.7999 29.8408 92.5529Z" fill="#D8D8D8"/>
<path fill-rule="evenodd" clip-rule="evenodd" d="M39.1582 111.046L50.556 106.656L39.1582 112.476V111.046Z" fill="#A19C9C"/>
</g>
<mask id="mask4" mask-type="alpha" maskUnits="userSpaceOnUse" x="30" y="83" width="26" height="32">
<path d="M31.4325 88.9137L45.8747 83.9601C46.6034 83.7102 47.3996 84.0777 47.6822 84.7944L55.2006 103.863L51.9534 114.543C51.8693 114.82 51.5768 114.976 51.3001 114.892C51.1525 114.847 51.0322 114.739 50.9713 114.598L50.511 113.525C50.4433 113.368 50.4341 113.191 50.4852 113.027L53.34 103.863L36.8262 109.445C36.0725 109.7 35.2549 109.295 35.0002 108.542C34.9878 108.505 34.977 108.468 34.9676 108.431L30.5025 90.6271C30.3204 89.9011 30.7246 89.1565 31.4325 88.9137Z" fill="white"/>
</mask>
<g mask="url(#mask4)">
<path d="M31.4325 88.9137L45.8747 83.9601C46.6034 83.7102 47.3996 84.0777 47.6822 84.7944L55.2006 103.863L51.9534 114.543C51.8693 114.82 51.5768 114.976 51.3001 114.892C51.1525 114.847 51.0322 114.739 50.9713 114.598L50.511 113.525C50.4433 113.368 50.4341 113.191 50.4852 113.027L53.34 103.863L36.8262 109.445C36.0725 109.7 35.2549 109.295 35.0002 108.542C34.9878 108.505 34.977 108.468 34.9676 108.431L30.5025 90.6271C30.3204 89.9011 30.7246 89.1565 31.4325 88.9137Z" fill="#6D8FE8"/>
<path fill-rule="evenodd" clip-rule="evenodd" d="M44.2012 80.2726L52.9899 103.601L48.5955 116.568L55.2004 119.357L60.6641 101.711L48.5955 79.1357L44.2012 80.2726Z" fill="#4B6ABE"/>
</g>
<mask id="mask5" mask-type="alpha" maskUnits="userSpaceOnUse" x="103" y="56" width="20" height="7">
<path d="M103.424 56.1163C107.002 55.6654 112.955 56.5742 118.95 58.1888C120.995 58.7396 119.925 58.3921 121.926 59.0962C123.078 59.5016 121.179 61.9234 118.107 62.2971C111.737 63.072 110.231 61.7038 107.517 59.8074C105.708 58.5431 104.343 57.3127 103.424 56.1163Z" fill="white"/>
</mask>
<g mask="url(#mask5)">
<path d="M103.424 56.1163C107.002 55.6654 112.955 56.5742 118.95 58.1888C120.995 58.7396 119.925 58.3921 121.926 59.0962C123.078 59.5016 121.179 61.9234 118.107 62.2971C111.737 63.072 110.231 61.7038 107.517 59.8074C105.708 58.5431 104.343 57.3127 103.424 56.1163Z" fill="#FCBE99"/>
<path fill-rule="evenodd" clip-rule="evenodd" d="M104.053 57.8346C106.299 57.5263 108.581 57.4223 110.789 56.9098C116.128 55.6701 100.779 52.0845 103.661 57.7167L104.053 57.8346Z" fill="#DF9067"/>
</g>
<path fill-rule="evenodd" clip-rule="evenodd" d="M32.0254 122.733C21.7337 143.442 23.2304 146.333 27.6682 144.805C29.4247 144.2 32.7038 137.796 33.6643 134.706C34.4444 132.196 40.1768 136.075 41.4245 134.314C42.6722 132.554 42.9746 130.993 43.4654 127.53C43.8414 124.878 38.915 125.924 36.2773 124.748C33.4427 123.405 32.0254 122.733 32.0254 122.733Z" fill="#3E3A39"/>
<path fill-rule="evenodd" clip-rule="evenodd" d="M184.115 147.699L190.625 155.433C195.122 151.904 203.194 146.192 208.224 141.407C209.114 140.56 204.419 138.279 202.497 139.552C191.192 147.042 192.332 139.717 190.429 142.204C188.527 144.691 183.649 146.214 184.115 147.699Z" fill="#3E3A39"/>
<path fill-rule="evenodd" clip-rule="evenodd" d="M43.843 99.0373C43.8924 100.326 46.3651 102.493 47.9339 101.938C49.8082 101.274 51.1791 99.2104 53.1622 99.0659C53.9883 99.0057 52.8099 100.523 53.3991 101.54C53.7919 102.218 54.1973 102.383 54.6152 102.037C55.5437 98.9895 56.2389 95.0231 52.6885 94.7719C50.4261 94.3622 43.6726 94.5869 43.843 99.0373Z" fill="#FCBE99"/>
<mask id="mask6" mask-type="alpha" maskUnits="userSpaceOnUse" x="159" y="37" width="17" height="16">
<path d="M170.139 37.2129C165.414 38.7072 163.408 37.7264 161.909 41.9482C161.083 44.2767 159.275 46.7547 160.01 49.1135C160.571 50.9127 164.21 53.2791 165.908 52.4611C174.809 48.1722 179.677 40.6514 170.98 37.241L170.139 37.2129Z" fill="white"/>
</mask>
<g mask="url(#mask6)">
<path d="M170.139 37.2129C165.414 38.7072 163.408 37.7264 161.909 41.9482C161.083 44.2767 159.275 46.7547 160.01 49.1135C160.571 50.9127 164.21 53.2791 165.908 52.4611C174.809 48.1722 179.677 40.6514 170.98 37.241L170.139 37.2129Z" fill="#FCBE99"/>
<path fill-rule="evenodd" clip-rule="evenodd" d="M169.934 35.5742L171.783 48.7145H178.863L177.683 37.2993L169.934 35.5742Z" fill="#DF9067"/>
</g>
<mask id="mask7" mask-type="alpha" maskUnits="userSpaceOnUse" x="159" y="18" width="11" height="10">
<path d="M165.053 19.054L169.935 25.8821L159.974 27.4602L162.508 19.4573C162.748 18.6987 163.558 18.2784 164.316 18.5185C164.613 18.6125 164.872 18.8005 165.053 19.054Z" fill="white"/>
</mask>
<g mask="url(#mask7)">
<path d="M165.053 19.0541L169.935 25.8822L159.975 27.4602L162.508 19.4574C162.748 18.6987 163.558 18.2784 164.316 18.5185C164.613 18.6126 164.872 18.8005 165.053 19.0541Z" fill="#FBD9D9"/>
<path d="M168.762 15.8579L163.498 18.2021L167.353 26.8612L172.617 24.517L168.762 15.8579Z" fill="#EEB7B7"/>
<path d="M157.767 17.5989L163.498 18.2012L162.507 27.6282L156.777 27.0259L157.767 17.5989Z" fill="#FFEAEA"/>
<path d="M164.109 21.3346C165.386 21.1323 166.257 19.933 166.055 18.6559C165.853 17.3788 164.654 16.5075 163.377 16.7098C162.1 16.9122 161.228 18.1115 161.431 19.3886C161.633 20.6657 162.832 21.537 164.109 21.3346Z" fill="#A36969"/>
</g>
<mask id="mask8" mask-type="alpha" maskUnits="userSpaceOnUse" x="160" y="24" width="16" height="40">
<path d="M161.847 25.4773L167.539 24.5755C168.718 24.3887 169.825 25.193 170.012 26.3719L175.251 59.4577C175.5 61.0295 174.427 62.5056 172.855 62.7546L168.586 63.431C167.015 63.68 165.539 62.6076 165.29 61.0358L160.051 27.95C159.864 26.7711 160.669 25.664 161.847 25.4773Z" fill="white"/>
</mask>
<g mask="url(#mask8)">
<path d="M161.847 25.4773L167.539 24.5755C168.718 24.3888 169.825 25.1931 170.012 26.372L175.251 59.4578C175.5 61.0296 174.427 62.5057 172.855 62.7547L168.586 63.431C167.015 63.68 165.539 62.6077 165.29 61.0358L160.051 27.95C159.864 26.7711 160.669 25.664 161.847 25.4773Z" fill="#6F57AD"/>
<path d="M162.096 24.7442L157.115 25.5332L164.439 71.7824L169.419 70.9934L162.096 24.7442Z" fill="#AF97F5"/>
<path d="M172.057 23.1661L167.076 23.9551L174.4 70.2043L179.38 69.4153L172.057 23.1661Z" fill="#423471"/>
</g>
<path fill-rule="evenodd" clip-rule="evenodd" d="M161.063 43.1789C162.272 41.1394 163.312 39.3215 165.474 40.1608C166.26 40.466 165.797 41.9215 165.474 42.6889C164.835 44.2081 164.032 43.9946 164.164 45.6374C164.268 46.9264 165.474 45.8411 165.474 48.2632C165.474 50.3034 163.94 51.3676 162.483 51.3309C161.022 51.2941 159.639 50.1464 160.243 45.6374L161.063 43.1789Z" fill="#FCBE99"/>
<path fill-rule="evenodd" clip-rule="evenodd" d="M118.442 44.9395L122.266 47.4136C120.454 49.3292 119.18 50.1373 118.442 49.838C117.704 49.5386 117.704 47.9058 118.442 44.9395Z" fill="white"/>
<path opacity="0.5" fill-rule="evenodd" clip-rule="evenodd" d="M47.6627 161.541C59.1637 171.127 67.6693 158.125 61.1697 148.657C52.8437 140.277 40.2986 155.403 47.6627 161.541Z" fill="#FFD166"/>
<path opacity="0.5" fill-rule="evenodd" clip-rule="evenodd" d="M184.376 30.2325C195.877 39.8184 204.382 26.8167 197.883 17.3483C189.557 8.96884 177.011 24.0946 184.376 30.2325Z" fill="#FFD166"/>
<path d="M169.523 85.6046C171.123 85.6046 172.419 84.3078 172.419 82.7081C172.419 81.1083 171.123 79.8115 169.523 79.8115C167.924 79.8115 166.627 81.1083 166.627 82.7081C166.627 84.3078 167.924 85.6046 169.523 85.6046Z" fill="#3279A5"/>
<path d="M60.9343 69.2716C62.1278 69.2716 63.0952 68.304 63.0952 67.1104C63.0952 65.9168 62.1278 64.9492 60.9343 64.9492C59.7409 64.9492 58.7734 65.9168 58.7734 67.1104C58.7734 68.304 59.7409 69.2716 60.9343 69.2716Z" fill="#3279A5"/>
<path d="M179.968 108.657C181.568 108.657 182.865 107.361 182.865 105.761C182.865 104.161 181.568 102.864 179.968 102.864C178.369 102.864 177.072 104.161 177.072 105.761C177.072 107.361 178.369 108.657 179.968 108.657Z" fill="#E2666A"/>
<path d="M191.477 117.272C192.671 117.272 193.638 116.304 193.638 115.11C193.638 113.917 192.671 112.949 191.477 112.949C190.284 112.949 189.316 113.917 189.316 115.11C189.316 116.304 190.284 117.272 191.477 117.272Z" fill="#E2666A"/>
</g>
</svg>
