<svg width="150" height="113" viewBox="0 0 150 113" fill="none" xmlns="http://www.w3.org/2000/svg">
<g clip-path="url(#clip0)">
<path opacity="0.1" d="M140.094 64.1351C134.856 71.6541 136.585 82.3867 139.613 90.9371C140.627 93.7994 141.779 96.8269 141.253 99.9411C140.611 103.748 137.592 106.601 134.454 108.154C128.734 110.986 121.977 110.534 116.86 106.966C112.445 103.887 109.337 98.7696 104.835 95.8373C97.3021 90.9315 87.5222 93.1234 79.1379 96.8689C73.2064 99.5184 66.7087 102.931 60.9284 100.484C56.8607 98.7626 54.1217 94.3803 52.6806 89.6957C51.9848 87.4338 51.4977 84.9788 50.1115 83.2082C49.2873 82.1557 48.1981 81.4223 47.0781 80.8092C36.8567 75.2106 23.709 78.7098 13.7994 72.4631C7.10909 68.2445 2.94506 60.0579 1.21495 51.4514C-0.515155 42.845 -0.0869767 33.7598 0.602122 24.83C1.09185 18.4839 1.86658 11.7026 5.51412 6.71563C9.37174 1.44313 15.8372 -0.652155 21.619 0.173642C27.4007 0.999439 32.5843 4.35861 37.119 8.36863C42.791 13.371 48.0094 19.6513 55.0637 21.5506C59.8686 22.8439 64.9733 21.9285 69.9683 21.524C78.3177 20.8494 86.6377 21.6262 94.9069 22.5038C102.823 23.3436 110.794 24.2813 118.291 27.0344C123.596 28.9828 127.802 32.6653 132.797 35.1818C136.052 36.8222 139.634 37.2029 142.698 39.322C146.48 41.9324 149.897 46.5569 148.788 52.1065C147.74 57.3818 142.878 60.1447 140.094 64.1351Z" fill="#6C63FF"/>
<g opacity="0.5">
<path opacity="0.5" d="M109.961 64.5332C110.22 65.3257 109.537 68.0913 109.537 68.0913C109.537 68.0913 107.351 66.2627 107.093 65.4716C106.969 65.0912 107 64.677 107.182 64.3201C107.363 63.9633 107.678 63.693 108.059 63.5687C108.439 63.4445 108.853 63.4764 109.21 63.6575C109.567 63.8387 109.837 64.1541 109.961 64.5346V64.5332Z" fill="#E2666A"/>
<path opacity="0.5" d="M109.961 64.5332C110.22 65.3257 109.537 68.0913 109.537 68.0913C109.537 68.0913 107.351 66.2627 107.093 65.4716C106.969 65.0912 107 64.677 107.182 64.3201C107.363 63.9633 107.678 63.693 108.059 63.5687C108.439 63.4445 108.853 63.4764 109.21 63.6575C109.567 63.8387 109.837 64.1541 109.961 64.5346V64.5332Z" fill="white"/>
</g>
<path d="M110.743 5.25952H26.9443V106.367H110.743V5.25952Z" fill="url(#paint0_linear)"/>
<path d="M109.672 6.55273H28.0153V105.077H109.672V6.55273Z" fill="white"/>
<path d="M92.6717 17.6633H59.7411V19.2697H92.6717V17.6633Z" fill="#C0BCCF"/>
<path d="M92.6717 22.7502H59.7411V24.3566H92.6717V22.7502Z" fill="#C0BCCF"/>
<path d="M84.7737 27.8372H67.639V29.4435H84.7737V27.8372Z" fill="#E2666A"/>
<path opacity="0.5" d="M92.6717 49.9246H59.7411V51.5309H92.6717V49.9246Z" fill="#C0BCCF"/>
<path opacity="0.5" d="M92.6717 55.0115H59.7411V56.6178H92.6717V55.0115Z" fill="#C0BCCF"/>
<path opacity="0.5" d="M84.7737 60.0984H67.639V61.7048H84.7737V60.0984Z" fill="#E2666A"/>
<path opacity="0.5" d="M92.6717 82.1858H59.7411V83.7922H92.6717V82.1858Z" fill="#C0BCCF"/>
<path opacity="0.5" d="M92.6717 87.2727H59.7411V88.8791H92.6717V87.2727Z" fill="#C0BCCF"/>
<path opacity="0.5" d="M84.7737 92.3596H67.639V93.966H84.7737V92.3596Z" fill="#E2666A"/>
<path d="M77.4283 77.4672H77.4484C77.4778 78.3641 77.605 79.1754 77.85 79.4002C78.4336 79.9357 80.8539 78.8648 80.6879 78.2169C80.6544 78.083 80.5982 77.8635 80.5273 77.5864C81.1805 77.5047 81.7387 77.3187 81.9609 76.9358L82.3813 78.2316L82.4107 78.324H82.4188H82.4429C82.7199 80.9504 83.3478 86.404 83.8498 87.1349C84.5191 88.1027 85.2888 92.2967 85.2888 92.2967L86.7278 100.9C86.7278 100.9 87.282 105.853 87.614 106.389C87.7106 106.491 87.8389 106.557 87.9781 106.577C87.784 107.158 87.5056 107.837 87.1749 108.216C86.5056 108.968 85.6248 110.474 84.8497 110.367C84.0747 110.26 83.8538 111.873 85.2928 112.087C86.0893 112.206 87.3597 112.062 88.3356 111.909C88.3356 112.34 88.6354 112.835 89.3891 112.948C90.8281 113.163 93.8173 112.518 93.8173 112.518C93.8173 112.518 96.3607 111.447 96.4745 110.69C96.5548 110.141 96.1653 107.937 95.9484 106.782C96.35 106.138 95.9216 100.582 95.9216 100.582L95.1466 89.9353C95.1466 89.9353 95.5896 84.0212 95.1466 82.945C94.8695 82.2756 94.7664 79.1968 94.7276 76.9947L95.263 77.0295C95.2935 76.9927 95.3212 76.9538 95.346 76.913L95.4799 76.9224C95.4799 76.9224 96.1492 76.1701 95.591 74.9868C95.18 74.1073 95.2577 70.1369 95.3233 68.1597L95.4022 67.2226C95.4316 67.1942 95.454 67.1594 95.4678 67.1209C96.5061 66.9807 97.5153 66.6752 98.457 66.216C98.7412 66.0978 99.0057 65.9371 99.2415 65.7394C99.7957 65.204 99.4623 61.9752 98.3553 57.136C97.2482 52.2968 96.2523 52.7265 96.2523 52.7265C96.2523 52.7265 93.5951 52.511 92.3769 50.8979C91.1587 49.2849 90.3408 49.3063 90.3408 49.3063C90.31 49.0948 90.2886 48.8953 90.2739 48.7092C90.2739 48.6396 90.2632 48.5754 90.2592 48.5058C90.6733 48.1206 90.9891 47.6419 91.1802 47.1096C91.4292 46.9757 91.7357 46.9315 91.974 46.7629C92.0347 46.7187 92.09 46.6675 92.1386 46.6102C92.3774 46.3899 92.529 46.0911 92.5657 45.7682C92.6036 45.4157 92.5869 45.0595 92.5161 44.7121C92.4318 44.198 92.3073 43.6719 92.0074 43.2677C91.7076 42.8634 91.2591 42.6198 90.8268 42.3935C89.6559 41.7786 88.4819 41.17 87.3048 40.5676C87.0749 40.4271 86.8182 40.3359 86.5511 40.2999C86.0799 40.2731 85.6569 40.5957 85.2768 40.9023C85.1251 41.0216 84.9798 41.149 84.8417 41.2838C84.7242 41.3879 84.6171 41.5031 84.5218 41.6278C84.0773 42.2235 83.8886 43.3453 84.084 44.0896C84.1456 44.3252 84.2781 44.3935 84.4414 44.3908C84.1991 44.8725 84.073 45.4043 84.0733 45.9436C84.076 46.534 84.227 47.1143 84.5126 47.631C84.7983 48.1478 85.2093 48.5844 85.7078 48.9007C85.7078 48.9756 85.7078 49.0493 85.7145 49.1202C85.72 49.3949 85.711 49.6697 85.6877 49.9435C85.6877 49.9435 82.7427 51.5351 82.4121 52.2874C82.0814 53.0397 80.8619 53.5779 80.8619 53.5779C80.8619 53.5779 78.5367 54.7612 78.5367 58.9552L77.3185 64.8693L77.0977 76.1607C77.0977 76.1607 77.2503 76.0269 77.4992 75.8368C77.4912 75.9117 77.4845 75.9894 77.4778 76.0684C77.4447 76.4999 77.4335 76.9328 77.4444 77.3655L77.4283 77.4672ZM92.3006 106.691C92.2551 106.864 92.1882 107.093 92.1038 107.36C92.0663 107.138 92.0289 106.919 91.9914 106.71C92.0878 106.7 92.1908 106.695 92.3006 106.691Z" fill="url(#paint1_linear)"/>
<path d="M88.2794 105.304C88.2794 105.304 87.8523 107.224 87.2084 107.969C86.5646 108.715 85.7212 110.209 84.9769 110.102C84.2326 109.995 84.0171 111.594 85.404 111.807C86.7908 112.02 89.6622 111.382 89.6622 111.382C89.6622 111.382 92.1146 110.311 92.2203 109.569C92.3261 108.827 91.5805 104.984 91.5805 104.984L88.2794 105.304Z" fill="#53526B"/>
<path opacity="0.05" d="M88.2794 105.304C88.2794 105.304 87.8523 107.224 87.2084 107.969C86.5646 108.715 85.7212 110.209 84.9769 110.102C84.2326 109.995 84.0171 111.594 85.404 111.807C86.7908 112.02 89.6622 111.382 89.6622 111.382C89.6622 111.382 92.1146 110.311 92.2203 109.569C92.3261 108.827 91.5805 104.984 91.5805 104.984L88.2794 105.304Z" fill="black"/>
<path d="M92.2241 106.157C92.2241 106.157 91.7971 108.076 91.1532 108.822C90.5093 109.568 89.662 111.061 88.919 110.954C88.1761 110.847 87.9592 112.447 89.3461 112.66C90.7329 112.873 93.611 112.233 93.611 112.233C93.611 112.233 96.0634 111.162 96.1691 110.42C96.2749 109.679 95.5293 105.835 95.5293 105.835L92.2241 106.157Z" fill="#53526B"/>
<path d="M82.5219 76.9463C82.5219 76.9463 83.3746 86.1147 84.0144 87.0745C84.6543 88.0343 85.3999 92.1921 85.3999 92.1921L86.7854 100.721C86.7854 100.721 87.3209 105.625 87.6381 106.158C87.9554 106.691 91.9124 106.462 91.9124 106.462L89.452 78.2247L82.5219 76.9463Z" fill="#5F5D7E"/>
<path opacity="0.05" d="M82.5219 76.9463C82.5219 76.9463 83.3746 86.1147 84.0144 87.0745C84.6543 88.0343 85.3999 92.1921 85.3999 92.1921L86.7854 100.721C86.7854 100.721 87.3209 105.625 87.6381 106.158C87.9554 106.691 91.9124 106.462 91.9124 106.462L89.452 78.2247L82.5219 76.9463Z" fill="black"/>
<path d="M80.8167 72.573L81.0951 73.4578L82.6011 78.2381L82.6305 78.3291H82.6385C82.8407 78.3747 87.1083 79.3559 88.0292 79.6571C88.0789 79.6724 88.1277 79.6908 88.1752 79.712C88.6022 79.9248 89.135 87.6006 89.135 87.6006C89.135 87.6006 89.4549 94.8506 89.6704 95.3834C89.8859 95.9162 90.7413 106.896 91.2701 106.577C91.7989 106.259 95.6408 106.577 95.6408 106.577C96.0678 106.15 95.6408 100.394 95.6408 100.394L94.8831 89.8414C94.8831 89.8414 95.3101 83.9782 94.8831 82.9113C94.4561 81.8444 94.4561 74.7028 94.4561 74.7028L85.7295 73.3387L84.8861 73.2048L80.8167 72.573Z" fill="#5F5D7E"/>
<path opacity="0.02" d="M81.095 73.4592L82.6009 78.2394L82.6371 78.3331C82.8392 78.3787 87.1068 79.3599 88.0278 79.6611H88.1201L85.736 73.34L85.6678 73.158L84.8927 73.2075L81.095 73.4592Z" fill="black"/>
<path opacity="0.1" d="M91.0515 51.2524C91.0515 51.2524 87.1065 55.5174 84.6541 51.9981L82.3088 53.5977L82.7358 56.0501L81.349 74.5997C81.349 74.5997 84.974 74.4926 87.5322 75.3453C88.2447 75.5981 89.0145 75.642 89.7511 75.4719C90.4877 75.3019 91.1604 74.925 91.69 74.3855L91.2683 58.0755L92.2281 53.065L91.0515 51.2524Z" fill="black"/>
<path d="M91.0515 50.9326C91.0515 50.9326 87.1065 55.1975 84.6541 51.6782L82.3088 53.2779L82.7358 55.7303L81.349 74.2798C81.349 74.2798 84.974 74.1727 87.5322 75.0254C88.2447 75.2782 89.0145 75.3221 89.7511 75.1521C90.4877 74.982 91.1604 74.6051 91.69 74.0656L91.2683 57.7557L92.2281 52.7451L91.0515 50.9326Z" fill="#53526B"/>
<path d="M83.1763 69.925V70.597H82.9621V70.1499H82.179V70.597H81.9635V69.9264L83.1763 69.925Z" fill="#E82127"/>
<path d="M82.9849 69.7083H82.1576C82.1034 69.6953 82.0538 69.6678 82.0142 69.6286C81.9745 69.5894 81.9464 69.5401 81.9327 69.4861H83.2085C83.1947 69.5401 83.1665 69.5893 83.1269 69.6284C83.0872 69.6676 83.0377 69.6952 82.9836 69.7083" fill="#E82127"/>
<path d="M90.4654 69.4941C90.4513 69.5476 90.4231 69.5963 90.3838 69.6351C90.3445 69.6739 90.2955 69.7015 90.2419 69.715H89.8938L89.8764 69.7217V70.5999H89.6622V69.7217L89.6422 69.715H89.2941C89.2407 69.7012 89.1919 69.6734 89.1526 69.6346C89.1134 69.5959 89.0851 69.5474 89.0706 69.4941H90.4654Z" fill="#E82127"/>
<path d="M82.8418 73.0015C82.8418 73.0015 82.8418 75.7738 82.202 76.9464C81.5621 78.1191 77.8313 77.4819 77.8313 77.4819L78.5769 73.5369L82.8418 73.0015Z" fill="#D6DBE6"/>
<path d="M78.2367 79.4001C78.7989 79.9356 81.1295 78.8646 80.9688 78.2274C80.8564 77.7763 80.4628 76.1619 80.2393 75.2463L80.084 74.6024C80.084 74.6024 78.7186 74.1754 78.2367 74.6024C78.0613 74.7577 77.9381 75.3694 77.8806 76.1084C77.7815 77.3921 77.8819 79.0601 78.2367 79.4001Z" fill="#FDA57D"/>
<path d="M83.3707 52.851L87.1015 55.7291C87.1015 55.7291 92.6448 55.4092 91.2593 52.7439C90.656 51.5717 90.292 50.2912 90.1884 48.977C90.1434 48.4921 90.1434 48.0041 90.1884 47.5192C90.1884 47.5192 85.0708 42.834 85.7107 48.1591C85.7611 48.5678 85.7906 48.9789 85.799 49.3906C85.8753 53.3878 83.3707 52.851 83.3707 52.851Z" fill="#FDA57D"/>
<path opacity="0.1" d="M85.7212 48.1602C85.7716 48.569 85.8011 48.98 85.8095 49.3918C86.3838 49.7721 87.0577 49.9743 87.7465 49.9727C88.701 49.9727 89.4038 49.0437 90.0383 48.4266C89.9674 47.5418 90.1976 47.5203 90.1976 47.5203C90.1976 47.5203 85.0813 42.8298 85.7212 48.1602Z" fill="black"/>
<path d="M87.7466 49.76C89.6895 49.76 91.2645 48.185 91.2645 46.2421C91.2645 44.2992 89.6895 42.7241 87.7466 42.7241C85.8037 42.7241 84.2286 44.2992 84.2286 46.2421C84.2286 48.185 85.8037 49.76 87.7466 49.76Z" fill="#FDA57D"/>
<path opacity="0.1" d="M90.2509 49.5994C90.2509 49.5994 90.8372 49.6529 92.0098 51.2512C93.1825 52.8496 95.7406 53.0638 95.7406 53.0638C95.7406 53.0638 96.7004 52.6367 97.766 57.4344C98.8316 62.2321 99.1515 65.4301 98.6187 65.9629C98.0859 66.4957 95.9535 67.244 94.8826 67.244C94.8826 67.244 94.5626 73.9599 95.0954 75.1326C95.6282 76.3052 94.9883 77.0522 94.9883 77.0522L90.3031 76.7323C90.3031 76.7323 88.7034 74.7069 88.3835 71.189C88.0635 67.671 86.998 57.6486 87.5308 56.476C88.0635 55.3033 90.4088 52.3181 90.3031 51.9982C90.1973 51.6783 90.2509 49.5994 90.2509 49.5994Z" fill="black"/>
<path d="M90.2631 49.5674C90.2631 49.5674 91.0515 49.546 92.2242 51.1457C93.3968 52.7453 95.9536 52.9582 95.9536 52.9582C95.9536 52.9582 96.9134 52.5311 97.979 57.3288C99.0446 62.1265 99.3645 65.3245 98.8317 65.8573C98.2989 66.3901 96.1665 67.137 95.1009 67.137C95.1009 67.137 94.781 73.853 95.3138 75.0256C95.8465 76.1983 95.2067 76.9453 95.2067 76.9453L90.5214 76.6253C90.5214 76.6253 88.9218 74.6 88.6018 71.082C88.2819 67.5641 87.2137 57.543 87.7464 56.3757C88.2792 55.2084 90.6245 52.2179 90.5188 51.898C90.413 51.578 90.2631 49.5674 90.2631 49.5674Z" fill="#D6DBE6"/>
<path opacity="0.1" d="M77.8822 76.1069C78.3922 75.7173 79.3547 75.1109 80.2409 75.2448L80.0856 74.6009C80.0856 74.6009 78.7202 74.1739 78.2383 74.6009C78.0602 74.7562 77.9384 75.3666 77.8822 76.1069Z" fill="black"/>
<path opacity="0.1" d="M85.7803 50.2393C85.7803 50.2393 83.0615 51.9982 82.7416 52.7452C82.4216 53.4922 81.249 54.0249 81.249 54.0249C81.249 54.0249 79.0108 55.1976 79.0108 59.3554L77.8381 65.2187L83.1686 72.6816C83.1686 72.6816 83.8085 65.2187 84.1284 63.4061C84.4483 61.5936 84.874 58.1854 84.874 58.1854C84.874 58.1854 86.4737 56.1601 86.2595 55.6273C86.0453 55.0945 85.7803 50.2393 85.7803 50.2393Z" fill="black"/>
<path d="M85.7801 50.207C85.7801 50.207 82.9448 51.7853 82.6262 52.5309C82.3076 53.2765 81.1336 53.8106 81.1336 53.8106C81.1336 53.8106 78.8954 54.9833 78.8954 59.1411L77.7227 65.0043L77.5099 76.1981C77.5099 76.1981 79.4295 74.3855 80.815 75.2382C82.2005 76.091 83.0532 72.4659 83.0532 72.4659C83.0532 72.4659 83.6931 65.003 84.013 63.1905C84.333 61.378 84.7587 57.9698 84.7587 57.9698C84.7587 57.9698 86.3583 55.9444 86.1442 55.4117C85.93 54.8789 85.7801 50.207 85.7801 50.207Z" fill="#D6DBE6"/>
<path opacity="0.1" d="M84.6583 41.9624C84.8388 41.7328 85.0474 41.5268 85.2794 41.3493C85.6462 41.0441 86.0518 40.7255 86.5069 40.7523C86.7644 40.7866 87.0117 40.8751 87.2324 41.012C88.3658 41.609 89.4961 42.2123 90.6232 42.8218C91.0395 43.0467 91.4692 43.285 91.7597 43.6893C92.0502 44.0936 92.168 44.613 92.2496 45.1216C92.318 45.4662 92.3342 45.8191 92.2978 46.1685C92.2646 46.511 92.0983 46.8268 91.8347 47.0479C91.5308 47.2688 91.1145 47.2702 90.8601 47.5593C90.7129 47.7266 90.6486 47.9609 90.5442 48.1644C90.4398 48.3678 90.2591 48.566 90.0529 48.5298C89.8468 48.4937 89.7223 48.2755 89.6928 48.0546C89.6797 47.8307 89.6928 47.6061 89.7317 47.3853C89.7718 46.9837 89.721 46.558 89.488 46.2595C89.3274 46.056 89.0972 45.9329 88.9419 45.724C88.5697 45.2207 88.7397 44.3854 88.3315 43.9128C88.2129 43.7893 88.0637 43.6995 87.8991 43.6524C87.7345 43.6054 87.5603 43.6029 87.3944 43.6451C87.0638 43.7147 86.7612 43.8941 86.4574 44.0467C86.0469 44.2538 85.6168 44.4197 85.1736 44.542C84.8015 44.6437 84.3705 44.8874 84.2433 44.3921C84.0492 43.6652 84.2299 42.5528 84.6583 41.9624Z" fill="black"/>
<path d="M84.7655 41.8567C84.946 41.6271 85.1547 41.4211 85.3867 41.2436C85.7534 40.9384 86.159 40.6198 86.6142 40.6466C86.8717 40.6809 87.119 40.7694 87.3397 40.9063C88.4722 41.5033 89.4133 40.9384 90.7305 42.7161C91.0116 43.0963 91.5765 43.1793 91.867 43.5836C92.1575 43.9878 92.2753 44.5072 92.357 45.0159C92.4253 45.3605 92.4415 45.7133 92.4051 46.0627C92.372 46.4052 92.2056 46.7211 91.942 46.9422C91.6381 47.1631 91.2218 47.1644 90.9674 47.4536C90.8202 47.6209 90.7559 47.8552 90.6515 48.0586C90.5471 48.2621 90.3664 48.4602 90.1602 48.4241C89.9541 48.3879 89.8296 48.1697 89.8002 47.9489C89.787 47.725 89.8001 47.5004 89.839 47.2795C89.8791 46.878 89.8283 46.4523 89.5953 46.1538C89.4347 45.9503 89.2045 45.8271 89.0492 45.6183C88.677 45.115 88.847 44.2797 88.4388 43.8071C88.3202 43.6836 88.171 43.5937 88.0064 43.5467C87.8418 43.4997 87.6676 43.4971 87.5017 43.5394C87.1711 43.609 86.8685 43.7884 86.5647 43.941C86.1541 44.1481 85.7241 44.314 85.2809 44.4363C84.9088 44.538 84.4777 44.7816 84.3506 44.2864C84.1551 43.5595 84.3372 42.4457 84.7655 41.8567Z" fill="#865A61"/>
<path opacity="0.1" d="M94.3742 58.1277C94.3742 58.1277 95.7959 61.7527 94.729 63.2453L92.3837 62.7099C92.3837 62.7099 94.5161 63.3497 94.1962 62.07C93.8762 60.7903 94.3742 58.1277 94.3742 58.1277Z" fill="black"/>
<path opacity="0.1" d="M95.1505 67.0847C95.1505 67.0847 92.0583 67.2976 91.2056 66.6577C92.3285 67.5149 93.6545 68.0661 95.0542 68.2574L95.1505 67.0847Z" fill="black"/>
<path opacity="0.1" d="M81.8298 60.2573C81.8298 60.2573 80.2301 65.1621 80.3372 65.9077C80.4443 66.6534 80.6571 74.8633 80.6571 74.8633L80.977 74.7562L80.87 65.8006L81.8298 60.2573Z" fill="black"/>
<path d="M95.5269 66.2521L58.982 36.802C58.7693 36.5894 58.5168 36.4208 58.2388 36.306C57.9609 36.1911 57.663 36.1322 57.3623 36.1327H55.8095C58.9125 32.1561 60.382 27.1456 59.9183 22.1229C59.4545 17.1002 57.0924 12.4436 53.3137 9.10237C49.5349 5.76119 44.624 3.98713 39.5824 4.14191C34.5407 4.29669 29.7479 6.36866 26.1812 9.93534C22.6145 13.502 20.5425 18.2948 20.3878 23.3365C20.233 28.3782 22.007 33.2891 25.3482 37.0678C28.6894 40.8466 33.3461 43.2087 38.3688 43.6724C43.3915 44.1362 48.4019 42.6667 52.3785 39.5636V41.1151C52.3781 41.4158 52.437 41.7137 52.5518 41.9916C52.6667 42.2696 52.8352 42.5222 53.0478 42.7349L89.5927 72.1849C89.8043 72.3982 90.056 72.5675 90.3333 72.6831C90.6106 72.7986 90.908 72.8581 91.2085 72.8581C91.5089 72.8581 91.8063 72.7986 92.0836 72.6831C92.361 72.5675 92.6126 72.3982 92.8242 72.1849L95.5175 69.4943C95.9473 69.0648 96.1895 68.4827 96.1913 67.8751C96.1931 67.2676 95.9542 66.684 95.5269 66.2521ZM40.1782 36.1327C37.7651 36.1327 35.4063 35.4171 33.4 34.0765C31.3937 32.7359 29.8299 30.8305 28.9065 28.6012C27.9831 26.3719 27.7415 23.9188 28.2122 21.5521C28.683 19.1855 29.8449 17.0116 31.5512 15.3053C33.2574 13.5991 35.4313 12.4371 37.798 11.9664C40.1646 11.4956 42.6177 11.7372 44.847 12.6606C47.0764 13.5841 48.9818 15.1478 50.3224 17.1541C51.663 19.1605 52.3785 21.5193 52.3785 23.9323C52.3798 25.535 52.065 27.1221 51.4524 28.6031C50.8397 30.084 49.9411 31.4296 48.808 32.563C47.6749 33.6963 46.3295 34.5952 44.8487 35.2082C43.3679 35.8212 41.7808 36.1362 40.1782 36.1354V36.1327Z" fill="url(#paint2_linear)"/>
<path d="M95.7946 65.9843L59.2497 36.5342C59.037 36.3216 58.7845 36.153 58.5065 36.0382C58.2286 35.9233 57.9307 35.8644 57.63 35.8648H56.0772C59.1802 31.8883 60.6497 26.8778 60.186 21.8551C59.7222 16.8324 57.3601 12.1757 53.5814 8.83455C49.8026 5.49337 44.8917 3.7193 39.8501 3.87408C34.8084 4.02886 30.0156 6.10083 26.4489 9.66752C22.8822 13.2342 20.8102 18.027 20.6555 23.0687C20.5007 28.1104 22.2747 33.0213 25.6159 36.8C28.9571 40.5788 33.6138 42.9408 38.6365 43.4046C43.6592 43.8684 48.6696 42.3989 52.6462 39.2958V40.8473C52.6458 41.148 52.7047 41.4459 52.8195 41.7238C52.9344 42.0018 53.1029 42.2543 53.3155 42.467L89.8604 71.9171C90.072 72.1304 90.3237 72.2997 90.601 72.4152C90.8783 72.5308 91.1757 72.5903 91.4762 72.5903C91.7766 72.5903 92.074 72.5308 92.3513 72.4152C92.6287 72.2997 92.8803 72.1304 93.0919 71.9171L95.7852 69.2264C96.215 68.797 96.4572 68.2148 96.459 67.6073C96.4608 66.9997 96.2219 66.4162 95.7946 65.9843ZM40.4459 35.8648C38.0328 35.8648 35.674 35.1493 33.6677 33.8087C31.6614 32.4681 30.0976 30.5627 29.1742 28.3334C28.2508 26.104 28.0092 23.6509 28.4799 21.2843C28.9507 18.9177 30.1126 16.7438 31.8189 15.0375C33.5251 13.3313 35.699 12.1693 38.0657 11.6985C40.4323 11.2278 42.8854 11.4694 45.1147 12.3928C47.3441 13.3162 49.2495 14.88 50.5901 16.8863C51.9307 18.8927 52.6462 21.2515 52.6462 23.6645C52.6475 25.2671 52.3327 26.8543 51.7201 28.3352C51.1074 29.8161 50.2088 31.1618 49.0757 32.2951C47.9426 33.4285 46.5972 34.3274 45.1164 34.9404C43.6356 35.5534 42.0485 35.8684 40.4459 35.8675V35.8648Z" fill="#8088A8"/>
<path d="M93.0771 63.2989C93.0771 63.2989 87.7426 57.1814 88.4923 61.3793C89.0277 64.3645 91.0504 65.9642 92.0102 66.2841C92.97 66.604 93.0771 63.2989 93.0771 63.2989Z" fill="#FDA57D"/>
<path d="M94.3568 57.6487C94.3568 57.6487 94.4639 61.5936 94.9966 62.1264C95.5294 62.6592 94.6767 63.2991 94.6767 63.2991L92.5443 62.7636C92.5443 62.7636 93.0797 66.2816 90.8389 65.8559C90.8389 65.8559 92.3314 67.2414 93.824 67.4555C95.3166 67.6697 95.2095 67.1356 95.2095 67.1356L97.4477 64.4704L94.3568 57.6487Z" fill="#D6DBE6"/>
<path d="M94.9468 67.193L97.1101 66.7178L96.8209 65.7205L95.4823 65.1851L93.7421 65.9882L94.9468 67.193Z" fill="#D6DBE6"/>
<path d="M41.7803 28.7203L44.6597 26.4995C44.6597 26.4995 42.7307 26.9132 42.7856 23.8303C42.785 23.82 42.785 23.8097 42.7856 23.7995C42.7856 23.521 42.8124 23.2158 42.8526 22.8798C43.3465 18.7662 39.3975 22.3859 39.3975 22.3859C39.4315 22.7501 39.4315 23.1167 39.3975 23.4809C39.3975 23.4902 39.3975 23.501 39.3975 23.5103C39.3194 24.5241 39.04 25.512 38.5756 26.4165C37.5033 28.4727 41.7803 28.7203 41.7803 28.7203Z" fill="#FDA57D"/>
<path opacity="0.1" d="M39.7656 22.9093C40.2542 23.3845 40.5527 24.2479 41.2876 24.2479C41.8193 24.2491 42.3396 24.0931 42.7829 23.7995C42.7829 23.521 42.8097 23.2158 42.8498 22.8798C43.3438 18.7662 39.3948 22.3859 39.3948 22.3859C39.3948 22.3859 39.8178 22.24 39.7656 22.9093Z" fill="black"/>
<path d="M41.2878 24.1141C42.7871 24.1141 44.0025 22.8987 44.0025 21.3993C44.0025 19.9 42.7871 18.6846 41.2878 18.6846C39.7884 18.6846 38.573 19.9 38.573 21.3993C38.573 22.8987 39.7884 24.1141 41.2878 24.1141Z" fill="#FDA57D"/>
<path opacity="0.1" d="M43.8914 17.9231C43.7358 17.7263 43.5559 17.55 43.356 17.3983C43.0427 17.1373 42.6947 16.8629 42.3052 16.887C42.0847 16.9163 41.873 16.992 41.684 17.1092C40.7135 17.6206 39.909 17.1373 38.7805 18.658C38.5395 18.9833 38.0563 19.0596 37.8073 19.4009C37.5583 19.7423 37.4579 20.1907 37.387 20.6271C37.3283 20.9223 37.3143 21.2247 37.3455 21.524C37.3752 21.8178 37.5195 22.0881 37.7471 22.2763C38.0068 22.4651 38.3642 22.4664 38.5824 22.7141C38.6921 22.8754 38.782 23.0493 38.8501 23.2321C38.9385 23.4062 39.0937 23.5708 39.2704 23.5454C39.4471 23.5199 39.5529 23.3285 39.5783 23.1438C39.5894 22.9526 39.5782 22.7608 39.5449 22.5722C39.5114 22.2335 39.5542 21.864 39.7537 21.6084C39.8876 21.433 40.0884 21.3286 40.2209 21.1505C40.5395 20.7208 40.3949 19.9993 40.7443 19.6004C40.8465 19.4955 40.9746 19.4195 41.1157 19.3803C41.2568 19.341 41.4058 19.3398 41.5475 19.3768C41.8289 19.4572 42.0988 19.5732 42.3507 19.7222C42.7021 19.8996 43.0702 20.0418 43.4497 20.1466C43.7683 20.2336 44.1378 20.4424 44.2462 20.0127C44.4162 19.3809 44.2569 18.4278 43.8914 17.9231Z" fill="black"/>
<path d="M43.8914 17.7893C43.7358 17.5925 43.5559 17.4162 43.356 17.2646C43.0427 17.0035 42.6947 16.7291 42.3052 16.7532C42.0847 16.7825 41.873 16.8583 41.684 16.9754C40.7135 17.4868 39.909 17.0035 38.7805 18.5242C38.5395 18.8495 38.0563 18.9258 37.8073 19.2672C37.5583 19.6085 37.4579 20.057 37.387 20.4934C37.3283 20.7886 37.3143 21.0909 37.3455 21.3902C37.3752 21.6841 37.5195 21.9543 37.7471 22.1426C38.0068 22.3313 38.3642 22.3326 38.5824 22.5803C38.6921 22.7416 38.782 22.9155 38.8501 23.0983C38.9385 23.2724 39.0937 23.437 39.2704 23.4116C39.4471 23.3862 39.5529 23.1947 39.5783 23.01C39.5894 22.8188 39.5782 22.627 39.5449 22.4384C39.5114 22.0997 39.5542 21.7303 39.7537 21.4746C39.8876 21.2992 40.0884 21.1948 40.2209 21.0168C40.5395 20.5871 40.3949 19.8655 40.7443 19.4666C40.8465 19.3617 40.9746 19.2857 41.1157 19.2465C41.2568 19.2072 41.4058 19.206 41.5475 19.2431C41.8289 19.3234 42.0988 19.4394 42.3507 19.5884C42.7021 19.7658 43.0702 19.908 43.4497 20.0128C43.7683 20.0998 44.1378 20.3086 44.2462 19.8789C44.4162 19.2471 44.2569 18.294 43.8914 17.7893Z" fill="#865A61"/>
<path opacity="0.1" d="M38.573 30.149L38.5195 32.2038C39.2974 32.4153 40.1001 32.522 40.9063 32.5211C41.0402 32.5211 41.1807 32.5211 41.3173 32.5117C42.0322 32.4809 42.7408 32.365 43.4283 32.1664H43.4417C43.5688 32.1289 43.6947 32.0901 43.8192 32.0472H43.8326L43.9463 32.0071C44.3796 31.8545 44.8004 31.6683 45.2047 31.4502L45.2301 31.4368C45.2743 31.4127 45.3184 31.3886 45.364 31.3632L45.1565 28.5935L45.4871 26.694L43.6773 25.4611C43.5757 25.6078 43.4619 25.7457 43.3373 25.8734C43.1586 26.06 42.9495 26.2148 42.7188 26.3312C41.4203 26.9711 39.9425 25.9537 39.2076 25.3246L39.0402 25.176C38.8501 25.0033 38.7417 24.8855 38.7417 24.8855L37.8368 26.283L38.573 30.149Z" fill="black"/>
<path d="M38.573 30.2828L38.5195 32.3376C39.2974 32.549 40.1001 32.6557 40.9063 32.6549C41.0402 32.6549 41.1807 32.6549 41.3173 32.6455C42.0322 32.6147 42.7408 32.4988 43.4283 32.3001H43.4417C43.5688 32.2627 43.6947 32.2238 43.8192 32.181H43.8326L43.9463 32.1408C44.3796 31.9883 44.8004 31.8021 45.2047 31.584L45.2301 31.5706C45.2743 31.5465 45.3184 31.5224 45.364 31.497L45.1565 28.7273L45.4871 26.8278L43.6773 25.5949C43.5757 25.7416 43.4619 25.8795 43.3373 26.0072C43.1586 26.1938 42.9495 26.3486 42.7188 26.465C41.4203 27.1049 39.9425 26.0875 39.2076 25.4584L39.0402 25.3098C38.8501 25.1371 38.7417 25.0193 38.7417 25.0193L37.8368 26.4168L38.573 30.2828Z" fill="#53526B"/>
<path d="M43.5901 30.4474C43.5901 30.4474 43.6891 31.2358 43.819 32.1782H43.8324L43.9462 32.1381C44.3795 31.9855 44.8002 31.7993 45.2045 31.5812L45.2299 31.5678C45.2741 31.5437 45.3183 31.5196 45.3638 31.4942C45.9572 31.1611 46.5113 30.7623 47.0157 30.3055L47.0599 30.264C47.3364 30.0136 47.5963 29.7453 47.8376 29.4608L47.8657 29.4273C47.3878 27.7687 46.3932 27.2467 46.3932 27.2467C46.3932 27.2467 45.4883 26.8344 45.2406 26.2587C44.993 25.6831 42.807 24.4663 42.807 24.4663V24.4757C42.807 24.5788 42.7722 25.5225 42.72 26.4716C42.6865 27.0887 42.645 27.7085 42.5968 28.1021C42.5864 28.2299 42.5631 28.3564 42.5272 28.4796C42.3572 28.8852 43.5901 30.4474 43.5901 30.4474Z" fill="#555388"/>
<path d="M41.2839 95.9805C43.1682 95.9834 45.0118 95.4355 46.5847 94.4051C46.2293 92.4768 44.8767 92.3662 44.8767 92.3662H37.4165C37.4165 92.3662 36.1413 92.4701 35.7417 94.2447C37.3642 95.378 39.3003 95.9844 41.2839 95.9805Z" fill="#E2666A"/>
<path d="M41.1632 90.8937C43.7139 90.8937 45.7815 88.796 45.7815 86.2084C45.7815 83.6208 43.7139 81.5232 41.1632 81.5232C38.6126 81.5232 36.5449 83.6208 36.5449 86.2084C36.5449 88.796 38.6126 90.8937 41.1632 90.8937Z" fill="#333333"/>
<path opacity="0.1" d="M39.6238 90.0906H42.5688V92.4797C42.5688 92.8757 42.4137 93.2554 42.1376 93.5354C41.8616 93.8153 41.4871 93.9726 41.0967 93.9726C40.7063 93.9726 40.3319 93.8153 40.0558 93.5354C39.7797 93.2554 39.6246 92.8757 39.6246 92.4797V90.0906H39.6238Z" fill="black"/>
<path d="M39.9049 89.9574H42.2876C42.3622 89.9574 42.4337 89.9874 42.4864 90.0409C42.5392 90.0943 42.5688 90.1668 42.5688 90.2423V92.3467C42.5688 92.7424 42.4137 93.1218 42.1376 93.4016C41.8616 93.6814 41.4871 93.8386 41.0967 93.8386C40.9033 93.8387 40.7118 93.8002 40.5331 93.7253C40.3544 93.6504 40.192 93.5405 40.0552 93.4019C39.9185 93.2634 39.8099 93.0989 39.7359 92.9178C39.6619 92.7367 39.6238 92.5427 39.6238 92.3467V90.2415C39.6238 90.1659 39.6534 90.0934 39.7061 90.04C39.7589 89.9866 39.8304 89.9565 39.9049 89.9565V89.9574Z" fill="#FDB797"/>
<path opacity="0.1" d="M39.6238 91.1414C40.5729 91.5219 41.6177 91.5251 42.5688 91.1504V90.7598H39.6238V91.1414Z" fill="black"/>
<path d="M41.1632 91.4291C43.4921 91.4291 45.38 89.5113 45.38 87.1455C45.38 84.7797 43.4921 82.8618 41.1632 82.8618C38.8344 82.8618 36.9465 84.7797 36.9465 87.1455C36.9465 89.5113 38.8344 91.4291 41.1632 91.4291Z" fill="#FDB797"/>
<path opacity="0.1" d="M38.1512 83.2515C38.1512 83.2515 39.9372 86.8396 44.9783 84.7535L43.8051 82.9319L41.7258 82.1926L38.1512 83.2515Z" fill="black"/>
<path d="M38.1512 83.2515C38.1512 83.2515 39.9372 86.8396 44.9783 84.7535L43.8051 82.9319L41.7258 82.1926L38.1512 83.2515Z" fill="#333333"/>
<path d="M38.1066 83.0003C38.2281 82.6244 38.4382 82.2832 38.7191 82.0052C39.5604 81.1742 40.9402 80.9991 41.6479 80.0508C41.6864 80.1179 41.7103 80.1923 41.7182 80.2692C41.7261 80.3462 41.7178 80.4239 41.6937 80.4974C41.6697 80.5709 41.6305 80.6386 41.5786 80.696C41.5268 80.7534 41.4635 80.7994 41.3927 80.8309C42.0733 80.8266 42.8568 80.7671 43.2396 80.2097C43.3343 80.43 43.3645 80.6726 43.3267 80.9093C43.2889 81.1461 43.1847 81.3673 43.026 81.5472C43.6266 81.5744 44.268 81.9814 44.3071 82.5813C44.3327 82.9807 44.0826 83.3589 43.7534 83.5883C43.4242 83.8177 43.0269 83.9222 42.6356 84.0089C41.494 84.2622 37.3614 85.3167 38.1066 83.0003Z" fill="#333333"/>
<path d="M36.9465 87.8148C37.1683 87.8148 37.3481 87.4852 37.3481 87.0785C37.3481 86.6719 37.1683 86.3423 36.9465 86.3423C36.7247 86.3423 36.5449 86.6719 36.5449 87.0785C36.5449 87.4852 36.7247 87.8148 36.9465 87.8148Z" fill="#FDB797"/>
<path d="M45.3799 87.8148C45.6017 87.8148 45.7815 87.4852 45.7815 87.0785C45.7815 86.6719 45.6017 86.3423 45.3799 86.3423C45.1581 86.3423 44.9783 86.6719 44.9783 87.0785C44.9783 87.4852 45.1581 87.8148 45.3799 87.8148Z" fill="#FDB797"/>
<path d="M41.2836 65.1918C43.1681 65.1942 45.0116 64.6463 46.5847 63.6163C46.2291 61.688 44.8758 61.5774 44.8758 61.5774H37.4174C37.4174 61.5774 36.1415 61.6812 35.7417 63.4559C37.3641 64.5886 39.3 65.195 41.2836 65.1918Z" fill="#E2666A"/>
<path d="M41.2302 59.971C43.8178 59.971 45.9154 57.8734 45.9154 55.2858C45.9154 52.6982 43.8178 50.6006 41.2302 50.6006C38.6426 50.6006 36.5449 52.6982 36.5449 55.2858C36.5449 57.8734 38.6426 59.971 41.2302 59.971Z" fill="#F55F44"/>
<path opacity="0.1" d="M39.7576 59.168H42.7026V61.5571C42.7026 61.9531 42.5475 62.3328 42.2714 62.6128C41.9954 62.8927 41.6209 63.05 41.2305 63.05C40.8401 63.05 40.4656 62.8927 40.1896 62.6128C39.9135 62.3328 39.7584 61.9531 39.7584 61.5571V59.168H39.7576Z" fill="black"/>
<path d="M40.038 59.0339H42.4214C42.4583 59.0339 42.4949 59.0413 42.529 59.0556C42.5631 59.07 42.5941 59.091 42.6202 59.1174C42.6463 59.1439 42.6671 59.1754 42.6812 59.21C42.6953 59.2445 42.7026 59.2816 42.7026 59.3191V61.4231C42.7026 61.6191 42.6645 61.8133 42.5905 61.9944C42.5165 62.1755 42.408 62.3401 42.2713 62.4787C42.1346 62.6174 41.9722 62.7273 41.7936 62.8024C41.6149 62.8774 41.4235 62.916 41.2301 62.916C41.0367 62.916 40.8452 62.8774 40.6666 62.8024C40.4879 62.7273 40.3256 62.6174 40.1889 62.4787C40.0521 62.3401 39.9437 62.1755 39.8697 61.9944C39.7957 61.8133 39.7576 61.6191 39.7576 61.4231V59.3191C39.7576 59.2434 39.7872 59.1709 39.8399 59.1174C39.8927 59.064 39.9642 59.0339 40.0388 59.0339H40.038Z" fill="#FDA57D"/>
<path opacity="0.1" d="M39.7576 60.3517C40.7067 60.7337 41.7515 60.7369 42.7026 60.3607V59.9712H39.7576V60.3517Z" fill="black"/>
<path d="M41.2302 60.5065C43.596 60.5065 45.5138 58.5886 45.5138 56.2229C45.5138 53.8571 43.596 51.9392 41.2302 51.9392C38.8644 51.9392 36.9465 53.8571 36.9465 56.2229C36.9465 58.5886 38.8644 60.5065 41.2302 60.5065Z" fill="#FDA57D"/>
<path d="M41.2301 52.207C42.1912 52.207 42.9703 51.4279 42.9703 50.4668C42.9703 49.5057 42.1912 48.7266 41.2301 48.7266C40.269 48.7266 39.4899 49.5057 39.4899 50.4668C39.4899 51.4279 40.269 52.207 41.2301 52.207Z" fill="#F55F44"/>
<path d="M41.2302 50.0652C41.8955 50.0652 42.4349 49.5558 42.4349 48.9274C42.4349 48.299 41.8955 47.7896 41.2302 47.7896C40.5648 47.7896 40.0254 48.299 40.0254 48.9274C40.0254 49.5558 40.5648 50.0652 41.2302 50.0652Z" fill="#F55F44"/>
<path d="M40.4464 51.5177C40.0398 51.343 39.7191 51.0251 39.5508 50.63C39.3826 50.2348 39.3798 49.7928 39.543 49.3958C39.531 49.4187 39.519 49.4425 39.5079 49.4663C39.4147 49.6651 39.3634 49.8796 39.3568 50.0975C39.3502 50.3154 39.3885 50.5323 39.4695 50.736C39.5505 50.9397 39.6726 51.1262 39.8288 51.2847C39.985 51.4432 40.1723 51.5707 40.38 51.6599C40.5877 51.7491 40.8117 51.7983 41.0393 51.8046C41.2668 51.8109 41.4934 51.7743 41.7062 51.6967C41.9189 51.6192 42.1136 51.5023 42.2791 51.3527C42.4447 51.2031 42.5779 51.0237 42.671 50.8249C42.6822 50.8011 42.6924 50.7773 42.7027 50.7527C42.5015 51.1336 42.1548 51.4256 41.7346 51.568C41.3144 51.7105 40.8531 51.6925 40.4464 51.5177Z" fill="#F55F44"/>
<path opacity="0.1" d="M38.2852 52.3289C38.2852 52.3289 40.0711 55.917 45.1122 53.8309L43.939 52.0093L41.8597 51.27L38.2852 52.3289Z" fill="black"/>
<path d="M38.2852 52.239C38.2852 52.239 40.0711 55.9766 45.1122 53.8036L43.939 51.9061L41.8597 51.136L38.2852 52.239Z" fill="#F55F44"/>
<path d="M39.6238 50.9208C40.7376 50.8509 41.8566 50.8509 42.9704 50.9208C42.9704 50.9208 40.4984 51.1041 39.6238 50.9208Z" fill="#333333"/>
<path d="M41.5875 47.6563C41.5126 47.6531 41.4376 47.6597 41.364 47.676H41.4214C41.6652 47.685 41.8976 47.7972 42.0739 47.9911C42.2501 48.1851 42.3578 48.447 42.3763 48.7267C42.3948 49.0064 42.3227 49.284 42.174 49.5063C42.0252 49.7287 41.8103 49.88 41.5704 49.9312C41.8328 49.9339 42.0854 49.8167 42.2726 49.6053C42.4599 49.3939 42.5664 49.1057 42.5687 48.804C42.5711 48.5023 42.4692 48.2119 42.2853 47.9967C42.1014 47.7815 41.8507 47.659 41.5883 47.6563H41.5875Z" fill="#F55F44"/>
<path d="M36.9465 57.026C37.1683 57.026 37.3481 56.6664 37.3481 56.2229C37.3481 55.7793 37.1683 55.4197 36.9465 55.4197C36.7247 55.4197 36.5449 55.7793 36.5449 56.2229C36.5449 56.6664 36.7247 57.026 36.9465 57.026Z" fill="#FDA57D"/>
<path d="M45.5808 57.026C45.7656 57.026 45.9154 56.6664 45.9154 56.2229C45.9154 55.7793 45.7656 55.4197 45.5808 55.4197C45.3959 55.4197 45.2461 55.7793 45.2461 56.2229C45.2461 56.6664 45.3959 57.026 45.5808 57.026Z" fill="#FDA57D"/>
<path d="M38.0173 52.3834L38.7821 51.9392L38.9544 52.6511L38.4859 53.0101L38.0173 52.3834Z" fill="#F55F44"/>
</g>
<defs>
<linearGradient id="paint0_linear" x1="68.8438" y1="106.368" x2="68.8438" y2="5.25952" gradientUnits="userSpaceOnUse">
<stop stop-color="#808080" stop-opacity="0.25"/>
<stop offset="0.54" stop-color="#808080" stop-opacity="0.12"/>
<stop offset="1" stop-color="#808080" stop-opacity="0.1"/>
</linearGradient>
<linearGradient id="paint1_linear" x1="-23407.3" y1="63138.4" x2="-23407.3" y2="23665.7" gradientUnits="userSpaceOnUse">
<stop stop-color="#808080" stop-opacity="0.25"/>
<stop offset="0.54" stop-color="#808080" stop-opacity="0.12"/>
<stop offset="1" stop-color="#808080" stop-opacity="0.1"/>
</linearGradient>
<linearGradient id="paint2_linear" x1="36297.6" y1="39050.5" x2="36297.6" y2="3754.48" gradientUnits="userSpaceOnUse">
<stop stop-color="#808080" stop-opacity="0.25"/>
<stop offset="0.54" stop-color="#808080" stop-opacity="0.12"/>
<stop offset="1" stop-color="#808080" stop-opacity="0.1"/>
</linearGradient>
<clipPath id="clip0">
<rect width="149.072" height="113" fill="white"/>
</clipPath>
</defs>
</svg>
