<svg width="154" height="113" viewBox="0 0 154 113" fill="none" xmlns="http://www.w3.org/2000/svg">
<path d="M77.2167 0V14.125C85.5977 14.125 93.7904 16.6102 100.759 21.2665C107.728 25.9227 113.159 32.5407 116.366 40.2838C119.573 48.0268 120.413 56.547 118.777 64.767C117.142 72.9869 113.107 80.5374 107.18 86.4637L117.168 96.4515C125.07 88.5499 130.451 78.4825 132.631 67.5226C134.811 56.5627 133.692 45.2024 129.416 34.8784C125.14 24.5544 117.898 15.7303 108.606 9.52196C99.315 3.31366 88.3913 -8.26818e-07 77.2167 0Z" fill="#3F3D56" fill-opacity="0.4"/>
<path d="M117.168 96.4515L107.18 86.4636C99.9356 93.7099 90.3101 98.0848 80.0869 98.7779C69.8637 99.4711 59.7358 96.4355 51.5792 90.2335L43.0299 101.483C53.9071 109.75 67.4116 113.795 81.0426 112.87C94.6736 111.945 107.508 106.112 117.168 96.4515Z" fill="#575A89" fill-opacity="0.6"/>
<path d="M34.8417 56.5C34.8417 45.2615 39.3062 34.4832 47.253 26.5364C55.1999 18.5895 65.9781 14.125 77.2167 14.125V2.67148e-09C65.389 -0.000114982 53.8596 3.71162 44.2535 10.612C34.6474 17.5124 27.4491 27.2535 23.6732 38.4623C19.8973 49.671 19.7342 61.782 23.2069 73.0884C26.6796 84.3947 33.6131 94.3261 43.0299 101.483L51.5792 90.2335C46.3737 86.2852 42.1535 81.1847 39.2496 75.332C36.3457 69.4793 34.837 63.0335 34.8417 56.5Z" fill="#6C63FF" fill-opacity="0.4"/>
<g clip-path="url(#clip0)">
<g opacity="0.5">
<path opacity="0.5" d="M153.766 9.41675H91.7479V70.1883H153.766V9.41675Z" fill="url(#paint0_linear)"/>
</g>
<g filter="url(#filter0_d)">
<path d="M153.455 9.88428H92.0593V69.7207H153.455V9.88428Z" fill="white"/>
</g>
<g opacity="0.5">
<path opacity="0.5" d="M147.221 14.8528H98.2924V52.8369H147.221V14.8528Z" fill="#010E3F"/>
</g>
<g opacity="0.5">
<path opacity="0.5" d="M132.024 41.0098C131.998 39.5115 131.386 38.0831 130.319 37.0305C129.358 36.0868 128.066 35.0039 126.666 34.3487H126.658C126.065 34.0601 125.43 33.8681 124.776 33.7802V31.4551C125.254 31.0274 125.648 30.5153 125.94 29.9444V30.1306C125.94 30.1306 128.17 27.878 128.119 25.2346C128.152 23.6471 127.388 21.9005 124.829 20.4025C118.885 16.9348 116.609 21.9772 116.175 23.144C116.147 23.2005 116.126 23.2601 116.113 23.3217L116.096 23.3757C116.088 23.4304 116.088 23.4858 116.096 23.5405V23.5576C116.094 23.5869 116.094 23.6164 116.096 23.6457C116.096 24.0351 116.427 24.3932 116.988 24.686C116.547 25.3448 116.262 26.0958 116.156 26.8815C116.049 27.6673 116.124 28.467 116.374 29.2194C116.624 29.9718 117.043 30.657 117.599 31.2227C118.155 31.7883 118.833 32.2193 119.58 32.4827V33.9749L119.465 33.7575C119.465 33.7575 118.671 34.2336 117.646 34.9641C115.929 36.1877 113.564 38.1262 113.209 39.7279C112.641 42.286 113.209 53.1127 113.209 53.1127L132.262 53.3969L132.024 41.0098ZM125.969 29.9259L125.976 29.9188L125.969 29.9259ZM116.145 23.7267V23.7352V23.7267ZM116.181 23.8106V23.8219V23.8106ZM116.226 23.893L116.235 23.9072L116.226 23.893ZM116.282 23.974L116.293 23.9896L116.282 23.974ZM116.347 24.0536L116.363 24.0706L116.347 24.0536ZM116.423 24.1318L116.441 24.1502L116.423 24.1318ZM117.068 24.5581L117.088 24.5681L117.068 24.5581ZM116.508 24.2042L116.531 24.2241L116.508 24.2042ZM116.602 24.2796L116.629 24.2994L116.602 24.2796ZM116.705 24.352L116.737 24.3734L116.705 24.352ZM116.818 24.4231L116.855 24.4444L116.818 24.4231ZM116.938 24.4913L116.98 24.514L116.938 24.4913Z" fill="url(#paint1_linear)"/>
</g>
<path d="M124.721 31.5261H119.663V38.9447H124.721V31.5261Z" fill="#FDA57D"/>
<path opacity="0.05" d="M119.831 32.7057C120.359 32.8933 120.587 33.0426 121.179 33.0426C122.425 33.0427 123.627 32.5809 124.552 31.7464V31.6938H119.831V32.7057Z" fill="black"/>
<path d="M121.348 32.8751C124.142 32.8751 126.406 30.6105 126.406 27.817C126.406 25.0236 124.142 22.759 121.348 22.759C118.555 22.759 116.29 25.0236 116.29 27.817C116.29 30.6105 118.555 32.8751 121.348 32.8751Z" fill="#FDA57D"/>
<path d="M120.791 25.5373C123.288 25.5373 125.312 24.768 125.312 23.819C125.312 22.8701 123.288 22.1008 120.791 22.1008C118.294 22.1008 116.27 22.8701 116.27 23.819C116.27 24.768 118.294 25.5373 120.791 25.5373Z" fill="black"/>
<path d="M121.695 24.453L125.853 26.9841V30.1107C125.853 30.1107 131.278 24.6278 124.769 20.8318C118.26 17.0358 116.27 23.7253 116.27 23.7253C116.27 23.7253 118.078 25.1764 121.695 24.453Z" fill="black"/>
<path d="M126.045 28.6597C126.325 28.6597 126.551 28.2823 126.551 27.8169C126.551 27.3514 126.325 26.9741 126.045 26.9741C125.766 26.9741 125.539 27.3514 125.539 27.8169C125.539 28.2823 125.766 28.6597 126.045 28.6597Z" fill="#FDA57D"/>
<g opacity="0.05">
<path opacity="0.05" d="M125.853 26.984L123.085 25.2998C122.333 25.4616 121.566 25.5412 120.797 25.5372C118.367 25.5372 116.391 24.8081 116.282 23.8943V23.9099C116.28 23.9383 116.28 23.9668 116.282 23.9952C116.282 24.9445 118.306 25.7134 120.803 25.7134C121.574 25.7179 122.344 25.6383 123.098 25.4761L125.865 27.1602L125.853 26.984Z" fill="black"/>
<path opacity="0.05" d="M125.854 30.1163V30.2968C125.854 30.2968 128.021 28.1053 127.971 25.533C127.92 28.0257 125.854 30.1163 125.854 30.1163Z" fill="black"/>
</g>
<path d="M119.549 33.8257C119.549 33.8257 114.015 37.1456 113.462 39.6355C112.91 42.1254 113.462 52.6593 113.462 52.6593L132 52.9364L131.764 40.8819C131.738 39.4233 131.141 38.0331 130.102 37.0092C128.717 35.6491 126.624 33.9877 124.529 33.8257L122.039 38.5298L119.549 33.8257Z" fill="#4D8AF0"/>
<path opacity="0.05" d="M116.994 39.4607C116.994 39.4607 115.547 47.0541 116.813 49.409L116.994 39.4607Z" fill="black"/>
<path opacity="0.05" d="M127.477 39.4607C127.477 39.4607 128.923 47.0541 127.657 49.409L127.477 39.4607Z" fill="black"/>
<path d="M119.525 33.8542L124.779 33.7803L121.334 42.5334L119.525 33.8542Z" fill="white"/>
<path d="M119.525 33.3127V33.8542H124.769L124.779 33.3127H119.525Z" fill="white"/>
<path d="M122.418 33.3127H121.695V34.0361H122.418V33.3127Z" fill="black"/>
<path d="M119.525 33.8542L118.441 34.94L120.791 38.945L119.525 33.8542Z" fill="#4D8AF0"/>
<path d="M124.587 34.2166L125.493 35.1204L122.78 38.7359L124.587 34.2166Z" fill="#4D8AF0"/>
<path opacity="0.1" d="M119.525 33.8542L118.441 34.94L120.791 38.945L119.525 33.8542Z" fill="white"/>
<path opacity="0.1" d="M124.587 34.2166L125.493 35.1204L122.78 38.7359L124.587 34.2166Z" fill="white"/>
<path d="M122.056 33.6736L119.164 45.8674L120.972 48.579L123.322 45.8674L122.056 33.6736Z" fill="black"/>
<path d="M144.954 58.1721H101.75V60.1618H144.954V58.1721Z" fill="#E0E0E0"/>
<path d="M138.061 62.1514H108.643V64.141H138.061V62.1514Z" fill="#E0E0E0"/>
<g opacity="0.5">
<path opacity="0.5" d="M62.0179 25.6921H0V86.4637H62.0179V25.6921Z" fill="url(#paint2_linear)"/>
</g>
<g filter="url(#filter1_d)">
<path d="M61.7067 26.1597H0.311279V85.9961H61.7067V26.1597Z" fill="white"/>
</g>
<g opacity="0.5">
<path opacity="0.5" d="M55.4734 31.1282H6.54468V69.1123H55.4734V31.1282Z" fill="#010E3F"/>
</g>
<g opacity="0.5">
<path opacity="0.5" d="M42.3728 62.0223H43.1629L42.9157 59.4925H42.8887C43.0393 57.9463 43.2653 51.0947 35.8992 48.3646L35.2412 47.9311L35.1915 47.9752V46.1262C35.6776 45.6937 36.0799 45.1753 36.3782 44.597V44.7861C37.0262 44.0872 37.5631 43.293 37.9699 42.4311C37.5883 43.1484 37.1143 43.8126 36.5601 44.4066V44.3895C37.4853 43.3336 41.2685 38.4319 35.2398 34.9145C28.4493 30.9536 27.1674 37.5991 27.1674 37.5991L27.7089 38.3239C27.7089 38.3239 26.3943 40.9559 26.3943 42.1981C26.3947 43.289 26.7331 44.3531 27.363 45.2438C27.9929 46.1346 28.8833 46.8083 29.9118 47.1722V48.7498C29.4214 48.9288 22.6068 51.5651 22.6068 59.4911L21.6575 62.0208L21.9744 62.163V69.2135H37.4654C37.4654 69.2135 38.4147 61.7025 38.0978 59.1728L39.0472 59.8052V62.0194H39.2575V62.0748H39.1964L39.2575 62.2795V69.0557H42.3671V62.2823L42.4026 62.0777H42.3671L42.3728 62.0223ZM24.7983 62.6021L24.821 62.0223L24.7983 62.6021Z" fill="url(#paint3_linear)"/>
</g>
<path d="M35.075 46.3008H30.017V53.7194H35.075V46.3008Z" fill="#FDA57D"/>
<path opacity="0.05" d="M30.1862 47.4806C30.7148 47.6682 30.9422 47.8175 31.5349 47.8175C32.7807 47.8178 33.9824 47.3559 34.9074 46.5213V46.4688H30.1862V47.4806Z" fill="black"/>
<path d="M31.7038 47.6495C34.4973 47.6495 36.7618 45.3849 36.7618 42.5915C36.7618 39.798 34.4973 37.5334 31.7038 37.5334C28.9103 37.5334 26.6458 39.798 26.6458 42.5915C26.6458 45.3849 28.9103 47.6495 31.7038 47.6495Z" fill="#FDA57D"/>
<path d="M32.0491 40.1315L36.2075 41.7588V44.8854C36.2075 44.8854 41.6365 39.4095 35.1232 35.6093C29.2707 32.1984 28.2105 36.3071 27.4743 37.0973C27.4572 37.1156 27.4438 37.1372 27.435 37.1607C27.4262 37.1842 27.4222 37.2092 27.4231 37.2343C27.424 37.2594 27.4299 37.2841 27.4404 37.3069C27.4509 37.3297 27.4658 37.3503 27.4843 37.3673C28.2076 38.048 28.8259 40.7767 32.0491 40.1315Z" fill="#4D4545"/>
<path d="M41.9592 61.593H38.979V69.0188H41.9592V61.593Z" fill="#FDA57D"/>
<path d="M38.7771 59.4709V61.5928H42.7166L42.4765 59.1682L38.7771 59.4709Z" fill="white"/>
<path d="M22.4092 61.593V69.1708H24.8337L25.1151 62.1487L22.4092 61.593Z" fill="#FDA57D"/>
<path d="M31.8046 50.9851L30.0452 48.8632C30.0452 48.8632 23.0188 51.2878 23.0188 59.1683L25.1406 61.5928L24.8379 69.1706H37.2648C37.2648 69.1706 38.1744 61.2901 37.8717 58.8656L38.7812 59.4724H42.4181C42.4181 59.4724 43.8165 50.9851 35.0279 48.2578L31.8046 50.9851Z" fill="#235067"/>
<path d="M23.015 59.1682L22.1068 61.5928L25.0828 62.9571L25.1368 61.5928L23.015 59.1682Z" fill="white"/>
<path opacity="0.05" d="M28.796 49.7131L29.987 52.3778L31.6881 50.9794L30.0452 49.0437L28.796 49.7131Z" fill="black"/>
<path d="M28.796 49.5327L29.987 52.196L31.6881 50.7989L30.0452 48.8633L28.796 49.5327Z" fill="white"/>
<path opacity="0.05" d="M35.1233 48.2678L36.2077 48.9912L33.135 51.8833L32.0592 50.9496L35.1233 48.2678Z" fill="black"/>
<path d="M35.1233 48.0874L36.2077 48.8094L33.135 51.7029L32.0592 50.7692L35.1233 48.0874Z" fill="white"/>
<path opacity="0.05" d="M25.3598 60.9234C25.3565 58.5755 26.1183 56.2905 27.5299 54.4143L25.3598 60.9234Z" fill="black"/>
<path opacity="0.05" d="M37.4739 59.1158V58.03L38.5582 58.7534L37.8349 58.5729L37.4739 59.1158Z" fill="black"/>
<path opacity="0.05" d="M38.9208 61.647L38.979 61.8417H41.9593L41.9934 61.647H38.9208Z" fill="black"/>
<path opacity="0.05" d="M22.4092 61.7324V61.9399L25.0668 63.0811L24.9986 62.912L22.4092 61.7324Z" fill="black"/>
<path opacity="0.05" d="M37.7397 42.8161C37.3743 43.5034 36.9204 44.1398 36.3896 44.7091V41.5783L32.2312 39.951C29.1145 40.5749 28.6228 38.0679 27.7487 37.2649C27.7113 37.2308 27.662 37.2129 27.6114 37.215C27.5608 37.2171 27.5131 37.2392 27.4787 37.2763C27.4616 37.2947 27.4482 37.3162 27.4394 37.3397C27.4306 37.3633 27.4266 37.3883 27.4275 37.4134C27.4284 37.4385 27.4343 37.4632 27.4448 37.486C27.4553 37.5088 27.4702 37.5293 27.4887 37.5463C28.2135 38.2257 28.8303 40.9572 32.0549 40.3091L36.2133 41.9364V45.063C36.8339 44.3964 37.3486 43.6386 37.7397 42.8161Z" fill="black"/>
<path d="M36.3995 43.4343C36.6789 43.4343 36.9054 43.057 36.9054 42.5915C36.9054 42.1261 36.6789 41.7488 36.3995 41.7488C36.1201 41.7488 35.8936 42.1261 35.8936 42.5915C35.8936 43.057 36.1201 43.4343 36.3995 43.4343Z" fill="#FDA57D"/>
<path d="M51.582 73.6631H8.37781V75.6528H51.582V73.6631Z" fill="#E0E0E0"/>
<path d="M44.6891 77.6423H15.2705V79.632H44.6891V77.6423Z" fill="#E0E0E0"/>
<g opacity="0.5">
<path opacity="0.5" d="M108.199 42.812H46.1814V103.584H108.199V42.812Z" fill="url(#paint4_linear)"/>
</g>
<g filter="url(#filter2_d)">
<path d="M107.888 43.2795H46.4928V103.116H107.888V43.2795Z" fill="white"/>
</g>
<g opacity="0.5">
<path opacity="0.5" d="M101.655 48.2493H52.7262V86.2334H101.655V48.2493Z" fill="#010E3F"/>
</g>
<g opacity="0.5">
<path opacity="0.5" d="M81.5025 71.9606L81.6447 71.854L81.8479 71.7033L91.3358 64.6557L88.0741 51.6106C88.0741 51.6106 88.0741 51.5949 88.0741 51.5679C88.1011 51.17 88.2532 48.0903 86.589 48.646C84.9631 49.1874 85.5657 51.4627 85.6823 51.8493L85.7007 51.9062L87.7757 62.8763L81.1813 66.7221L80.2661 66.6197C81.3091 65.189 81.8628 63.4601 81.845 61.6896C81.845 57.5966 79.0581 54.2781 75.6188 54.2781C72.1795 54.2781 69.3926 57.5966 69.3926 61.6896C69.3926 64.7551 70.9559 67.3872 73.1857 68.5114L70.8251 69.6924V69.7051C70.1486 69.563 67.582 69.6057 68.6223 79.0253C68.8776 81.3073 68.3348 83.6074 67.086 85.5344L66.4351 86.4397L82.6864 86.5392H82.7361C82.7361 86.5392 80.4352 82.8512 81.5025 71.9606Z" fill="url(#paint5_linear)"/>
</g>
<path d="M71.1121 69.7704C71.1121 69.7704 67.7581 68.3222 68.7358 78.2748C69.0014 80.9282 68.3563 83.593 66.9068 85.8313L66.7007 86.1482H69.8188L72.1666 83.6611L71.1121 69.7704Z" fill="#3AD29F"/>
<path d="M87.8609 51.9843C87.8609 51.9843 87.8609 51.9701 87.8609 51.9431L85.516 52.2188L85.533 52.2757L87.5668 63.0284L80.5916 67.0973L80.8758 72.3287L91.0472 64.7722L87.8609 51.9843Z" fill="#3AD29F"/>
<path d="M75.6558 69.1296C79.0262 69.1296 81.7584 65.8769 81.7584 61.8645C81.7584 57.8521 79.0262 54.5994 75.6558 54.5994C72.2854 54.5994 69.5532 57.8521 69.5532 61.8645C69.5532 65.8769 72.2854 69.1296 75.6558 69.1296Z" fill="#FFFF00"/>
<path d="M78.7069 64.3345H74.3481V70.7284H78.7069V64.3345Z" fill="#FDA57D"/>
<path d="M75.6558 69.7178L74.4933 67.974L71.0057 69.7178V72.6028C71.0057 72.6028 69.7394 74.8341 70.7712 77.4036C70.487 81.1811 69.7167 86.1325 69.7167 86.1325L82.6367 86.2278C82.6367 86.2278 80.3116 82.5 81.4742 71.4573L81.1899 66.8072L78.5749 66.5229L75.6558 69.7178Z" fill="#3AD29F"/>
<path opacity="0.05" d="M81.177 66.8059L81.4683 67.0958L81.7583 71.6791L81.42 71.9307L81.177 66.8059Z" fill="black"/>
<path opacity="0.05" d="M74.493 65.3519C74.9478 65.5125 75.1454 65.6362 75.6556 65.6362C76.7292 65.6363 77.7648 65.2383 78.5619 64.5191V64.4736H74.493V65.3519Z" fill="black"/>
<path d="M75.8007 65.4969C78.208 65.4969 80.1595 63.5454 80.1595 61.1381C80.1595 58.7308 78.208 56.7793 75.8007 56.7793C73.3934 56.7793 71.4419 58.7308 71.4419 61.1381C71.4419 63.5454 73.3934 65.4969 75.8007 65.4969Z" fill="#FDA57D"/>
<path d="M80.161 61.8643C80.402 61.8643 80.5973 61.5392 80.5973 61.1381C80.5973 60.737 80.402 60.4119 80.161 60.4119C79.9201 60.4119 79.7247 60.737 79.7247 61.1381C79.7247 61.5392 79.9201 61.8643 80.161 61.8643Z" fill="#FDA57D"/>
<path opacity="0.05" d="M71.9948 59.7737V59.9783H79.4773V60.183H71.8925L71.9948 59.7737Z" fill="black"/>
<path d="M79.4349 56.343H71.8784V60.1205H79.4349V56.343Z" fill="#FFFF00"/>
<path d="M86.4041 49.0779C84.8109 49.6094 85.4007 51.8393 85.5144 52.2187L87.8594 51.943C87.8906 51.5522 88.0399 48.5336 86.4041 49.0779Z" fill="#FDA57D"/>
<g opacity="0.05">
<path opacity="0.05" d="M69.9738 86.1324C69.9738 86.1324 70.7384 81.181 71.0284 77.4035C70.0037 74.8453 71.2685 72.6027 71.2685 72.6027V69.7177L74.5216 68.0904L74.4435 67.9739L70.9573 69.7177V72.6027C70.9573 72.6027 69.6924 74.8411 70.7171 77.4035C70.4329 81.181 69.6626 86.1324 69.6626 86.1324L82.5826 86.2276L69.9738 86.1324Z" fill="black"/>
<path opacity="0.05" d="M75.9188 69.7107L78.7967 66.5457L78.5139 66.5144L75.7866 69.5131L75.9188 69.7107Z" fill="black"/>
</g>
<path opacity="0.05" d="M73.3989 68.679L75.6316 73.8209L79.7246 66.7988L78.5934 66.6538L75.7879 69.4578L74.5416 68.0565L73.3989 68.679Z" fill="black"/>
<path d="M73.3989 68.5225L75.6316 73.6658L79.7246 66.6437L78.5934 66.4973L75.7879 69.3027L74.5416 67.9L73.3989 68.5225Z" fill="white"/>
<path d="M98.9077 90.291H55.7035V92.2807H98.9077V90.291Z" fill="#E0E0E0"/>
<path d="M92.0148 94.2703H62.5962V96.2599H92.0148V94.2703Z" fill="#E0E0E0"/>
</g>
<defs>
<filter id="filter0_d" x="91.0593" y="9.88428" width="63.3955" height="61.8364" filterUnits="userSpaceOnUse" color-interpolation-filters="sRGB">
<feFlood flood-opacity="0" result="BackgroundImageFix"/>
<feColorMatrix in="SourceAlpha" type="matrix" values="0 0 0 0 0 0 0 0 0 0 0 0 0 0 0 0 0 0 127 0"/>
<feOffset dy="1"/>
<feGaussianBlur stdDeviation="0.5"/>
<feColorMatrix type="matrix" values="0 0 0 0 0 0 0 0 0 0 0 0 0 0 0 0 0 0 0.25 0"/>
<feBlend mode="normal" in2="BackgroundImageFix" result="effect1_dropShadow"/>
<feBlend mode="normal" in="SourceGraphic" in2="effect1_dropShadow" result="shape"/>
</filter>
<filter id="filter1_d" x="-0.688721" y="26.1597" width="63.3955" height="61.8364" filterUnits="userSpaceOnUse" color-interpolation-filters="sRGB">
<feFlood flood-opacity="0" result="BackgroundImageFix"/>
<feColorMatrix in="SourceAlpha" type="matrix" values="0 0 0 0 0 0 0 0 0 0 0 0 0 0 0 0 0 0 127 0"/>
<feOffset dy="1"/>
<feGaussianBlur stdDeviation="0.5"/>
<feColorMatrix type="matrix" values="0 0 0 0 0 0 0 0 0 0 0 0 0 0 0 0 0 0 0.25 0"/>
<feBlend mode="normal" in2="BackgroundImageFix" result="effect1_dropShadow"/>
<feBlend mode="normal" in="SourceGraphic" in2="effect1_dropShadow" result="shape"/>
</filter>
<filter id="filter2_d" x="45.4928" y="42.2795" width="63.3955" height="61.8364" filterUnits="userSpaceOnUse" color-interpolation-filters="sRGB">
<feFlood flood-opacity="0" result="BackgroundImageFix"/>
<feColorMatrix in="SourceAlpha" type="matrix" values="0 0 0 0 0 0 0 0 0 0 0 0 0 0 0 0 0 0 127 0"/>
<feOffset/>
<feGaussianBlur stdDeviation="0.5"/>
<feColorMatrix type="matrix" values="0 0 0 0 0 0 0 0 0 0 0 0 0 0 0 0 0 0 0.25 0"/>
<feBlend mode="normal" in2="BackgroundImageFix" result="effect1_dropShadow"/>
<feBlend mode="normal" in="SourceGraphic" in2="effect1_dropShadow" result="shape"/>
</filter>
<linearGradient id="paint0_linear" x1="122.757" y1="70.1883" x2="122.757" y2="9.41675" gradientUnits="userSpaceOnUse">
<stop stop-color="#808080" stop-opacity="0.25"/>
<stop offset="0.54" stop-color="#808080" stop-opacity="0.12"/>
<stop offset="1" stop-color="#808080" stop-opacity="0.1"/>
</linearGradient>
<linearGradient id="paint1_linear" x1="16596.3" y1="10546.6" x2="19218.7" y2="10546.6" gradientUnits="userSpaceOnUse">
<stop stop-color="#808080" stop-opacity="0.25"/>
<stop offset="0.54" stop-color="#808080" stop-opacity="0.12"/>
<stop offset="1" stop-color="#808080" stop-opacity="0.1"/>
</linearGradient>
<linearGradient id="paint2_linear" x1="13531.7" y1="32971.8" x2="13531.7" y2="6985.25" gradientUnits="userSpaceOnUse">
<stop stop-color="#808080" stop-opacity="0.25"/>
<stop offset="0.54" stop-color="#808080" stop-opacity="0.12"/>
<stop offset="1" stop-color="#808080" stop-opacity="0.1"/>
</linearGradient>
<linearGradient id="paint3_linear" x1="4568.56" y1="14768.1" x2="7822.55" y2="14768.1" gradientUnits="userSpaceOnUse">
<stop stop-color="#808080" stop-opacity="0.25"/>
<stop offset="0.54" stop-color="#808080" stop-opacity="0.12"/>
<stop offset="1" stop-color="#808080" stop-opacity="0.1"/>
</linearGradient>
<linearGradient id="paint4_linear" x1="33730.6" y1="40309.4" x2="33730.6" y2="14322.9" gradientUnits="userSpaceOnUse">
<stop stop-color="#808080" stop-opacity="0.25"/>
<stop offset="0.54" stop-color="#808080" stop-opacity="0.12"/>
<stop offset="1" stop-color="#808080" stop-opacity="0.1"/>
</linearGradient>
<linearGradient id="paint5_linear" x1="13176.9" y1="20084.7" x2="17539.3" y2="20084.7" gradientUnits="userSpaceOnUse">
<stop stop-color="#808080" stop-opacity="0.25"/>
<stop offset="0.54" stop-color="#808080" stop-opacity="0.12"/>
<stop offset="1" stop-color="#808080" stop-opacity="0.1"/>
</linearGradient>
<clipPath id="clip0">
<rect width="153.766" height="94.1667" fill="white" transform="translate(0 9.41675)"/>
</clipPath>
</defs>
</svg>
