<svg width="244" height="215" viewBox="0 0 244 215" fill="none" xmlns="http://www.w3.org/2000/svg">
<mask id="mask0" mask-type="alpha" maskUnits="userSpaceOnUse" x="0" y="0" width="244" height="215">
<rect x="0.0898438" width="242.97" height="215" fill="#2FB4FF"/>
</mask>
<g mask="url(#mask0)">
<path opacity="0.376424" fill-rule="evenodd" clip-rule="evenodd" d="M107.966 176.128C109.337 170.286 101.985 165.856 97.9027 163.338C83.1688 154.25 60.6642 162.531 62.7305 181.857C65.3719 206.562 123.463 214.98 108.018 178.361L107.966 176.128Z" fill="#9FDDFF"/>
<path opacity="0.376424" fill-rule="evenodd" clip-rule="evenodd" d="M256.179 -0.66419C257.549 -6.50609 250.198 -10.9361 246.116 -13.4541C231.382 -22.5422 208.877 -14.2606 210.943 5.06523C213.585 29.7699 271.676 38.1876 256.231 1.56876L256.179 -0.66419Z" fill="#9FDDFF"/>
<path opacity="0.5" fill-rule="evenodd" clip-rule="evenodd" d="M43.9038 43.8699C5.47289 41.4208 -12.082 115.514 19.451 137.045C34.8805 147.58 55.451 140.045 75.4056 121.788C93.451 121.788 80.0077 146.371 86.8446 165.539C93.6814 184.708 102.93 193.814 123.451 197.045C162.592 203.206 275.391 110.696 245.451 78.0447C245.451 17.0447 94.6623 72.6301 73.9537 66.9226C53.1855 62.7566 67.0296 45.3436 43.9038 43.8699Z" fill="#9FDDFF"/>
<circle cx="68.7126" cy="184.944" r="3.54858" fill="#FFD166"/>
<circle cx="218.261" cy="33.0525" r="3.54858" fill="#FFD166"/>
<circle cx="82.9336" cy="183.396" r="2" fill="#FFD166"/>
<circle cx="230.221" cy="60.6172" r="2" fill="#FFD166"/>
<path fill-rule="evenodd" clip-rule="evenodd" d="M81.8554 61.0282C72.6912 58.2802 80.7524 81.889 82.6985 69.7082C82.9191 68.3275 83.0747 66.8953 82.8472 65.5157C82.5489 63.7061 81.7123 62.0287 81.1449 60.2852" fill="#FF8585"/>
<path fill-rule="evenodd" clip-rule="evenodd" d="M80.3004 60.3482C81.8759 58.9306 83.2691 57.2774 85.0267 56.0952C86.9351 54.8116 89.0074 53.7099 91.1987 53.0182C104.625 48.7804 101.369 54.9996 92.5435 59.9944C88.9885 62.0063 89.3944 64.9417 87.5328 66.5003C86.8206 67.0966 83.3314 67.0909 80.2598 61.2497L80.3004 60.3482Z" fill="#FF8585"/>
<path fill-rule="evenodd" clip-rule="evenodd" d="M70.9674 67.6997C73.687 69.8667 81.8216 62.0486 79.9959 59.2028C75.6707 58.8481 65.6551 63.4667 70.9674 67.6997Z" fill="#FF8585"/>
<path fill-rule="evenodd" clip-rule="evenodd" d="M81.5578 59.5573C80.5293 54.0579 80.1313 51.486 78.4216 46.1603C77.9135 44.5775 72.1917 35.5291 71.4276 39.7703C70.6636 44.0114 72.8241 48.3282 72.705 52.6365C72.5714 57.4697 71.4276 56.0136 71.4276 58.3794C71.4276 60.7452 74.6239 60.5703 81.0689 60.2327L81.5578 59.5573Z" fill="#FF8585"/>
<path fill-rule="evenodd" clip-rule="evenodd" d="M81.5583 57.1849C81.1933 57.1205 79.9918 58.4378 78.9632 60.4299C77.5148 63.2349 76.2447 66.7544 76.6363 66.6575C77.8083 66.3676 82.5814 58.5234 82.5814 57.9099C82.5814 57.2964 82.4373 57.3399 81.5583 57.1849Z" fill="#CD4242"/>
<path fill-rule="evenodd" clip-rule="evenodd" d="M112.524 159.381C108.078 163.573 123.711 166.653 117.595 161.687C116.901 161.124 116.159 160.581 115.323 160.266C114.227 159.853 113.032 159.78 111.886 159.537" fill="#FF8585"/>
<path fill-rule="evenodd" clip-rule="evenodd" d="M111.652 160.024C111.371 158.7 110.902 157.402 110.809 156.052C110.709 154.587 110.761 153.088 111.078 151.656C113.022 142.876 115.422 146.663 115.366 153.139C115.344 155.748 117.097 156.461 117.365 157.989C117.467 158.573 116.35 160.501 112.138 160.335L111.652 160.024Z" fill="#FF8585"/>
<path fill-rule="evenodd" clip-rule="evenodd" d="M112.738 167.535C114.805 166.723 113.078 159.727 110.921 159.828C109.344 162.107 108.7 169.122 112.738 167.535Z" fill="#FF8585"/>
<path fill-rule="evenodd" clip-rule="evenodd" d="M111.616 159.077C108.245 157.889 106.696 157.288 103.204 156.533C102.166 156.309 95.3341 156.584 97.436 158.361C99.5379 160.138 102.616 160.322 104.961 161.763C107.591 163.381 106.421 163.548 107.729 164.304C109.038 165.059 109.962 163.236 111.833 159.563L111.616 159.077Z" fill="#FF8585"/>
<path fill-rule="evenodd" clip-rule="evenodd" d="M110.305 158.319C110.153 158.5 110.498 159.585 111.271 160.79C112.36 162.487 113.901 164.314 113.973 164.066C114.187 163.325 111.372 158.18 111.033 157.984C110.693 157.788 110.671 157.882 110.305 158.319Z" fill="#CD4242"/>
<path fill-rule="evenodd" clip-rule="evenodd" d="M161.791 74.6759C165.571 67.8295 201.796 63.5251 208.335 72.6225C219.32 87.904 220.4 117.842 216.233 135.958C212.003 154.346 177.914 164.925 164.248 150.372C155.237 140.776 156.629 130.164 157.294 117.393C157.977 104.295 162.58 92.4159 160.814 78.8226L161.791 74.6759Z" fill="#3279A5"/>
<mask id="mask1" mask-type="alpha" maskUnits="userSpaceOnUse" x="159" y="60" width="48" height="19">
<path d="M165.921 64.3084C142.449 81.2956 187.931 77.4878 204.434 77.9634C207.144 78.0415 207.059 74.5292 204.487 67.8381C202.466 62.5788 190.104 60.8137 186.44 60.992C185.984 60.992 173.116 59.3951 165.921 64.3084Z" fill="white"/>
</mask>
<g mask="url(#mask1)">
<path d="M165.921 64.3084C142.449 81.2956 187.931 77.4878 204.434 77.9634C207.144 78.0415 207.059 74.5292 204.487 67.8381C202.466 62.5788 190.104 60.8137 186.44 60.992C185.984 60.992 173.116 59.3951 165.921 64.3084Z" fill="#3279A5"/>
<path fill-rule="evenodd" clip-rule="evenodd" d="M154.967 79.1819C162.405 62.7153 187.103 66.5977 200.989 68.1954C202.678 68.3897 210.33 68.0753 208.055 63.8106C199.039 46.908 153.705 56.2152 152.594 78.4649L154.967 79.1819Z" fill="#3AA3E4"/>
</g>
<mask id="mask2" mask-type="alpha" maskUnits="userSpaceOnUse" x="118" y="28" width="59" height="42">
<path d="M175.078 41.6818C181.802 13.3546 158.943 36.9343 143.669 42.3382C138.822 44.0531 133.421 43.4191 128.283 43.3192C125.138 43.2581 119.727 41.3219 118.961 41.8579C118.195 42.3938 122.981 45.8818 124.601 48.204C139.403 69.4274 122.987 57.429 146.108 58.156C148.099 58.2186 141.914 58.7344 138.801 59.4864C136.214 60.1113 133.263 60.7129 133.263 63.0506C133.263 65.2308 133.946 66.7811 134.859 68.7812C135.771 70.7813 139.251 67.7565 141.265 66.7811C145.017 64.9644 148.83 63.1011 152.055 60.454C158.424 55.2253 164.852 49.8477 169.868 43.3002C171.536 41.1229 170.217 37.6811 171.4 35.204C171.717 34.5396 172.915 35.9738 173.017 36.7034C173.294 38.6678 172.634 40.6524 172.443 42.6269L175.078 41.6818Z" fill="white"/>
</mask>
<g mask="url(#mask2)">
<path d="M175.078 41.6818C181.802 13.3546 158.943 36.9343 143.669 42.3382C138.822 44.0531 133.421 43.4191 128.283 43.3192C125.138 43.2581 119.727 41.3219 118.961 41.8579C118.195 42.3938 122.981 45.8818 124.601 48.204C139.403 69.4274 122.987 57.429 146.108 58.156C148.099 58.2186 141.914 58.7344 138.801 59.4864C136.214 60.1113 133.263 60.7129 133.263 63.0506C133.263 65.2308 133.946 66.7811 134.859 68.7812C135.771 70.7813 139.251 67.7565 141.265 66.7811C145.017 64.9644 148.83 63.1011 152.055 60.454C158.424 55.2253 164.852 49.8477 169.868 43.3002C171.536 41.1229 170.217 37.6811 171.4 35.204C171.717 34.5396 172.915 35.9738 173.017 36.7034C173.294 38.6678 172.634 40.6524 172.443 42.6269L175.078 41.6818Z" fill="#F4C644"/>
<path fill-rule="evenodd" clip-rule="evenodd" d="M175.625 39.742C175.872 37.0831 172.595 28.8361 168.002 33.6057C163.608 38.1687 160.414 46.3611 156.119 51.3155C151.046 57.1687 146.669 62.3859 141.93 66.964C136.195 72.5042 148.799 67.9789 151.21 65.2508C154.748 61.2491 157.558 56.6441 161.021 52.5772C163.846 49.2595 168.714 44.9811 175.625 39.742Z" fill="#CCA128"/>
</g>
<mask id="mask3" mask-type="alpha" maskUnits="userSpaceOnUse" x="151" y="182" width="30" height="45">
<path d="M151.555 182.31C152.951 195.139 154.144 207.992 155.744 220.798C156.685 228.326 175.795 227.739 177.218 222.702C178.053 219.749 183.626 190.982 178.878 187.163C175.064 184.095 155.533 182.765 153.063 182.49L151.555 182.31Z" fill="white"/>
</mask>
<g mask="url(#mask3)">
<path d="M151.555 182.31C152.951 195.139 154.144 207.992 155.744 220.798C156.685 228.326 175.795 227.739 177.218 222.702C178.053 219.749 183.626 190.982 178.878 187.163C175.064 184.095 155.533 182.765 153.063 182.49L151.555 182.31Z" fill="#E79789"/>
<path fill-rule="evenodd" clip-rule="evenodd" d="M150.296 188.439C165.861 196.435 148.887 187.19 170.765 202.057C174.531 204.617 184.777 213.654 183.087 203.481C182.203 198.158 182.142 192.485 179.788 187.634C178.52 185.02 175.37 183.817 172.85 182.384C163.081 176.825 156.217 177.98 150.143 186.884L150.296 188.439Z" fill="#D87979"/>
</g>
<mask id="mask4" mask-type="alpha" maskUnits="userSpaceOnUse" x="186" y="181" width="32" height="48">
<path d="M186.033 186.096C188.387 194.471 190.132 203.043 193.096 211.221C193.873 213.364 206.012 242.015 216.123 219.567C219.823 211.353 214.025 201.648 212.42 192.779C211.856 189.663 212.221 185.509 209.632 183.701C203.349 179.312 193.409 183.286 187.307 184.913L186.033 186.096Z" fill="white"/>
</mask>
<g mask="url(#mask4)">
<path d="M186.033 186.096C188.387 194.471 190.132 203.043 193.096 211.221C193.873 213.364 206.012 242.015 216.123 219.567C219.823 211.353 214.025 201.648 212.42 192.779C211.856 189.663 212.221 185.509 209.632 183.701C203.349 179.312 193.409 183.286 187.307 184.913L186.033 186.096Z" fill="#E79789"/>
<path fill-rule="evenodd" clip-rule="evenodd" d="M184.416 187.357C188.095 190.795 192.117 193.897 195.453 197.671C202.544 205.694 204.954 222.267 215.629 222.672L217.65 223.749C224.12 223.994 220.705 208.348 220.587 207.729C216.141 184.506 208.438 166.834 184.599 185.056L184.416 187.357Z" fill="#D87979"/>
</g>
<mask id="mask5" mask-type="alpha" maskUnits="userSpaceOnUse" x="192" y="96" width="23" height="45">
<path d="M205.737 99.6487C190.391 131.148 209.23 111.983 194.671 120.243C188.769 123.592 194.231 137.331 198.14 139.743C200.225 141.031 202.993 138.912 205.737 135.474C211.26 128.557 220.067 100.53 210.243 96.6025L205.737 99.6487Z" fill="white"/>
</mask>
<g mask="url(#mask5)">
<path d="M205.737 99.6487C190.391 131.148 209.23 111.983 194.671 120.243C188.769 123.592 194.231 137.331 198.14 139.743C200.225 141.031 202.993 138.912 205.737 135.474C211.26 128.557 220.067 100.53 210.243 96.6025L205.737 99.6487Z" fill="#E79789"/>
<path fill-rule="evenodd" clip-rule="evenodd" d="M201.296 109.833C203.31 114.33 204.556 119.262 207.338 123.326C214.414 133.663 222.661 109.718 217.149 102.979C209.877 94.0873 194.822 95.3899 198.477 104.105L201.296 109.833Z" fill="#D87979"/>
</g>
<mask id="mask6" mask-type="alpha" maskUnits="userSpaceOnUse" x="129" y="72" width="91" height="67">
<path d="M166.638 72.6925C156.194 72.9545 150.956 75.3087 143.166 82.9959C138.915 87.191 125.987 91.9576 131.226 96.3615C143.833 106.959 148.954 110.383 151.087 108.509C154.539 105.477 152.388 97.9998 155.02 104.573C161.669 121.184 163.307 131.042 169.313 135.576C173.427 138.681 177.172 140.507 195.613 135.44C199.171 134.463 201.168 125.543 201.684 121.876C202.356 117.093 201.168 102.425 207.289 105.15C210.484 105.96 214.996 105.96 218.654 104.573C220.17 103.999 216.974 99.2641 216.318 97.7768C209.967 83.3691 211.164 75.5498 194.094 73.1306C186.462 72.0489 178.896 73.0965 171.199 72.6925H166.638Z" fill="white"/>
</mask>
<g mask="url(#mask6)">
<path d="M166.638 72.6925C156.194 72.9545 150.956 75.3087 143.166 82.9959C138.915 87.191 125.987 91.9576 131.226 96.3615C143.833 106.959 148.954 110.383 151.087 108.509C154.539 105.477 152.388 97.9998 155.02 104.573C161.669 121.184 163.307 131.042 169.313 135.576C173.427 138.681 177.172 140.507 195.613 135.44C199.171 134.463 201.168 125.543 201.684 121.876C202.356 117.093 201.168 102.425 207.289 105.15C210.484 105.96 214.996 105.96 218.654 104.573C220.17 103.999 216.974 99.2641 216.318 97.7768C209.967 83.3691 211.164 75.5498 194.094 73.1306C186.462 72.0489 178.896 73.0965 171.199 72.6925H166.638Z" fill="#6D56B1"/>
<path fill-rule="evenodd" clip-rule="evenodd" d="M128.031 93.607C135.382 89.7226 148.775 97.6132 151.135 105.465C151.787 107.631 152.92 115.304 147.347 112.638C142.728 110.428 138.522 107.395 134.429 104.311C128.885 100.134 129.4 99.792 127.342 94.5415L128.031 93.607Z" fill="#3B2187"/>
</g>
<path fill-rule="evenodd" clip-rule="evenodd" d="M199.297 73.6475C197.988 74.9798 198.12 80.8468 200.556 101.398C201.373 108.288 205.192 111.87 205.192 90.3371C205.192 81.7787 208.471 79.1077 205.192 75.6302C202.134 73.4203 200.169 72.7594 199.297 73.6475Z" fill="black"/>
<mask id="mask7" mask-type="alpha" maskUnits="userSpaceOnUse" x="166" y="57" width="29" height="27">
<path d="M173.869 72.2614C171.766 72.6211 169.695 72.2614 166.639 72.6906C166.639 82.7425 179.295 85.3748 187.057 82.3956C190.472 81.085 196.596 75.3398 192.999 73.0103C191.569 72.084 188.951 73.3064 188.02 71.8757C180.172 59.8158 187.664 51.1643 176.591 63.7795C175.103 65.4752 173.995 67.4722 172.696 69.3186C174.729 71.0665 175.12 72.0474 173.869 72.2614Z" fill="white"/>
</mask>
<g mask="url(#mask7)">
<path d="M173.869 72.2614C171.766 72.6211 169.695 72.2614 166.639 72.6906C166.639 82.7425 179.295 85.3748 187.057 82.3956C190.472 81.085 196.596 75.3398 192.999 73.0103C191.569 72.084 188.951 73.3064 188.02 71.8757C180.172 59.8158 187.664 51.1643 176.591 63.7795C175.103 65.4752 173.995 67.4722 172.696 69.3186C174.729 71.0665 175.12 72.0474 173.869 72.2614Z" fill="#E79789"/>
<path fill-rule="evenodd" clip-rule="evenodd" d="M184.776 58.9883C183.655 59.4144 182.357 59.5238 181.414 60.2665C177.572 63.2933 173.808 66.4897 170.581 70.1706C170.174 70.6352 170.633 71.6738 171.198 71.9207C176.792 74.3643 189.266 62.9542 183.84 59.3242" fill="#D87979"/>
</g>
<mask id="mask8" mask-type="alpha" maskUnits="userSpaceOnUse" x="160" y="38" width="28" height="33">
<path d="M160.988 56.8482C162.98 61.57 165.425 69.3239 169.705 70.509C173.986 71.6941 175.355 70.0248 179.286 65.6274C180.519 64.2476 184.104 62.0697 183.486 58.3155C185.836 57.7725 188.93 55.1845 186.7 51.8604C185.273 49.7334 183.486 52.2687 183.486 51.2049C183.486 43.4719 182.036 39.2647 173.973 38.6465C165.91 38.0282 157.261 48.012 160.988 56.8482Z" fill="white"/>
</mask>
<g mask="url(#mask8)">
<path d="M160.988 56.8482C162.98 61.57 165.425 69.3239 169.705 70.509C173.986 71.6941 175.355 70.0248 179.286 65.6274C180.519 64.2476 184.104 62.0697 183.486 58.3155C185.836 57.7725 188.93 55.1845 186.7 51.8604C185.273 49.7334 183.486 52.2687 183.486 51.2049C183.486 43.4719 182.036 39.2647 173.973 38.6465C165.91 38.0282 157.261 48.012 160.988 56.8482Z" fill="#E79789"/>
<path fill-rule="evenodd" clip-rule="evenodd" d="M165.024 40.3969C161.387 45.6799 158.633 43.2105 159.329 49.3219C159.371 49.6914 159.897 54.9823 160.097 54.6706C160.988 53.2803 160.016 51.7757 161.199 50.2705C162.563 48.5344 162.96 50.7321 165.744 50.2705C168.529 49.809 171.327 46.5398 173.023 46.5997C175.556 46.6892 177.83 45.7514 180.393 50.2705C181.678 52.5366 180.139 54.2479 180.393 56.8506C180.434 57.2684 181.344 57.9809 181.478 57.5838C182.568 54.3526 181.341 52.2002 184.737 51.103C190.94 49.0992 182.017 32.3269 164.07 41.1823L165.024 40.3969Z" fill="#F4C644"/>
</g>
<mask id="mask9" mask-type="alpha" maskUnits="userSpaceOnUse" x="79" y="79" width="72" height="54">
<path d="M79.2889 84.2005C79.2889 86.1539 78.5119 89.5937 81.5821 93.6134C85.7065 99.0131 95.0188 105.732 97.7941 106.898C104.65 112.094 110.933 118.02 117.746 123.273C121.41 126.098 124.633 130.392 129.196 131.11L132.293 132.37C132.868 132.46 133.552 132.274 133.963 131.86C138.914 126.879 164.128 101.91 139.486 98.6961C135.713 98.204 131.2 111.91 129.419 113.177C128.069 114.138 126.105 112.69 124.588 112.023C121.924 110.852 119.394 109.359 116.991 107.715C108.803 102.115 105.794 101.446 96.9199 96.9915C94.3172 95.685 90.9748 92.8951 88.8934 88.8264C86.8721 84.875 86.1048 79.623 84.0643 79.623C80.8807 79.623 79.2889 81.1489 79.2889 84.2005Z" fill="white"/>
</mask>
<g mask="url(#mask9)">
<path d="M79.2889 84.2005C79.2889 86.1539 78.5119 89.5937 81.5821 93.6134C85.7065 99.0131 95.0188 105.732 97.7941 106.898C104.65 112.094 110.933 118.02 117.746 123.273C121.41 126.098 124.633 130.392 129.196 131.11L132.293 132.37C132.868 132.46 133.552 132.274 133.963 131.86C138.914 126.879 164.128 101.91 139.486 98.6961C135.713 98.204 131.2 111.91 129.419 113.177C128.069 114.138 126.105 112.69 124.588 112.023C121.924 110.852 119.394 109.359 116.991 107.715C108.803 102.115 105.794 101.446 96.9199 96.9915C94.3172 95.685 90.9748 92.8951 88.8934 88.8264C86.8721 84.875 86.1048 79.623 84.0643 79.623C80.8807 79.623 79.2889 81.1489 79.2889 84.2005Z" fill="#E79789"/>
<path fill-rule="evenodd" clip-rule="evenodd" d="M135.216 99.0151C159.22 108.227 136.613 111.428 131.008 134.424C130.778 135.367 133.054 134.239 133.797 133.616C139.567 128.776 145.301 123.822 150.333 118.212C152.291 116.029 153.52 113.232 154.547 110.481C155.029 109.189 154.989 107.707 154.76 106.346C154.586 105.317 154.169 104.215 153.377 103.539C151.348 101.806 149.094 100.187 146.566 99.3468C143.265 98.2503 139.684 98.3467 136.244 97.8467L135.216 99.0151Z" fill="#D87979"/>
</g>
<path fill-rule="evenodd" clip-rule="evenodd" d="M89.0938 90.3872C88.9402 88.2958 88.6943 86.1418 89.0938 84.0834C90.1464 78.6606 99.2047 99.8221 89.5546 95.144C89.0012 94.8757 88.8475 93.2901 89.0938 90.3872Z" fill="#E79789"/>
<mask id="mask10" mask-type="alpha" maskUnits="userSpaceOnUse" x="141" y="127" width="73" height="65">
<path d="M166.101 127.141C161.776 127.141 149.008 144.338 145.976 159.679C144.502 167.142 138.31 176.251 142.912 182.295C147.513 188.34 179.159 193.479 181.113 189.834C182.96 186.388 180.962 175.096 182.667 178.199C184.423 181.397 182.455 186.713 187.75 188.035C194.199 189.645 208.228 186.834 212.589 186.026C216.552 185.292 210.403 178.458 209.737 174.583C208.91 169.772 208.912 164.843 208.12 160.026C206.498 150.16 205.857 139.978 202.501 130.563C200.723 125.574 182.998 130.82 174.527 128.414C171.793 127.565 168.984 127.141 166.101 127.141Z" fill="white"/>
</mask>
<g mask="url(#mask10)">
<path d="M166.101 127.141C161.776 127.141 149.008 144.338 145.976 159.679C144.502 167.142 138.31 176.251 142.912 182.295C147.513 188.34 179.159 193.479 181.113 189.834C182.96 186.388 180.962 175.096 182.667 178.199C184.423 181.397 182.455 186.713 187.75 188.035C194.199 189.645 208.228 186.834 212.589 186.026C216.552 185.292 210.403 178.458 209.737 174.583C208.91 169.772 208.912 164.843 208.12 160.026C206.498 150.16 205.857 139.978 202.501 130.563C200.723 125.574 182.998 130.82 174.527 128.414C171.793 127.565 168.984 127.141 166.101 127.141Z" fill="#AF374A"/>
<path d="M150.863 142.464C161.333 140.557 168.898 138.012 172.961 128.413" stroke="#7C1425" stroke-width="2" stroke-linecap="round" stroke-dasharray="2 5"/>
<path fill-rule="evenodd" clip-rule="evenodd" d="M182.44 180.867C182.038 178.751 181.396 176.667 181.234 174.519C179.376 149.763 183.408 165.556 190.534 176.903C192.663 180.293 196.193 182.628 198.409 185.961C202.059 191.45 193.448 193.079 190.534 192.769C185.482 192.231 184.367 185.012 183.107 181.999L182.44 180.867Z" fill="#861A2B"/>
<path d="M208.057 147.205C199.94 140.297 194.656 134.296 195.917 123.943" stroke="#7C1425" stroke-width="2" stroke-linecap="round" stroke-dasharray="2 5"/>
</g>
<path fill-rule="evenodd" clip-rule="evenodd" d="M159.221 73.2656C158.067 76.5219 157.557 78.5702 156.714 81.9212C155.835 85.4134 155.316 89.0036 155.032 92.5943C154.669 97.2028 152.601 109.731 156.714 106.717C160.826 103.704 164.733 79.7648 165.695 74.1517C166.431 69.8564 160.374 70.0093 159.221 73.2656Z" fill="black"/>
<path d="M166.1 72.332C167.009 94.1999 179.339 114.017 188.907 132.835" stroke="#F2CFB1" stroke-width="2" stroke-linecap="round"/>
<path d="M188.725 132.73C188.995 128.703 195.122 79.8411 192.971 72.8154" stroke="#F2CFB1" stroke-width="2" stroke-linecap="round"/>
<path d="M184.36 134.245L182.394 133.486C182.122 133.382 181.987 133.076 182.09 132.804L182.592 131.49C182.834 130.856 183.546 130.538 184.178 130.783L184.834 131.036C185.466 131.28 185.784 131.994 185.542 132.628L185.04 133.942C184.936 134.214 184.632 134.35 184.36 134.245Z" fill="#FF9D21"/>
<path d="M191.261 149.73L178.087 144.645C177.093 144.262 176.594 143.139 176.974 142.143L180.235 133.602C180.616 132.606 181.734 132.107 182.728 132.491L186.011 133.758L186.697 132.921C187.129 132.394 187.846 132.205 188.482 132.45L191.653 133.674C192.289 133.919 192.696 134.542 192.666 135.225L192.619 136.308L195.902 137.575C196.896 137.959 197.395 139.081 197.015 140.077L194.121 147.711C193.741 148.708 192.255 150.113 191.261 149.73Z" fill="#FF9B46"/>
<path d="M185.175 145.872C182.555 144.861 181.239 141.901 182.242 139.274C183.245 136.648 186.193 135.334 188.813 136.345C191.434 137.356 192.75 140.316 191.747 142.943C190.744 145.569 187.796 146.884 185.175 145.872Z" fill="#00429B"/>
<path d="M185.615 144.724C183.627 143.956 182.629 141.711 183.39 139.718C184.151 137.726 186.387 136.729 188.375 137.496C190.363 138.263 191.361 140.508 190.6 142.501C189.84 144.494 187.603 145.491 185.615 144.724Z" fill="#3AAFFF"/>
<path d="M194.343 140.564C194.714 140.707 195.129 140.522 195.271 140.151C195.413 139.779 195.227 139.362 194.857 139.219C194.486 139.076 194.071 139.261 193.929 139.633C193.787 140.004 193.972 140.421 194.343 140.564Z" fill="#EBE1DC"/>
<path d="M182.622 135.839L181.639 135.46C181.367 135.355 181.231 135.05 181.335 134.778C181.439 134.506 181.743 134.37 182.015 134.475L182.998 134.854C183.269 134.959 183.405 135.264 183.301 135.536C183.197 135.808 182.893 135.944 182.622 135.839Z" fill="#F5F0EB"/>
<path fill-rule="evenodd" clip-rule="evenodd" d="M169.696 65.9229C185.454 51.4603 178.079 70.4563 170.026 66.2253L169.696 65.9229Z" fill="white"/>
</g>
</svg>
