<svg width="176" height="160" viewBox="0 0 176 160" fill="none" xmlns="http://www.w3.org/2000/svg">
<path d="M43.3488 1.38478C78.589 -3.42071 104.667 22.8493 110.305 22.8493C110.305 22.8493 126.644 19.0049 134.973 19.0049C143.303 19.0049 149.39 19.6456 157.719 29.2566C166.049 38.8676 171.815 51.6821 170.534 67.7004C169.252 83.7187 154.836 106.465 154.836 106.465C154.836 106.465 169.893 122.803 161.243 139.142C152.593 155.481 106.461 155.737 103.898 155.481C101.335 155.224 59.3671 155.481 37.5822 145.229C15.7974 134.977 4.58456 126.327 1.3809 108.066C-1.82275 89.8056 10.3511 76.991 15.477 64.1764C15.477 64.1764 8.10858 6.19026 43.3488 1.38478Z" fill="#FFF2D5" fill-opacity="0.5"/>
<path d="M54.5048 21.5682C80.4803 18.0261 99.7021 37.3896 103.858 37.3896C103.858 37.3896 115.901 34.5559 122.041 34.5559C128.181 34.5559 132.667 35.0282 138.807 42.1124C144.947 49.1967 149.197 58.6422 148.253 70.4493C147.308 82.2564 136.682 99.0223 136.682 99.0223C136.682 99.0223 147.78 111.065 141.405 123.109C135.029 135.152 101.025 135.341 99.1354 135.152C97.2463 134.963 66.3118 135.152 50.2543 127.595C34.1967 120.039 25.9318 113.663 23.5704 100.203C21.2089 86.743 30.1823 77.2974 33.9605 67.8517C33.9605 67.8517 28.5293 25.1103 54.5048 21.5682Z" fill="#FFF2D5"/>
<path d="M97.5475 1.56398C100.177 -1.24107 104.911 4.54434 104.911 4.54434C104.911 4.54434 114.728 9.45316 109.118 11.2063C103.508 12.9595 98.5995 10.1544 97.5475 8.7519C96.4956 7.34938 94.9178 4.36902 97.5475 1.56398Z" fill="#FFF2D5" fill-opacity="0.5"/>
<path d="M173.92 40.345C175.187 41.5335 172.573 43.6727 172.573 43.6727C172.573 43.6727 170.354 48.1097 169.562 45.5743C168.77 43.0389 170.037 40.8204 170.671 40.345C171.305 39.8696 172.652 39.1565 173.92 40.345Z" fill="#FFF2D5" fill-opacity="0.5"/>
<path d="M7.06268 140.639C9.69241 137.834 21.4611 140.407 24.2722 143.619C27.0833 146.832 24.2435 148.528 18.6335 150.281C13.0235 152.034 8.11463 149.229 7.06268 147.827C6.01073 146.424 4.43295 143.444 7.06268 140.639Z" fill="#FFF2D5" fill-opacity="0.5"/>
<path d="M23.8893 150.636C24.6766 149.568 28.1996 150.547 29.0412 151.77C29.8827 152.993 29.0326 153.639 27.3532 154.307C25.6737 154.974 24.2042 153.906 23.8893 153.372C23.5744 152.838 23.1021 151.704 23.8893 150.636Z" fill="#FFF2D5" fill-opacity="0.5"/>
<circle cx="171.788" cy="118.855" r="4.01586" fill="#FFF8EA"/>
<path d="M149.636 103.93L155.794 98.5759L163.692 108.749C163.692 108.749 161.998 110.973 158.873 109.686C156.597 108.749 155.794 106.072 155.794 106.072L152.715 107.679L149.636 103.93Z" fill="#E92646"/>
<mask id="mask0" mask-type="alpha" maskUnits="userSpaceOnUse" x="149" y="98" width="15" height="13">
<path d="M149.636 103.93L155.794 98.5759L163.692 108.749C163.692 108.749 161.998 110.973 158.873 109.686C156.597 108.749 155.794 106.072 155.794 106.072L152.715 107.679L149.636 103.93Z" fill="#E92646"/>
</mask>
<g mask="url(#mask0)">
<path d="M155.928 107.611L150.306 101.721L147.762 102.926L153.92 110.02L155.928 107.611Z" fill="#F1ABAB"/>
</g>
<path d="M144.148 138.265L137.187 135.186L134.644 139.336L137.856 142.013C137.856 142.013 135.447 145.353 135.447 147.502C135.447 149.242 137.856 150.179 137.856 150.179L144.148 138.265Z" fill="#E92646"/>
<mask id="mask1" mask-type="alpha" maskUnits="userSpaceOnUse" x="134" y="135" width="11" height="16">
<path d="M144.148 138.264L137.187 135.185L134.644 139.335L137.856 142.012C137.856 142.012 135.447 145.352 135.447 147.501C135.447 149.241 137.856 150.178 137.856 150.178L144.148 138.264Z" fill="#E92646"/>
</mask>
<g mask="url(#mask1)">
<path d="M135.447 142.682L140.132 133.981L136.919 131.572L131.565 141.21L135.447 142.682Z" fill="#F1ABAB"/>
</g>
<path d="M113.494 35.1917C116.037 34.924 120.585 37.7605 120.585 37.7605C120.585 37.7605 122.66 32.473 125.136 35.4849C127.613 38.4968 122.864 39.743 122.864 39.743C122.864 39.743 126.01 45.7668 131.364 49.1134C136.719 52.4599 158.471 52.8615 159.408 59.153C160.345 65.4445 155.575 68.9666 150.975 73.6101C142.808 81.8549 141.337 82.9805 122.864 83.2482C104.391 83.5158 96.8318 76.4811 95.9578 73.6101C95.0838 70.7391 106.533 55.0033 106.533 55.0033L111.887 45.2314V42.2864C111.887 42.2864 108.005 44.2944 108.005 41.2155C108.005 38.1367 110.95 35.4595 113.494 35.1917Z" fill="#F14564"/>
<path d="M152.18 81.1677L135.179 62.5609L130.494 67.7815C139.754 75.1986 143.613 78.5623 152.581 86.9287C152.581 86.9287 154.188 88.5252 154.723 87.8608C155.259 87.1964 153.786 85.8529 153.786 85.8529C153.786 85.8529 158.07 86.1924 158.739 85.8529C159.408 85.5133 159.475 84.1845 158.07 82.9079C156.664 81.6313 152.18 81.1677 152.18 81.1677Z" fill="#FFCCCC"/>
<path d="M97.4827 49.1216L102.436 51.7988L100.91 58.8853C100.91 58.8853 94.6715 56.2832 92.2623 52.2674C89.8531 48.2515 89.3843 33.4597 89.3843 33.4597C89.3843 33.4597 89.6376 29.5837 91.4591 28.9084C92.3414 28.5814 93.0368 28.4682 93.8684 28.9084C95.4392 29.7401 93.8684 33.4597 93.8684 33.4597C93.8684 33.4597 95.9561 31.3554 96.8134 32.255C97.7041 33.1897 95.0731 35.0661 95.0731 35.0661L93.8684 37.4756L97.4827 49.1216Z" fill="#FFCCCC"/>
<path d="M107.871 115.107C107.737 112.229 111.887 80.972 111.887 80.972L128.62 78.8302C128.62 78.8302 132.837 82.3775 133.707 85.5233C134.577 88.6691 138.258 109.886 138.258 109.886L150.038 103.059L153.92 107.209C153.92 107.209 142.207 119.323 138.258 121.666C134.309 124.009 130.762 121.264 129.423 119.658C128.084 118.052 123.265 103.729 123.265 103.729L120.053 116.178L137.455 134.918L135.045 139.871C135.045 139.871 111.553 123.674 110.415 121.666C109.277 119.658 108.005 117.985 107.871 115.107Z" fill="#8D4747"/>
<mask id="mask2" mask-type="alpha" maskUnits="userSpaceOnUse" x="107" y="78" width="48" height="62">
<path d="M107.871 115.107C107.737 112.229 111.887 80.972 111.887 80.972L128.62 78.8302C128.62 78.8302 132.837 82.3775 133.707 85.5233C134.577 88.6691 138.258 109.886 138.258 109.886L149.77 102.39L154.991 108.012C154.991 108.012 142.207 119.323 138.258 121.666C134.309 124.009 130.762 121.264 129.423 119.658C128.084 118.052 123.265 103.729 123.265 103.729L120.053 116.178L138.258 133.446L135.045 139.871C135.045 139.871 111.553 123.674 110.415 121.666C109.277 119.658 108.005 117.985 107.871 115.107Z" fill="#8D4747"/>
</mask>
<g mask="url(#mask2)">
<path d="M123.399 104.665L119.25 90.6099L122.061 112.831L123.399 104.665Z" fill="#6F2424"/>
</g>
<path d="M126.478 54.0656C122.864 52.8608 115.635 55.6719 111.887 55.2704C108.139 54.8688 102.115 51.5222 102.115 51.5222L99.438 58.2153C99.438 58.2153 106.713 62.7542 109.745 65.8454C111.218 71.7354 111.887 82.5782 111.887 82.5782L128.62 78.9639C128.62 73.4756 128.62 69.7274 127.683 64.5068L131.833 69.7274C131.833 69.7274 135.982 65.1761 135.447 62.4989C133.305 59.8217 130.092 55.2704 126.478 54.0656Z" fill="#65A3CB"/>
<path d="M114.431 55.271V50.5859L120.187 46.7039V55.8734C118.982 57.212 114.431 58.4837 114.431 55.271Z" fill="#F1ABAB"/>
<mask id="mask3" mask-type="alpha" maskUnits="userSpaceOnUse" x="114" y="46" width="7" height="12">
<path d="M114.431 56.7435V50.5859L120.187 46.7039V56.7435C118.982 58.0821 117.242 58.6176 114.431 56.7435Z" fill="#F1ABAB"/>
</mask>
<g mask="url(#mask3)">
<path d="M120.454 55.1374L113.828 52.9286L120.454 46.5702L122.061 48.7789L122.663 54.468L120.454 55.1374Z" fill="#DB9696"/>
</g>
<path d="M110.147 49.381C109.344 47.5069 110.95 41.4831 110.95 41.4831C110.95 41.4831 113.494 41.4831 114.297 40.0106C115.1 38.5382 113.976 42.6495 115.636 43.4241C117.295 44.1987 117.71 43.4241 118.581 43.0894C118.313 45.0974 120.455 45.0974 120.455 45.0974H123.132C123.132 45.0974 124.337 46.3021 123.132 47.6408C121.927 48.9794 120.455 47.6408 120.455 47.6408C120.455 47.6408 119.651 50.318 118.581 51.255C117.51 52.1921 115.636 52.8614 114.297 52.5937C112.958 52.3259 110.95 51.255 110.147 49.381Z" fill="#FFCCCC"/>
<path d="M16.1424 101.085L26.2156 104.08L25.24 111.367L19.7093 110.503C19.7093 110.503 20.6809 114.008 19.7093 115.861C19.0219 117.172 18.3106 117.885 16.9439 118.453C15.4484 119.076 12.7959 118.453 12.7959 118.453L16.1424 101.085Z" fill="#B76533"/>
<path d="M56.6694 152.444L60.3556 145.225L66.9599 148.604L65.8848 151.522C65.8848 151.522 70.5489 153.228 71.414 155.823C71.9071 157.302 71.414 159.816 71.414 159.816L56.6694 152.444Z" fill="#BA6431"/>
<path d="M25.6802 103.896L46.4288 110.823C46.4288 110.823 38.9325 94.6259 40.5389 87.5312C42.1452 80.4365 43.8854 80.4365 43.8854 80.4365H66.7758C66.7758 80.4365 75.6107 99.9236 75.6107 105.909C75.6107 111.894 66.7758 150.446 66.7758 150.446L59.0118 145.289L62.8938 108.253L58.3425 101.846L57.1378 114.504C57.1378 114.504 55.6653 121.541 49.7753 122.474C43.8854 123.406 24.7432 114.504 24.7432 114.504L25.6802 103.896Z" fill="#42356D"/>
<mask id="mask4" mask-type="alpha" maskUnits="userSpaceOnUse" x="24" y="80" width="52" height="71">
<path d="M25.6802 103.876L45.224 111.09C45.224 111.09 38.9325 94.6249 40.5389 87.5302C42.1452 80.4355 43.8854 80.4355 43.8854 80.4355H66.7758C66.7758 80.4355 75.6107 99.9226 75.6107 105.908C75.6107 111.893 66.7758 150.445 66.7758 150.445L59.0118 145.288L62.8938 108.252L58.3425 101.845L57.1378 114.503C57.1378 114.503 55.6653 121.54 49.7753 122.473C43.8854 123.405 24.7432 114.503 24.7432 114.503L25.6802 103.876Z" fill="#317AA5"/>
</mask>
<g mask="url(#mask4)">
<path d="M58.8779 104.397V90.4755C58.8779 90.4755 60.8473 95.224 62.3583 100.381C64.0466 106.143 62.3583 116.177 62.3583 116.177L58.8779 104.397Z" fill="#312166"/>
</g>
<path d="M83.1265 37.1461C83.1265 37.1461 80.302 33.321 81.5283 32.9012C82.2217 32.6639 82.3722 33.6411 83.1265 33.397C83.8808 33.1529 81.222 29.9673 81.5283 28.8732C81.8347 27.7791 82.5687 26.8902 84.5517 27.6338C86.5347 28.3775 87.5882 29.9296 87.7741 32.5294C87.9183 34.5456 87.1545 37.7349 87.1545 37.7349L83.1265 37.1461Z" fill="#FFD6C0"/>
<path d="M26.4162 87.0128C25.0609 84.6534 27.5541 80.4368 27.5541 80.4368L31.57 78.1611L32.3731 83.3817C32.3731 83.3817 33.4369 87.3957 32.507 87.5817C32.1994 87.6432 31.9213 87.3809 31.7038 87.247C31.4863 87.1131 30.5995 84.5865 30.5995 84.5865C30.5995 84.5865 31.699 89.7252 29.8298 90.3426C28.8049 90.6811 27.2692 88.4976 26.4162 87.0128Z" fill="#FFD6C0"/>
<path d="M65.5707 50.7197C57.6488 51.7192 55.2251 46.634 47.3655 48.0424C39.9769 49.3665 33.5777 54.8025 30.3651 57.8144C26.7761 61.179 26.2153 81.3741 26.2153 81.3741L32.5068 80.3032C32.5068 80.3032 35.1841 69.0588 36.3888 65.1768C37.5936 61.2948 43.0819 62.2318 43.0819 62.2318C42.078 67.0508 42.3456 64.615 41.074 71.736C39.8024 78.857 43.0819 81.3741 43.0819 81.3741H67.1771L68.9173 63.4366C68.9173 63.4366 78.0086 60.2436 82.1696 55.8064C87.5732 50.0442 87.7918 37.3335 87.7918 37.3335L82.1696 35.9949C82.1696 35.9949 80.779 46.3005 76.2128 48.8456C72.13 51.1213 69.9379 50.1687 65.5707 50.7197Z" fill="#6D56B1"/>
<mask id="mask5" mask-type="alpha" maskUnits="userSpaceOnUse" x="26" y="35" width="62" height="47">
<path d="M65.5707 50.7197C57.6488 51.7192 55.2251 46.634 47.3655 48.0424C39.9769 49.3665 33.5777 54.8025 30.3651 57.8144C26.7761 61.179 26.2153 81.3741 26.2153 81.3741L32.5068 80.3032C32.5068 80.3032 35.1841 69.0588 36.3888 65.1768C37.5936 61.2948 43.0819 62.2318 43.0819 62.2318C42.078 67.0508 42.3456 64.615 41.074 71.736C39.8024 78.857 43.0819 81.3741 43.0819 81.3741H67.1771L68.9173 63.4366C68.9173 63.4366 78.0086 60.2436 82.1696 55.8064C87.5732 50.0442 87.7918 37.3335 87.7918 37.3335L82.1696 35.9949C82.1696 35.9949 80.779 46.3005 76.2128 48.8456C72.13 51.1213 69.9379 50.1687 65.5707 50.7197Z" fill="#6D56B1"/>
</mask>
<g mask="url(#mask5)">
<path d="M37.0583 62.7676C35.7685 64.277 35.7866 66.8503 35.7866 66.8503C35.7866 66.8503 40.2344 84.5816 42.3459 83.3154C42.2402 81.6254 44.2348 86.5152 44.4876 84.2524C42.3459 76.6223 46.4286 57.8816 46.4286 57.8816C46.4286 57.8816 40.2041 59.0864 37.0583 62.7676Z" fill="#55458A"/>
</g>
<path d="M55.7987 51.656C55.3302 50.5182 56.7358 41.7502 56.7358 41.7502L62.7596 45.7661C62.7596 45.7661 63.4958 51.5891 61.8225 53.2624C60.1493 54.9356 56.2673 52.7939 55.7987 51.656Z" fill="#FCBB9D"/>
<mask id="mask6" mask-type="alpha" maskUnits="userSpaceOnUse" x="55" y="40" width="10" height="9">
<path d="M60.3507 48.4432C57.7404 48.4432 55.7324 46.703 55.7324 44.9628V43.2226L59.012 40.6792L64.5673 48.4432H60.3507Z" fill="#C4C4C4"/>
</mask>
<g mask="url(#mask6)">
<path d="M55.7987 51.656C55.3302 50.5182 56.7358 41.7502 56.7358 41.7502L62.7596 45.7661C62.7596 45.7661 63.4958 51.5891 61.8225 53.2624C60.1493 54.9356 56.2673 52.7939 55.7987 51.656Z" fill="#DD9C7E"/>
</g>
<path d="M57.941 31.3095C57.941 31.3095 59.6143 27.2936 64.4333 27.3606C69.2523 27.4275 69.2525 30.1047 69.1854 31.3095C69.1182 32.5143 68.3822 33.1836 68.3822 33.1836C68.3822 33.1836 71.461 33.5851 71.1933 35.3254C70.9256 37.0656 68.3822 37.0656 68.3822 37.0656L57.941 40.0105C57.941 40.0105 54.4606 39.0066 53.6573 37.4671C52.8541 35.9277 52.1849 32.3135 54.4606 31.3095C56.7362 30.3055 57.941 31.3095 57.941 31.3095Z" fill="#FFD166"/>
<path d="M67.0434 46.1678C68.5847 44.4276 67.8466 36.3959 67.8466 36.3959C67.8466 36.3959 65.8387 34.5219 63.0276 35.8605C60.2164 37.1991 59.5471 34.5219 59.5471 34.5219C59.5471 34.5219 58.8778 38.27 57.5392 38.6716C56.2006 39.0732 55.6651 37.1991 55.6651 37.1991C55.6651 37.1991 53.4564 38.8724 54.7281 40.5456C55.9998 42.2189 56.736 41.3488 56.736 41.3488C56.736 41.3488 56.9389 44.7659 58.3424 46.1678C60.0112 47.8349 62.2244 47.908 63.0276 47.908C63.8307 47.908 65.5021 47.908 67.0434 46.1678Z" fill="#FCBB9D"/>
<path d="M64.7318 43.9467L60 42.6788C60 42.6788 59.6461 46.0569 61.8789 46.159C64.1116 46.2612 64.7318 43.9467 64.7318 43.9467Z" fill="white"/>
<path d="M116.83 47.8147L113.293 49.3422C113.293 49.3422 115.142 51.4727 116.227 50.5079C117.313 49.5432 116.83 47.8147 116.83 47.8147Z" fill="white"/>
<path d="M84.1777 22.7422C84.9809 23.4115 86.6676 25.1517 86.9888 26.758" stroke="#F1884F" stroke-linecap="round"/>
<path d="M88.3276 19.6635C88.7738 21.6268 89.5324 25.9817 88.9969 27.6952" stroke="#F1884F" stroke-linecap="round"/>
<path d="M92.4773 22.6088C92.2542 23.8135 91.6741 26.4104 91.1387 27.1601" stroke="#F1884F" stroke-linecap="round"/>
</svg>
