<svg width="253" height="216" viewBox="0 0 253 216" fill="none" xmlns="http://www.w3.org/2000/svg">
<mask id="mask0" mask-type="alpha" maskUnits="userSpaceOnUse" x="0" y="0" width="253" height="216">
<rect x="0.480469" y="0.133789" width="251.579" height="215" fill="#C4C4C4"/>
</mask>
<g mask="url(#mask0)">
<path opacity="0.2" fill-rule="evenodd" clip-rule="evenodd" d="M227.041 93.4394C218.212 91.9949 210.256 107.096 207.907 113.883C205.737 120.155 207.288 124.54 207.727 130.977C207.987 134.77 207.407 138.617 207.937 142.382C209.134 150.898 229.583 157.012 236.518 156.861C238.069 156.827 241.194 152.645 241.55 151.926C244.307 146.364 246.869 140.692 249.069 134.887C256.119 116.288 256.607 89.6292 229.387 92.5291L227.041 93.4394Z" fill="white"/>
<path opacity="0.2" fill-rule="evenodd" clip-rule="evenodd" d="M235.332 6.74363C226.503 5.29913 218.547 20.3999 216.198 27.1874C214.028 33.4594 215.579 37.8441 216.018 44.281C216.278 48.0745 215.698 51.9209 216.228 55.6862C217.425 64.2025 237.874 70.3159 244.809 70.1652C246.36 70.1315 249.485 65.9495 249.841 65.2303C252.598 59.6679 255.16 53.9961 257.36 48.191C264.41 29.5921 264.898 2.93342 237.678 5.83326L235.332 6.74363Z" fill="white"/>
<path opacity="0.2" fill-rule="evenodd" clip-rule="evenodd" d="M223.116 11.7116C222.212 8.53368 215.915 8.24669 213.277 8.52797C210.84 8.7879 209.618 9.995 207.536 11.1532C206.309 11.8357 204.932 12.2463 203.757 13.0148C201.098 14.7529 202.267 22.5479 203.407 24.8421C203.662 25.3552 205.551 25.7428 205.847 25.749C208.139 25.7966 210.437 25.7618 212.723 25.5854C220.047 25.02 229.034 20.9951 223.789 12.3527L223.116 11.7116Z" fill="white"/>
<path opacity="0.2" fill-rule="evenodd" clip-rule="evenodd" d="M62.4287 159.876C55.3835 151.917 35.9043 151.464 29.0571 160.031C24.9833 165.128 27.3052 163.824 24.8025 170.842C23.9379 173.267 18.4686 181.374 20.5192 185.969C29.4919 206.072 60.077 199.396 67.7921 181.223C70.9881 173.696 66.4322 168.525 63.419 161.945L62.4287 159.876Z" fill="white"/>
<path opacity="0.2" fill-rule="evenodd" clip-rule="evenodd" d="M167.68 60.8324C154.745 58.0377 154.547 40.7523 148.841 32.3889C138.386 17.0636 119.282 3.30414 99.7407 9.32418C94.9229 10.8084 86.5882 15.9009 83.4118 18.152C68.0129 29.0655 63.9384 49.8986 75.1614 65.7363C82.5368 76.1445 90.8684 80.438 89.1665 94.6437C87.2841 110.356 69.0155 128.146 62.4615 137.789C58.1721 144.1 57.7131 152.219 62.3765 158.302C64.0288 160.457 69.3816 167.023 72.7806 168.788C107.793 186.973 132.356 143.275 154.71 126.179C166.367 117.265 181.803 116.45 193.435 107.018C195.803 105.099 196.765 98.517 196.95 96.7619C198.476 82.2977 185.172 67.4172 179.516 64.0779C175.745 61.8516 171.8 60.7698 167.68 60.8324Z" fill="white"/>
<path d="M125.59 129.421H90.9609V147.62H125.59V129.421Z" fill="white"/>
<path fill-rule="evenodd" clip-rule="evenodd" d="M88.8704 127.693H228.307C231.34 131.316 232.856 134.939 232.856 138.562C232.856 142.185 231.34 145.808 228.307 149.431H88.8704C88.12 149.431 87.5117 148.823 87.5117 148.072C87.5117 147.322 88.12 146.714 88.8704 146.714H117.857C121.219 143.995 122.9 141.278 122.9 138.562C122.9 135.846 121.214 133.129 117.844 130.41H88.8704C88.12 130.41 87.5117 129.802 87.5117 129.052C87.5117 128.301 88.12 127.693 88.8704 127.693Z" fill="#805539"/>
<path d="M129.355 169.52H97.6113V189.412H129.355V169.52Z" fill="white"/>
<path fill-rule="evenodd" clip-rule="evenodd" d="M95.9342 167.631H223.511C226.292 171.591 227.682 175.551 227.682 179.512C227.682 183.472 226.292 187.432 223.511 191.392H95.9342C95.1141 191.392 94.4492 190.727 94.4492 189.907C94.4492 189.087 95.1141 188.422 95.9342 188.422H122.266C125.347 185.45 126.888 182.48 126.888 179.512C126.888 176.543 125.343 173.573 122.254 170.601H95.9342C95.1141 170.601 94.4492 169.937 94.4492 169.116C94.4492 168.296 95.1141 167.631 95.9342 167.631Z" fill="#E2A21C"/>
<path d="M126.186 193.262H91.0156V213.154H126.186V193.262Z" fill="white"/>
<path fill-rule="evenodd" clip-rule="evenodd" d="M88.9967 191.373H230.507C233.587 195.333 235.127 199.293 235.127 203.253C235.127 207.213 233.587 211.173 230.507 215.133H88.9967C88.1766 215.133 87.5117 214.468 87.5117 213.648C87.5117 212.828 88.1766 212.163 88.9967 212.163H118.331C121.745 209.192 123.452 206.222 123.452 203.253C123.452 200.284 121.741 197.314 118.318 194.343H88.9967C88.1766 194.343 87.5117 193.678 87.5117 192.858C87.5117 192.037 88.1766 191.373 88.9967 191.373Z" fill="#5680E8"/>
<path d="M110.36 180.58V197.85L105.665 193.618L101.191 197.85V181.245L110.36 180.58Z" fill="#A82329"/>
<path d="M112.879 175.8H103.771C103.771 175.8 103.771 179.871 101.191 181.241H110.3C110.3 181.241 112.879 180.576 112.879 175.8Z" fill="#EE504F"/>
<path fill-rule="evenodd" clip-rule="evenodd" d="M139.107 191.262H146.221C148.58 195.222 149.76 199.182 149.76 203.142C149.76 207.102 148.58 211.062 146.221 215.022H139.107C141.467 211.062 142.646 207.102 142.646 203.142C142.646 199.182 141.467 195.222 139.107 191.262Z" fill="white"/>
<path fill-rule="evenodd" clip-rule="evenodd" d="M207.918 191.262H209.976C212.336 195.222 213.515 199.182 213.515 203.142C213.515 207.102 212.336 211.062 209.976 215.022H207.918C210.277 211.062 211.457 207.102 211.457 203.142C211.457 199.182 210.277 195.222 207.918 191.262Z" fill="white"/>
<path fill-rule="evenodd" clip-rule="evenodd" d="M211.436 191.262H213.494C215.853 195.222 217.033 199.182 217.033 203.142C217.033 207.102 215.853 211.062 213.494 215.022H211.436C213.795 211.062 214.974 207.102 214.974 203.142C214.974 199.182 213.795 195.222 211.436 191.262Z" fill="white"/>
<path d="M148.761 150.878H229.152V166.115H148.761V150.878Z" fill="white"/>
<path fill-rule="evenodd" clip-rule="evenodd" d="M233.829 149.431H80.2391C76.9057 152.464 75.239 155.498 75.239 158.531C75.239 161.564 76.9057 164.597 80.2391 167.631H233.829C234.458 167.631 234.967 167.121 234.967 166.493C234.967 165.865 234.458 165.356 233.829 165.356H156.453C152.758 163.08 150.911 160.805 150.911 158.531C150.911 156.257 152.763 153.982 156.467 151.706H233.829C234.458 151.706 234.967 151.197 234.967 150.569C234.967 149.94 234.458 149.431 233.829 149.431Z" fill="#5680E8"/>
<path d="M198.71 161.664V178.934L203.405 174.702L207.879 178.934V162.329L198.71 161.664Z" fill="#6D68E0"/>
<path d="M196.191 156.884H205.3C205.3 156.884 205.299 160.955 207.879 162.325H198.77C198.77 162.325 196.191 161.66 196.191 156.884Z" fill="#AFAFD5"/>
<mask id="mask1" mask-type="alpha" maskUnits="userSpaceOnUse" x="108" y="86" width="60" height="36">
<path d="M135.283 86.9938C125.306 87.2194 110.044 110.354 108.84 116.922C108.749 117.422 109.446 117.813 109.918 118.001C113.03 119.233 116.171 120.506 119.46 121.128C120.202 121.269 120.951 120.687 121.527 120.198C126.603 115.893 129.836 108.219 136.341 106.811C141.188 105.762 144.343 113.506 149.253 114.199C165.156 116.442 171.447 112.057 164.667 101.513C163.641 99.9174 162.59 98.0996 160.892 97.2532C153.452 93.5444 145.261 86.7682 135.283 86.9938Z" fill="white"/>
</mask>
<g mask="url(#mask1)">
<path d="M135.283 86.9938C125.306 87.2194 110.044 110.354 108.84 116.922C108.749 117.422 109.446 117.813 109.918 118.001C113.03 119.233 116.171 120.506 119.46 121.128C120.202 121.269 120.951 120.687 121.527 120.198C126.603 115.893 129.836 108.219 136.341 106.811C141.188 105.762 144.343 113.506 149.253 114.199C165.156 116.442 171.447 112.057 164.667 101.513C163.641 99.9174 162.59 98.0996 160.892 97.2532C153.452 93.5444 145.261 86.7682 135.283 86.9938Z" fill="#FFC242"/>
<path fill-rule="evenodd" clip-rule="evenodd" d="M163.594 99.7598C152.289 102.524 139.954 100.037 130.223 106.411C127.892 107.938 120.629 118.049 124.066 121.15C127.075 123.865 140.538 119.763 142.683 119.054C150.031 116.626 159.589 109.758 165.121 105.6C169.336 102.432 162.918 100.032 160.298 100.369" fill="#E2A21C"/>
</g>
<path fill-rule="evenodd" clip-rule="evenodd" d="M134.021 159.413C134.052 162.26 133.441 165.187 134.115 167.953C134.726 170.464 149.672 172.351 142.458 158.88C141.565 157.212 138.744 157.841 136.855 157.964C135.949 158.022 135.308 158.916 134.534 159.393L134.021 159.413Z" fill="#FFD3B2"/>
<path fill-rule="evenodd" clip-rule="evenodd" d="M110.134 115.178C108.975 117.011 104.963 119.324 106.658 120.675L106.583 122.104C108.354 123.516 111.263 127.235 112.544 125.367L114.986 125.65C116.586 123.317 118.063 120.474 117.832 117.655C117.654 115.492 110.468 113.983 109.414 115.822" fill="#FFD3B2"/>
<path fill-rule="evenodd" clip-rule="evenodd" d="M168.019 103.298C149.811 109.042 135.311 109.085 133.062 128.907C132.093 137.454 131.351 146.029 130.845 154.616C130.726 156.638 129.316 159.913 131.19 160.682C153.467 169.832 145.688 141.154 151.876 129.311C152.218 128.658 152.861 127.943 153.598 127.923C162.096 127.692 170.592 128.544 179.093 128.57C181.019 128.576 183.295 129.161 184.845 128.017C185.881 127.253 185.198 125.443 185.069 124.162C184.905 122.525 184.579 120.88 183.976 119.349C183.03 116.95 181.875 114.614 180.456 112.46C179.121 110.434 177.611 108.47 175.767 106.892C174.305 105.641 172.392 105.041 170.704 104.115L168.019 103.298Z" fill="#FFC242"/>
<path fill-rule="evenodd" clip-rule="evenodd" d="M134.526 165.356C134.245 165.356 129.794 170.767 128.055 173.883C113.795 199.43 156.053 172.734 144.007 164.702C143.456 164.334 142.519 164.764 142.105 165.282C141.269 166.33 141.782 168.414 140.577 169.003C139.776 169.394 140.227 167.02 139.454 166.576C138.256 165.887 137.476 165.549 136.108 165.356C135.241 165.356 134.714 165.356 134.526 165.356Z" fill="#303D60"/>
<path fill-rule="evenodd" clip-rule="evenodd" d="M107.859 119.222C106.819 119.005 105.745 118.23 104.74 118.571C100.759 119.923 93.108 120.184 92.3521 124.319V125.703C92.2509 126.256 92.3512 127.028 92.8314 127.321C93.7706 127.893 94.9673 127.954 96.0671 127.968C103.162 128.058 110.301 128.429 117.352 127.631C117.856 127.574 117.941 125.596 117.607 121.699C110.508 124.126 108.899 119.439 107.859 119.222Z" fill="#303D60"/>
<path fill-rule="evenodd" clip-rule="evenodd" d="M197.213 106.584C200.437 117.741 199.707 124.985 206.161 127.693C210.09 129.342 217.239 130.574 224.249 127.693C228.659 125.881 221.427 124.219 220.251 124.02C216.853 123.444 216.853 122.068 209.975 122.901C205.98 118.988 208.1 96.1177 197.752 105.43L197.213 106.584Z" fill="#FFD3B2"/>
<path fill-rule="evenodd" clip-rule="evenodd" d="M153.521 49.363C149.453 55.7499 145.607 56.4477 146.305 63.7377C146.756 68.4541 162.471 81.5431 166.52 75.06C167.627 73.2865 170.071 71.6075 169.641 69.5612C169.113 67.0451 156.543 62.7813 155.254 60.5569C152.797 56.3182 169.202 49.2115 160.534 48.6238C159.113 48.5275 156.776 48.7739 153.521 49.363Z" fill="#FFD3B2"/>
<mask id="mask2" mask-type="alpha" maskUnits="userSpaceOnUse" x="157" y="66" width="53" height="62">
<path d="M166.881 66.8994C170.909 68.4944 173.857 67.7477 178.031 68.9078C193.607 73.2368 192.558 68.9034 202.305 84.1387C203.431 85.8994 210.464 98.2576 209.375 101.439C208.473 104.072 206.114 108.768 197.214 110.682C193.434 111.495 192.763 109.296 192.438 110.682C191.722 113.741 190.556 117.247 189.652 120.439C189.394 121.351 186.008 127.268 185.12 127.601C182.425 128.614 186.205 121.084 177.946 113.741C174.26 110.464 170.538 108.66 166.881 105.349C164.109 102.838 161.572 100.774 160.182 97.3008C159.709 96.1194 162.432 95.4882 163.469 94.75C166.328 92.7138 168.129 92.2497 168.929 88.8322C169.42 86.7381 157.968 87.4528 157.345 85.0568C156.739 82.7258 158.504 76.8145 164.436 68.9078L166.881 66.8994Z" fill="white"/>
</mask>
<g mask="url(#mask2)">
<path d="M166.881 66.8994C170.909 68.4944 173.857 67.7477 178.031 68.9078C193.607 73.2368 192.558 68.9034 202.305 84.1387C203.431 85.8994 210.464 98.2576 209.375 101.439C208.473 104.072 206.114 108.768 197.214 110.682C193.434 111.495 192.763 109.296 192.438 110.682C191.722 113.741 190.556 117.247 189.652 120.439C189.394 121.351 186.008 127.268 185.12 127.601C182.425 128.614 186.205 121.084 177.946 113.741C174.26 110.464 170.538 108.66 166.881 105.349C164.109 102.838 161.572 100.774 160.182 97.3008C159.709 96.1194 162.432 95.4882 163.469 94.75C166.328 92.7138 168.129 92.2497 168.929 88.8322C169.42 86.7381 157.968 87.4528 157.345 85.0568C156.739 82.7258 158.504 76.8145 164.436 68.9078L166.881 66.8994Z" fill="#2758CE"/>
<path fill-rule="evenodd" clip-rule="evenodd" d="M177.797 73.5161C178.637 75.1613 173.665 79.4425 172.239 82.1557C170.405 85.6441 168.916 88.8331 167.37 91.7242C166.612 93.1411 166.223 91.2332 167.37 89.616C168.175 88.4814 168.688 83.9636 170.506 81.5024C171.795 79.7573 174.225 77.0952 177.797 73.5161Z" fill="#13327C"/>
<path fill-rule="evenodd" clip-rule="evenodd" d="M189.4 97.3965C190.618 96.4319 190.499 102.641 192.009 107.26C195.87 119.076 193.036 117.302 190.618 107.754C189.491 103.307 189.013 97.703 189.4 97.3965Z" fill="#13327C"/>
</g>
<mask id="mask3" mask-type="alpha" maskUnits="userSpaceOnUse" x="184" y="64" width="12" height="16">
<path d="M185.838 64.9751C184.545 68.2293 184.135 72.0169 184.135 75.5758C184.135 77.9828 193.352 81.1125 193.352 77.9828C193.352 74.4836 196.453 67.184 194.547 66.7749C193.144 66.4736 190.241 65.8737 185.838 64.9751Z" fill="white"/>
</mask>
<g mask="url(#mask3)">
<path d="M185.838 64.9751C184.545 68.2293 184.135 72.0169 184.135 75.5758C184.135 77.9828 193.352 81.1125 193.352 77.9828C193.352 74.4836 196.453 67.184 194.547 66.7749C193.144 66.4736 190.241 65.8737 185.838 64.9751Z" fill="#FFD3B2"/>
<path fill-rule="evenodd" clip-rule="evenodd" d="M182.551 69.4265C184.509 70.2009 191.387 76.1673 195.591 76.8267C199.269 77.4034 200.444 73.0674 200.531 68.9032C200.675 62.0199 176.879 68.263 183.665 70.1443" fill="#EDB287"/>
</g>
<path fill-rule="evenodd" clip-rule="evenodd" d="M186.102 51.9854C184.975 54.2056 179.937 63.306 182.886 66.9156C187.843 72.9833 192.824 69.0203 193.882 67.2943C194.856 67.2179 194.427 67.8955 195.168 68.2167C196.358 68.7328 198.522 68.8021 199.012 66.8988C200.985 59.2418 197.777 67.3531 196.022 63.7875C192.057 55.7317 207.582 57.4399 191.587 51.9854H186.102Z" fill="#FFD3B2"/>
<path fill-rule="evenodd" clip-rule="evenodd" d="M183.943 65.509C199.671 60.3804 189.647 69.0907 183.944 65.7716L183.943 65.509Z" fill="white"/>
<path fill-rule="evenodd" clip-rule="evenodd" d="M194.403 48.3989C191.294 44.603 188.844 45.4239 183.997 49.3899C182.009 51.0165 182.906 53.6337 184.961 54.4536C187.066 55.2932 190.359 54.3174 190.643 54.4536C191.41 54.8203 191.927 56.6745 192.702 57.0234C193.275 57.2812 194.149 55.6284 194.403 56.2025C195.381 58.407 193.962 62.1134 195.493 63.9765C196.495 65.1955 197.868 64.9139 199.137 63.9765C206.655 58.4233 204.891 45.1604 195.493 49.3899L194.403 48.3989Z" fill="#303D60"/>
<mask id="mask4" mask-type="alpha" maskUnits="userSpaceOnUse" x="158" y="47" width="28" height="13">
<path d="M161.503 47.8361L183.854 54.5066C185.095 54.8769 185.675 56.3815 185.149 57.8672C184.624 59.3528 183.191 60.257 181.951 59.8866L159.6 53.2161C159.077 53.0602 158.833 52.4266 159.054 51.8011L160.156 48.6863C160.377 48.0608 160.98 47.6801 161.503 47.8361Z" fill="white"/>
</mask>
<g mask="url(#mask4)">
<path d="M161.478 47.8377L183.851 54.5464C185.093 54.9189 185.679 56.4154 185.16 57.889C184.641 59.3626 183.214 60.2552 181.972 59.8828L159.599 53.174C159.076 53.0172 158.83 52.3871 159.048 51.7666L160.136 48.6772C160.354 48.0567 160.955 47.6808 161.478 47.8377Z" fill="#8A70DF"/>
<path d="M157.424 58.6497C160.737 59.5996 164.815 56.5898 166.531 51.9272C168.248 47.2645 166.954 42.7147 163.641 41.7648C160.328 40.815 156.251 43.8247 154.534 48.4873C152.817 53.15 154.111 57.6998 157.424 58.6497Z" fill="#7C64CC"/>
</g>
<mask id="mask5" mask-type="alpha" maskUnits="userSpaceOnUse" x="135" y="38" width="28" height="17">
<path d="M139.671 38.0541L161.034 44.1509C162.573 44.5901 163.276 46.4185 162.604 48.2348L161.185 52.0715C160.513 53.8878 158.721 55.0041 157.182 54.5649L135.819 48.4681C135.306 48.3217 135.071 47.7122 135.295 47.1068L138.337 38.8853C138.561 38.2799 139.158 37.9077 139.671 38.0541Z" fill="white"/>
</mask>
<g mask="url(#mask5)">
<path d="M139.588 38.0581L161.023 44.247C162.567 44.6929 163.286 46.5114 162.629 48.3088L161.241 52.1056C160.584 53.903 158.799 54.9987 157.255 54.5529L135.82 48.364C135.305 48.2154 135.066 47.6092 135.285 47.0101L138.26 38.8739C138.479 38.2748 139.074 37.9095 139.588 38.0581Z" fill="#8A70DF"/>
<path d="M131.552 50.215C134.844 51.1501 138.921 48.1164 140.659 43.4389C142.398 38.7615 141.138 34.2117 137.847 33.2766C134.555 32.3415 130.478 35.3753 128.739 40.0527C127.001 44.7301 128.26 49.28 131.552 50.215Z" fill="#7C64CC"/>
</g>
<path fill-rule="evenodd" clip-rule="evenodd" d="M116.288 28.3276L137.472 34.3574C138.998 34.7918 139.706 36.5718 139.053 38.3332L136.145 46.1729C135.492 47.9343 133.725 49.0101 132.199 48.5757L111.015 42.5459C110.506 42.4011 110.27 41.8077 110.488 41.2206L114.973 29.1285C115.191 28.5414 115.78 28.1828 116.288 28.3276Z" fill="#8A70DF"/>
<path d="M110.319 41.2723C111.476 41.6085 113.487 38.9249 114.812 35.2783C116.137 31.6317 116.273 28.4029 115.116 28.0667C113.959 27.7305 111.948 30.4142 110.623 34.0608C109.298 37.7074 109.162 40.9361 110.319 41.2723Z" fill="#53418D"/>
<mask id="mask6" mask-type="alpha" maskUnits="userSpaceOnUse" x="159" y="44" width="17" height="13">
<path d="M165.07 45.2911C177.175 51.0814 176.894 52.5814 174.673 52.2702C173.21 52.0653 170.98 50.3727 170.627 51.0881C170.131 52.0936 173.186 56.1706 167.946 56.1706C165.07 56.1706 163.518 55.3298 163.258 53.6765C162.234 47.1571 162.543 48.3122 159.594 44.5215C162.234 44.3511 162.543 44.0822 165.07 45.2911Z" fill="white"/>
</mask>
<g mask="url(#mask6)">
<path d="M165.07 45.2911C177.175 51.0814 176.894 52.5814 174.673 52.2702C173.21 52.0653 170.98 50.3727 170.627 51.0881C170.131 52.0936 173.186 56.1706 167.946 56.1706C165.07 56.1706 163.518 55.3298 163.258 53.6765C162.234 47.1571 162.543 48.3122 159.594 44.5215C162.234 44.3511 162.543 44.0822 165.07 45.2911Z" fill="#FFD3B2"/>
<path fill-rule="evenodd" clip-rule="evenodd" d="M168.143 46.1706C169.545 49.0007 170.135 52.4082 172.349 54.6611C174.85 57.2061 178.33 55.6101 177.321 52.6656C175.976 48.741 172.397 46.6255 168.633 45.979L168.143 46.1706Z" fill="#EDB287"/>
</g>
<path d="M227.801 127.693H155.254V141.342H227.801V127.693Z" fill="#805539"/>
<path fill-rule="evenodd" clip-rule="evenodd" d="M194.472 64.4293C192.117 65.9544 194.248 67.3087 197.585 65.7739C202.198 63.6518 197.884 61.5569 195.348 63.7901L194.472 64.4293Z" fill="#FFD3B2"/>
<path d="M77.2066 104.177C79.8922 104.177 82.0694 102 82.0694 99.314C82.0694 96.6283 79.8922 94.4512 77.2066 94.4512C74.5209 94.4512 72.3438 96.6283 72.3438 99.314C72.3438 102 74.5209 104.177 77.2066 104.177Z" fill="#FFFAC6"/>
<path d="M226.019 41.2672C228.705 41.2672 230.882 39.09 230.882 36.4043C230.882 33.7187 228.705 31.5415 226.019 31.5415C223.333 31.5415 221.156 33.7187 221.156 36.4043C221.156 39.09 223.333 41.2672 226.019 41.2672Z" fill="#FFFAC6"/>
<path d="M132.416 65.0538C134.091 65.0538 135.449 63.6958 135.449 62.0205C135.449 60.3453 134.091 58.9873 132.416 58.9873C130.741 58.9873 129.383 60.3453 129.383 62.0205C129.383 63.6958 130.741 65.0538 132.416 65.0538Z" fill="#FFFAC6"/>
<path d="M89.7894 98.4773C91.1854 98.4773 92.3171 97.3456 92.3171 95.9496C92.3171 94.5536 91.1854 93.4219 89.7894 93.4219C88.3934 93.4219 87.2617 94.5536 87.2617 95.9496C87.2617 97.3456 88.3934 98.4773 89.7894 98.4773Z" fill="#FFFAC6"/>
<path d="M215.586 33.1892C216.982 33.1892 218.114 32.0575 218.114 30.6615C218.114 29.2655 216.982 28.1338 215.586 28.1338C214.19 28.1338 213.059 29.2655 213.059 30.6615C213.059 32.0575 214.19 33.1892 215.586 33.1892Z" fill="#FFFAC6"/>
<path d="M49.7289 191.391C51.1249 191.391 52.2566 190.26 52.2566 188.864C52.2566 187.468 51.1249 186.336 49.7289 186.336C48.3329 186.336 47.2012 187.468 47.2012 188.864C47.2012 190.26 48.3329 191.391 49.7289 191.391Z" fill="#FFFAC6"/>
<path d="M62.6218 204.119C63.7386 204.119 64.6439 203.213 64.6439 202.096C64.6439 200.98 63.7386 200.074 62.6218 200.074C61.505 200.074 60.5996 200.98 60.5996 202.096C60.5996 203.213 61.505 204.119 62.6218 204.119Z" fill="#FFFAC6"/>
<path d="M124.573 56.8832C125.69 56.8832 126.595 55.9778 126.595 54.861C126.595 53.7442 125.69 52.8389 124.573 52.8389C123.456 52.8389 122.551 53.7442 122.551 54.861C122.551 55.9778 123.456 56.8832 124.573 56.8832Z" fill="#FFFAC6"/>
</g>
</svg>
