<svg width="31" height="31" viewBox="0 0 31 31" fill="none" xmlns="http://www.w3.org/2000/svg">
<circle cx="15.5" cy="15.5" r="15.5" fill="#05668D"/>
<path d="M22.475 7.75H10.85C10.4389 7.75 10.0447 7.9133 9.75398 8.20398C9.4633 8.49467 9.3 8.88891 9.3 9.3V11.625H7.75V13.175H9.3V14.725H7.75V16.275H9.3V17.825H7.75V19.375H9.3V21.7C9.3 22.1111 9.4633 22.5053 9.75398 22.796C10.0447 23.0867 10.4389 23.25 10.85 23.25H22.475C22.6805 23.25 22.8777 23.1683 23.023 23.023C23.1683 22.8777 23.25 22.6805 23.25 22.475V8.525C23.25 8.31946 23.1683 8.12233 23.023 7.97699C22.8777 7.83165 22.6805 7.75 22.475 7.75ZM16.275 10.0742C17.5522 10.0742 18.6 11.1212 18.6 12.3992C18.5978 13.0152 18.3521 13.6054 17.9166 14.041C17.4811 14.4767 16.891 14.7225 16.275 14.725C14.9986 14.725 13.95 13.6764 13.95 12.3992C13.95 11.1212 14.9986 10.0742 16.275 10.0742ZM20.925 20.15H11.625V19.5687C11.625 17.849 13.7214 16.0813 16.275 16.0813C18.8286 16.0813 20.925 17.849 20.925 19.5687V20.15Z" fill="white"/>
</svg>
