<svg width="90" height="90" viewBox="0 0 90 90" fill="none" xmlns="http://www.w3.org/2000/svg">
<path d="M78.75 0.112549C75.8812 0.112549 73.0612 1.23755 70.8975 3.39755L33.75 40.425L32.925 41.25L32.7 42.4238L30.1125 55.5488L28.95 61.0538L34.4512 59.8913L47.5762 57.3038L48.75 57.0788L49.575 56.2538L86.6025 19.1063C88.1533 17.5501 89.2088 15.5697 89.6361 13.4147C90.0634 11.2597 89.8433 9.02641 89.0037 6.99622C88.164 4.96604 86.7423 3.22976 84.9176 2.00613C83.0929 0.782493 80.947 0.126242 78.75 0.120048V0.112549ZM78.75 7.38755C79.6312 7.38755 80.49 7.83755 81.33 8.6738C83.0025 10.3463 83.0025 12.1538 81.33 13.83L45 50.1525L38.55 51.4425L39.8437 44.9925L76.1737 8.66255C77.01 7.8263 77.8687 7.3763 78.75 7.3763V7.38755ZM0 15V90H75V40.545L67.5 48.045V82.5H7.5V22.5H41.955L49.455 15H0Z" fill="#E2666A"/>
</svg>
