<svg width="120" height="120" viewBox="0 0 120 120" fill="none" xmlns="http://www.w3.org/2000/svg">
<path d="M97.5 22.5V37.5H22.5V22.5H97.5ZM97.5 15H22.5C20.5109 15 18.6032 15.7902 17.1967 17.1967C15.7902 18.6032 15 20.5109 15 22.5V37.5C15 39.4891 15.7902 41.3968 17.1967 42.8033C18.6032 44.2098 20.5109 45 22.5 45H97.5C99.4891 45 101.397 44.2098 102.803 42.8033C104.21 41.3968 105 39.4891 105 37.5V22.5C105 20.5109 104.21 18.6032 102.803 17.1967C101.397 15.7902 99.4891 15 97.5 15Z" fill="#3C91E6"/>
<path d="M37.5 60V97.5H22.5V60H37.5ZM37.5 52.5H22.5C20.5109 52.5 18.6032 53.2902 17.1967 54.6967C15.7902 56.1032 15 58.0109 15 60V97.5C15 99.4891 15.7902 101.397 17.1967 102.803C18.6032 104.21 20.5109 105 22.5 105H37.5C39.4891 105 41.3968 104.21 42.8033 102.803C44.2098 101.397 45 99.4891 45 97.5V60C45 58.0109 44.2098 56.1032 42.8033 54.6967C41.3968 53.2902 39.4891 52.5 37.5 52.5Z" fill="#7DCFB6"/>
<path d="M97.5 60V97.5H60V60H97.5ZM97.5 52.5H60C58.0109 52.5 56.1032 53.2902 54.6967 54.6967C53.2902 56.1032 52.5 58.0109 52.5 60V97.5C52.5 99.4891 53.2902 101.397 54.6967 102.803C56.1032 104.21 58.0109 105 60 105H97.5C99.4891 105 101.397 104.21 102.803 102.803C104.21 101.397 105 99.4891 105 97.5V60C105 58.0109 104.21 56.1032 102.803 54.6967C101.397 53.2902 99.4891 52.5 97.5 52.5Z" fill="#FBD1A2"/>
</svg>
