<svg class="ionicon" viewBox="0 0 25 25" xmlns="http://www.w3.org/2000/svg">
<path fill-rule="evenodd" stroke="none" d="M16.7006 7.11867C16.7006 10.268 14.1476 12.8211 10.9982 12.8211C7.84887 12.8211 5.29581 10.268 5.29581 7.11867C5.29581 3.96932 7.84887 1.41626 10.9982 1.41626C14.1476 1.41626 16.7006 3.96932 16.7006 7.11867Z"/>
<path fill-rule="evenodd" stroke="none" d="M10.9982 13.7736C5.22438 13.7736 0.543762 18.4542 0.543762 24.228H14.975C13.098 23.1737 11.8298 21.1639 11.8298 18.8578C11.8298 16.9965 12.656 15.3282 13.9617 14.1995C13.0221 13.9223 12.0275 13.7736 10.9982 13.7736Z"/>
<path fill-rule="evenodd" stroke="none" d="M21.4489 23.9464C21.3021 24.0466 21.1506 24.1406 20.995 24.228H21.4527C21.4527 24.1338 21.4514 24.04 21.4489 23.9464Z"/>
<path fill-rule="evenodd" stroke="none" d="M18.5606 13.2341C18.2688 13.234 18.0284 13.463 18.0144 13.7544L17.9696 14.6848C17.6358 14.7768 17.3187 14.9092 17.0241 15.0765L16.3346 14.4497C16.1187 14.2534 15.7868 14.2613 15.5804 14.4677L14.8451 15.203C14.6388 15.4093 14.6309 15.7413 14.8272 15.9572L15.454 16.6467C15.287 16.9407 15.1548 17.257 15.0629 17.5901L14.1324 17.6344C13.841 17.6483 13.6118 17.8886 13.6118 18.1804V19.2203C13.6118 19.512 13.841 19.7524 14.1324 19.7663L15.0629 19.8106C15.1548 20.1436 15.287 20.46 15.454 20.754L14.8272 21.4435C14.6309 21.6594 14.6388 21.9914 14.8451 22.1977L15.5804 22.933C15.7868 23.1393 16.1187 23.1472 16.3346 22.951L17.0241 22.3241C17.3176 22.4908 17.6332 22.6228 17.9655 22.7147L18.0093 23.6452C18.0231 23.9366 18.2633 24.1659 18.5551 24.166L19.595 24.1666C19.8867 24.1667 20.1272 23.9377 20.1412 23.6462L20.186 22.7158C20.5198 22.6239 20.8368 22.4915 21.1315 22.3241L21.821 22.951C22.0369 23.1472 22.3688 23.1393 22.5752 22.933L23.3105 22.1977C23.5168 21.9914 23.5247 21.6594 23.3284 21.4435L22.7016 20.754C22.8686 20.46 23.0008 20.1436 23.0927 19.8106L24.0232 19.7663C24.3146 19.7524 24.5437 19.512 24.5437 19.2203V18.1804C24.5437 17.8886 24.3146 17.6483 24.0231 17.6344L23.0927 17.5901C23.0008 17.257 22.8686 16.9407 22.7016 16.6467L23.3284 15.9572C23.5247 15.7413 23.5168 15.4093 23.3105 15.203L22.5752 14.4677C22.3688 14.2613 22.0369 14.2534 21.821 14.4497L21.1315 15.0765C20.838 14.9099 20.5224 14.7778 20.19 14.686L20.1462 13.7555C20.1325 13.4641 19.8923 13.2348 19.6005 13.2346L18.5606 13.2341ZM19.0778 20.8587C20.2699 20.8587 21.2363 19.8923 21.2363 18.7003C21.2363 17.5082 20.2699 16.5418 19.0778 16.5418C17.8857 16.5418 16.9194 17.5082 16.9194 18.7003C16.9194 19.8923 17.8857 20.8587 19.0778 20.8587Z"/>
</svg>
