<svg class="ionicon" viewBox="0 0 25 25" xmlns="http://www.w3.org/2000/svg">
<path fill-rule="evenodd" stroke="none" d="M3.96693 3.46985C3.96693 2.36528 4.86236 1.46985 5.96693 1.46985H22.4375C23.5421 1.46985 24.4375 2.36528 24.4375 3.46985V14.4699C24.4375 15.5744 23.5421 16.4699 22.4375 16.4699H19.261V20.554C19.261 20.9793 18.7638 21.2104 18.4387 20.9362L13.702 16.9411C13.3413 16.6368 12.8845 16.4699 12.4126 16.4699H5.96693C4.86236 16.4699 3.96693 15.5744 3.96693 14.4699V3.46985ZM9.88221 9.38985C9.88221 10.1851 9.2375 10.8299 8.44221 10.8299C7.64692 10.8299 7.00221 10.1851 7.00221 9.38985C7.00221 8.59456 7.64692 7.94985 8.44221 7.94985C9.2375 7.94985 9.88221 8.59456 9.88221 9.38985ZM15.6422 9.38987C15.6422 10.1852 14.9975 10.8299 14.2022 10.8299C13.4069 10.8299 12.7622 10.1852 12.7622 9.38987C12.7622 8.59458 13.4069 7.94987 14.2022 7.94987C14.9975 7.94987 15.6422 8.59458 15.6422 9.38987ZM19.9622 10.8299C20.7575 10.8299 21.4022 10.1852 21.4022 9.38987C21.4022 8.59458 20.7575 7.94987 19.9622 7.94987C19.1669 7.94987 18.5222 8.59458 18.5222 9.38987C18.5222 10.1852 19.1669 10.8299 19.9622 10.8299Z"/>
<path fill-rule="evenodd" stroke="none" d="M2.4375 7.34141H3.07749V15.4972C3.07749 16.6018 3.97293 17.4972 5.07749 17.4972H11.9617C12.4094 17.4972 12.8441 17.6474 13.1963 17.9238L14.9317 19.2854C14.7736 19.3256 14.6081 19.3469 14.4375 19.3469H9.95605C9.50838 19.3469 9.07366 19.4971 8.72147 19.7735L5.29212 22.4642C4.964 22.7216 4.48347 22.4879 4.48347 22.0708V19.3469H2.4375C1.33293 19.3469 0.4375 18.4515 0.4375 17.3469V9.34141C0.4375 8.23684 1.33293 7.34141 2.4375 7.34141Z"/>
</svg>
