<svg class="ionicon" viewBox="0 0 25 24" xmlns="http://www.w3.org/2000/svg">
<path fill-rule="evenodd" stroke="none" d="M2.37408 3.50006C2.37408 2.39549 3.26952 1.50006 4.37408 1.50006H21.3741C22.4787 1.50006 23.3741 2.39549 23.3741 3.50006V5.60867H2.37408V3.50006Z"/>
<path fill-rule="evenodd" stroke="none" d="M2.37408 7.43476H23.3741V20.5001C23.3741 21.6046 22.4787 22.5001 21.3741 22.5001H4.37408C3.26951 22.5001 2.37408 21.6046 2.37408 20.5001V7.43476ZM9.10779 11.087C9.10779 10.5828 9.51657 10.174 10.0208 10.174H19.0942C19.5985 10.174 20.0072 10.5828 20.0072 11.087C20.0072 11.5913 19.5985 12.0001 19.0942 12.0001H10.0208C9.51657 12.0001 9.10779 11.5913 9.10779 11.087ZM7.39582 11.0871C7.39582 11.5913 6.98704 12.0001 6.48278 12.0001C5.97852 12.0001 5.56973 11.5913 5.56973 11.0871C5.56973 10.5828 5.97852 10.174 6.48278 10.174C6.98704 10.174 7.39582 10.5828 7.39582 11.0871ZM7.39582 14.5109C7.39582 15.0152 6.98704 15.424 6.48278 15.424C5.97852 15.424 5.56974 15.0152 5.56974 14.5109C5.56974 14.0066 5.97852 13.5979 6.48278 13.5979C6.98704 13.5979 7.39582 14.0066 7.39582 14.5109ZM6.48278 18.8479C6.98704 18.8479 7.39582 18.4391 7.39582 17.9348C7.39582 17.4306 6.98704 17.0218 6.48278 17.0218C5.97852 17.0218 5.56974 17.4306 5.56974 17.9348C5.56974 18.4391 5.97852 18.8479 6.48278 18.8479ZM10.0208 13.5979C9.51657 13.5979 9.10779 14.0066 9.10779 14.5109C9.10779 15.0152 9.51657 15.424 10.0208 15.424H19.0942C19.5985 15.424 20.0072 15.0152 20.0072 14.5109C20.0072 14.0066 19.5985 13.5979 19.0942 13.5979H10.0208ZM9.10779 17.9348C9.10779 17.4306 9.51657 17.0218 10.0208 17.0218H17.3252C17.8294 17.0218 18.2382 17.4306 18.2382 17.9348C18.2382 18.4391 17.8294 18.8479 17.3252 18.8479H10.0208C9.51657 18.8479 9.10779 18.4391 9.10779 17.9348Z"/>
</svg>
