<svg class="ionicon" viewBox="0 0 25 25" xmlns="http://www.w3.org/2000/svg">
<path fill-rule="evenodd" stroke="none" d="M24.5 12.5C24.5 19.1274 19.1274 24.5 12.5 24.5C5.87259 24.5 0.5 19.1274 0.5 12.5C0.5 5.87259 5.87259 0.5 12.5 0.5C19.1274 0.5 24.5 5.87259 24.5 12.5ZM10.1523 10.5966C10.2518 10.3847 10.4225 10.2144 10.6346 10.1154L17.4846 6.91748C17.8921 6.72726 18.324 7.1297 18.163 7.54959L15.3905 14.779C15.2892 15.0431 15.0809 15.2519 14.817 15.3538L7.55563 18.1576C7.13516 18.3199 6.73141 17.8868 6.92288 17.4787L10.1523 10.5966ZM12.5 13.9375C13.2939 13.9375 13.9375 13.2939 13.9375 12.5C13.9375 11.7061 13.2939 11.0625 12.5 11.0625C11.7061 11.0625 11.0625 11.7061 11.0625 12.5C11.0625 13.2939 11.7061 13.9375 12.5 13.9375Z"/>
</svg>
