<svg class="ionicon" viewBox="0 0 24 24" xmlns="http://www.w3.org/2000/svg">
<path fill-rule="evenodd" stroke="none" d="M15.6065 8.8157C15.6065 10.8075 13.9918 12.4222 12 12.4222C10.0082 12.4222 8.39348 10.8075 8.39348 8.8157C8.39348 6.82387 10.0082 5.20917 12 5.20917C13.9918 5.20917 15.6065 6.82387 15.6065 8.8157ZM18.785 19.9785V19.9784C18.785 16.2311 15.7472 13.1934 12 13.1934C8.25277 13.1934 5.21503 16.2311 5.21503 19.9784V19.9785H18.785ZM16.6488 13.6481C17.7678 14.4498 18.6712 15.5334 19.2552 16.7949L24 16.7949C24 14.3929 22.0528 12.4458 19.6509 12.4458C18.4867 12.4458 17.4294 12.9032 16.6488 13.6481ZM4.74435 16.7949C5.32843 15.5333 6.2319 14.4497 7.35099 13.6479C6.57043 12.9031 5.51317 12.4458 4.3491 12.4458C1.94716 12.4458 0 14.3929 0 16.7949L4.74435 16.7949ZM6.66082 9.6397C6.66082 10.9164 5.62582 11.9514 4.34907 11.9514C3.07233 11.9514 2.03733 10.9164 2.03733 9.6397C2.03733 8.36296 3.07233 7.32795 4.34907 7.32795C5.62582 7.32795 6.66082 8.36296 6.66082 9.6397ZM21.9627 9.63971C21.9627 10.9164 20.9277 11.9515 19.6509 11.9515C18.3742 11.9515 17.3392 10.9164 17.3392 9.63971C17.3392 8.36297 18.3742 7.32796 19.6509 7.32796C20.9277 7.32796 21.9627 8.36297 21.9627 9.63971Z" />
</svg>
