<svg class="ionicon" viewBox="0 0 25 25" xmlns="http://www.w3.org/2000/svg">
<path fill-rule="evenodd" stroke="none" d="M0.5 14.5161C0.5 13.9638 0.947715 13.5161 1.5 13.5161H4.5C5.05228 13.5161 5.5 13.9638 5.5 14.5161V22.9999H0.5V14.5161Z"/>
<path fill-rule="evenodd" stroke="none" d="M6.83334 3C6.83334 2.44772 7.28106 2 7.83334 2H10.8333C11.3856 2 11.8333 2.44772 11.8333 3V23H6.83334V3Z"/>
<path fill-rule="evenodd" stroke="none" d="M13.1667 9.6111C13.1667 9.05882 13.6144 8.6111 14.1667 8.6111H17.1667C17.719 8.6111 18.1667 9.05882 18.1667 9.6111V23H13.1667V9.6111Z"/>
<path fill-rule="evenodd" stroke="none" d="M19.5 5.2037C19.5 4.65142 19.9477 4.2037 20.5 4.2037H23.5C24.0523 4.2037 24.5 4.65142 24.5 5.2037V23H19.5V5.2037Z"/>
</svg>
