<svg class="ionicon" viewBox="0 0 25 25" xmlns="http://www.w3.org/2000/svg">
<path fill-rule="evenodd" stroke="none" d="M1.9375 10.5751C1.9375 10.1892 2.35611 9.94878 2.68944 10.1432L12.4375 15.8296L22.1856 10.1432C22.5189 9.94878 22.9375 10.1892 22.9375 10.5751V21.75C22.9375 22.3023 22.4898 22.75 21.9375 22.75H2.9375C2.38522 22.75 1.9375 22.3023 1.9375 21.75V10.5751Z"/>
<path fill-rule="evenodd" stroke="none" d="M5.5625 1.75012C5.01022 1.75012 4.5625 2.19784 4.5625 2.75012V9.72546L12.4375 14.0002L20.3125 9.72546V2.75012C20.3125 2.19784 19.8648 1.75012 19.3125 1.75012H5.5625ZM6.91405 5.50115C6.91405 5.16891 7.18338 4.89959 7.51562 4.89959H17.3594C17.6916 4.89959 17.9609 5.16891 17.9609 5.50115C17.9609 5.83338 17.6916 6.10271 17.3594 6.10271H7.51562C7.18338 6.10271 6.91405 5.83338 6.91405 5.50115ZM8.66405 7.60662C8.33182 7.60662 8.06249 7.87595 8.06249 8.20818C8.06249 8.54041 8.33182 8.80974 8.66405 8.80974H16.2109C16.5432 8.80974 16.8125 8.54041 16.8125 8.20818C16.8125 7.87595 16.5432 7.60662 16.2109 7.60662H8.66405Z"/>
</svg>
