<svg class="ionicon" viewBox="0 0 25 24" xmlns="http://www.w3.org/2000/svg">
<rect fill-rule="evenodd" stroke="none" width="1440" height="1024" transform="translate(-734 -422)" fill="white"/>
<path d="M22.1963 13.7569L21.3429 11.8826L21.3149 11.9096L19.5802 10.11L18.7916 11.7765C18.7089 11.9512 18.5329 12.0626 18.3396 12.0626C18.1463 12.0626 17.9704 11.9512 17.8877 11.7765L17.1838 10.2891C16.8695 10.5427 16.5115 10.8295 16.1764 11.0939C15.9447 11.2767 15.7225 11.45 15.5327 11.5947L17.1748 14.4613C19.0395 14.4412 20.7059 14.1886 22.1963 13.7569Z"/>
<path fill-rule="evenodd" stroke="none" d="M16.1992 14.4842L14.2212 11.0581L14.18 11.108L11.4543 8.85463L10.1934 10.9779C10.1033 11.1296 9.93997 11.2226 9.76352 11.2226C9.58708 11.2226 9.4237 11.1296 9.33361 10.9779L8.21308 9.09092C7.71127 9.41473 7.09133 9.81153 6.51878 10.1715C6.2559 10.3368 6.00213 10.4949 5.77386 10.6349L0.817733 19.2191C0.625283 19.5525 0.865847 19.9691 1.25075 19.9691H2.56291C3.39632 19.0243 4.5176 17.9887 6.07644 17.0739C8.396 15.7128 11.6193 14.6563 16.1992 14.4842Z"/>
<path fill-rule="evenodd" stroke="none" d="M5.42008 19.9691C5.90154 19.5678 6.45264 19.1721 7.08864 18.7989C9.21849 17.5491 12.3748 16.5099 17.1801 16.4613C17.2334 16.4608 17.2865 16.4601 17.3395 16.4592L18.933 19.2191C19.1254 19.5525 18.8849 19.9691 18.5 19.9691H5.42008Z"/>
<path fill-rule="evenodd" stroke="none" d="M18.299 16.4236C20.0281 16.3236 21.6017 16.0342 23.0331 15.5947L24.7029 19.2619C24.8536 19.593 24.6116 19.9691 24.2478 19.9691H19.4684C19.852 19.9684 20.092 19.5536 19.9013 19.2206L18.299 16.4236Z"/>
<path fill-rule="evenodd" stroke="none" d="M10.3084 4.28088C10.1159 3.94755 9.63479 3.94755 9.44234 4.28088L6.84396 8.78141C7.318 8.47883 7.76922 8.18777 8.10529 7.96948C8.21942 7.89535 8.35884 7.87094 8.49136 7.90189C8.62389 7.93284 8.73807 8.01648 8.80756 8.1335L9.76352 9.74335L10.8927 7.84177C10.9673 7.71616 11.0931 7.62946 11.237 7.60444C11.381 7.57943 11.5286 7.61862 11.6412 7.7117L12.8808 8.73644L10.3084 4.28088Z"/>
<path fill-rule="evenodd" stroke="none" d="M17.8068 6.11537C17.9846 5.72496 18.5391 5.72496 18.7169 6.11537L20.1478 9.25796L19.7978 8.89485C19.6838 8.77659 19.519 8.72186 19.3569 8.74844C19.1948 8.77502 19.0561 8.87951 18.9859 9.02799L18.3396 10.3937L17.8154 9.28585C17.7497 9.14692 17.6237 9.04595 17.4738 9.01204C17.3239 8.97812 17.1667 9.01505 17.0476 9.11216C16.7947 9.3183 16.4491 9.5979 16.0905 9.88479L17.8068 6.11537Z"/>
</svg>
