<svg class="ionicon" viewBox="0 0 25 24" xmlns="http://www.w3.org/2000/svg">
<path fill-rule="evenodd" stroke="none" d="M12.0875 1.91614C10.9829 1.91614 10.0875 2.81157 10.0875 3.91614V7.15035C10.0875 8.23439 10.9663 9.11318 12.0503 9.11318V11.076L14.3403 9.11318H17.9016C19.0062 9.11318 19.9016 8.21775 19.9016 7.11318V3.91614C19.9016 2.81157 19.0062 1.91614 17.9016 1.91614H12.0875Z" />
<path fill-rule="evenodd" stroke="none" d="M10.6598 12.2697C10.6598 14.0765 9.19518 15.5411 7.38845 15.5411C5.58171 15.5411 4.11707 14.0765 4.11707 12.2697C4.11707 10.463 5.58171 8.99834 7.38845 8.99834C9.19518 8.99834 10.6598 10.463 10.6598 12.2697Z" />
<path fill-rule="evenodd" stroke="none" d="M7.38849 16.1954C4.13637 16.1954 1.5 18.8317 1.5 22.0838H13.277C13.277 18.8317 10.6406 16.1954 7.38849 16.1954Z" />
<path fill-rule="evenodd" stroke="none" d="M18.92 16.995C20.3253 16.995 21.4644 15.8559 21.4644 14.4506C21.4644 13.0454 20.3253 11.9062 18.92 11.9062C17.5148 11.9062 16.3756 13.0454 16.3756 14.4506C16.3756 15.8559 17.5148 16.995 18.92 16.995Z" />
<path fill-rule="evenodd" stroke="none" d="M18.92 17.5039C16.3906 17.5039 14.3401 19.5544 14.3401 22.0838H23.5C23.5 19.5544 21.4495 17.5039 18.92 17.5039Z" />
</svg>
