<svg class="ionicon" viewBox="0 0 25 25" xmlns="http://www.w3.org/2000/svg">
<path fill-rule="evenodd" stroke="none" d="M10.1029 1.91014C10.1336 1.27033 10.6615 0.767499 11.3021 0.767822L13.5851 0.768979C14.2256 0.769304 14.753 1.27267 14.7831 1.91251L14.8794 3.95522C15.609 4.15693 16.302 4.44681 16.9462 4.81268L18.4599 3.43655C18.9339 3.00567 19.6627 3.02301 20.1157 3.47595L21.73 5.09027C22.1829 5.54321 22.2003 6.27204 21.7694 6.74601L20.3932 8.25975C20.7598 8.90525 21.0502 9.59974 21.2519 10.331L23.2946 10.4282C23.9344 10.4587 24.4375 10.9863 24.4375 11.6269V13.9099C24.4375 14.5504 23.9344 15.0781 23.2946 15.1085L21.2519 15.2058C21.0501 15.937 20.7598 16.6315 20.3932 17.277L21.7694 18.7908C22.2003 19.2648 22.1829 19.9936 21.73 20.4465L20.1156 22.0609C19.6627 22.5138 18.9339 22.5311 18.4599 22.1002L16.9461 20.7241C16.2993 21.0914 15.6033 21.3822 14.8704 21.584L14.7721 23.6267C14.7413 24.2665 14.2135 24.7693 13.5729 24.769L11.2899 24.7678C10.6494 24.7675 10.122 24.2641 10.0919 23.6243L9.99562 21.5815C9.26604 21.3798 8.57308 21.0899 7.92891 20.7241L6.41514 22.1002C5.94117 22.5311 5.21235 22.5138 4.75941 22.0608L3.14509 20.4465C2.69215 19.9936 2.67481 19.2647 3.10569 18.7908L4.48184 17.277C4.11524 16.6315 3.82493 15.937 3.62317 15.2058L1.58042 15.1085C0.940597 15.0781 0.4375 14.5504 0.4375 13.9099V11.6269C0.4375 10.9863 0.940596 10.4587 1.58042 10.4282L3.62316 10.331C3.82492 9.59975 4.11522 8.90526 4.48182 8.25977L3.10569 6.74602C2.67481 6.27205 2.69215 5.54323 3.14509 5.09029L4.75941 3.47597C5.21235 3.02303 5.94117 3.00569 6.41514 3.43657L7.92888 4.81269C8.57568 4.44534 9.27168 4.15459 10.0045 3.95278L10.1029 1.91014ZM12.4375 17.7684C15.1989 17.7684 17.4375 15.5299 17.4375 12.7684C17.4375 10.007 15.1989 7.76843 12.4375 7.76843C9.67608 7.76843 7.4375 10.007 7.4375 12.7684C7.4375 15.5299 9.67608 17.7684 12.4375 17.7684Z" />
</svg>
