<svg class="ionicon" viewBox="0 0 25 25" xmlns="http://www.w3.org/2000/svg">
<path fill-rule="evenodd" stroke="none" d="M4.9375 2.07361C3.83293 2.07361 2.9375 2.96904 2.9375 4.07361V20.0736C2.9375 21.7305 4.28064 23.0736 5.9375 23.0736H20.2853V4.07361C20.2853 2.96904 19.3899 2.07361 18.2853 2.07361H4.9375ZM6.13314 6.44853C5.62888 6.44853 5.2201 6.84028 5.2201 7.32353C5.2201 7.80678 5.62888 8.19853 6.13314 8.19853H17.0897C17.5939 8.19853 18.0027 7.80678 18.0027 7.32353C18.0027 6.84028 17.5939 6.44853 17.0897 6.44853H6.13314ZM6.13315 10.8237C5.62889 10.8237 5.22011 11.2155 5.22011 11.6987C5.22011 12.182 5.62889 12.5737 6.13315 12.5737H17.0897C17.5939 12.5737 18.0027 12.182 18.0027 11.6987C18.0027 11.2155 17.5939 10.8237 17.0897 10.8237H6.13315ZM5.22011 16.0737C5.22011 15.5904 5.62889 15.1987 6.13315 15.1987H11.6114C12.1157 15.1987 12.5245 15.5904 12.5245 16.0737C12.5245 16.5569 12.1157 16.9487 11.6114 16.9487H6.13315C5.62889 16.9487 5.22011 16.5569 5.22011 16.0737Z"/>
<path fill-rule="evenodd" stroke="none" d="M23.481 23.0737L20.2853 23.0736L20.2853 20.0112C20.2855 21.7024 21.7162 23.0737 23.481 23.0737Z"/>
<path fill-rule="evenodd" stroke="none" d="M21.1984 5.62822H21.9375C23.0421 5.62822 23.9375 6.52365 23.9375 7.62822V20.1122C23.9375 20.8686 23.3243 21.4817 22.5679 21.4817C21.8115 21.4817 21.1984 20.8686 21.1984 20.1122V5.62822Z"/>
</svg>
