<svg class="ionicon" viewBox="0 0 25 24" xmlns="http://www.w3.org/2000/svg">
<path fill-rule="evenodd" stroke="none" d="M23.9712 0.777171L19.0038 5.74459C17.3458 4.08663 14.6577 4.08663 12.9998 5.7446C11.3418 7.40257 11.3418 10.0907 12.9998 11.7486C14.6577 13.4066 17.3459 13.4066 19.0038 11.7486C20.6618 10.0907 20.6618 7.40257 19.0038 5.74459L23.9712 0.777171C23.9712 0.777171 25.135 4.15217 22.6911 9.79652C20.2471 15.4409 16.814 17.943 16.814 17.943C16.814 17.943 17.0467 18.4667 16.8722 20.2706C16.6976 22.0744 16.1436 23.5384 15.7957 23.5001C15.616 23.4803 13.8774 21.3473 12.2375 19.2885C10.3346 19.8464 8.2604 19.3295 6.83965 17.9087C5.42651 16.4956 4.90749 14.436 5.45092 12.5414C3.37402 10.9018 1.22478 9.15251 1.24836 8.95276C1.29388 8.56721 2.674 8.05083 4.47786 7.87626C6.28173 7.70169 6.80543 7.93445 6.80543 7.93445C6.80543 7.93445 9.30756 4.50128 14.9519 2.05733C20.5963 -0.386613 23.9712 0.777171 23.9712 0.777171Z"/>
<path fill-rule="evenodd" stroke="none" d="M14.2905 7.03532C15.2356 6.0902 16.768 6.0902 17.7131 7.03531L14.2905 10.4579C13.3454 9.51279 13.3454 7.98045 14.2905 7.03532Z"/>
<path fill-rule="evenodd" stroke="none" d="M17.7131 10.4579C16.768 11.403 15.2356 11.403 14.2905 10.4579L17.7131 7.03531C18.6582 7.98044 18.6582 9.51281 17.7131 10.4579Z"/>
<path fill-rule="evenodd" stroke="none" d="M4.42767 16.0145C4.17057 15.7574 3.75373 15.7574 3.49664 16.0145L2.4533 17.0579C2.19621 17.3149 2.19621 17.7318 2.4533 17.9889C2.7104 18.246 3.12724 18.246 3.38433 17.9889L4.42766 16.9455C4.68476 16.6884 4.68476 16.2716 4.42767 16.0145Z"/>
<path fill-rule="evenodd" stroke="none" d="M5.64973 18.1676C5.90683 17.9105 6.32366 17.9105 6.58076 18.1676C6.83785 18.4247 6.83785 18.8415 6.58076 19.0986L4.25375 21.4256C3.99666 21.6827 3.57982 21.6827 3.32273 21.4256C3.06563 21.1685 3.06563 20.7517 3.32272 20.4946L5.64973 18.1676Z"/>
<path fill-rule="evenodd" stroke="none" d="M8.73385 20.3207C8.47675 20.0636 8.05992 20.0636 7.80282 20.3207L6.75949 21.364C6.50239 21.6211 6.50239 22.038 6.75949 22.2951C7.01659 22.5522 7.43342 22.5522 7.69052 22.2951L8.73385 21.2517C8.99095 20.9946 8.99095 20.5778 8.73385 20.3207Z"/>
</svg>
