<svg class="ionicon" viewBox="0 0 25 24" xmlns="http://www.w3.org/2000/svg">
<path fill-rule="evenodd" stroke="none" d="M16.5608 9.43709C16.5608 11.8186 14.6302 13.7492 12.2487 13.7492C9.86718 13.7492 7.93658 11.8186 7.93658 9.43709C7.93658 7.05558 9.86718 5.12498 12.2487 5.12498C14.6302 5.12498 16.5608 7.05558 16.5608 9.43709Z"/>
<path fill-rule="evenodd" stroke="none" d="M12.2487 24C18.8761 24 24.2487 18.6274 24.2487 12C24.2487 5.37258 18.8761 0 12.2487 0C5.6213 0 0.248718 5.37258 0.248718 12C0.248718 18.6274 5.6213 24 12.2487 24ZM19.3966 18.9934C21.161 17.1902 22.2487 14.7221 22.2487 12C22.2487 6.47715 17.7716 2 12.2487 2C6.72587 2 2.24872 6.47715 2.24872 12C2.24872 14.7221 3.33638 17.1902 5.10082 18.9934C6.36829 16.319 9.0925 14.4694 12.2487 14.4694C15.4049 14.4694 18.1291 16.319 19.3966 18.9934Z"/>
</svg>
