<svg class="ionicon" viewBox="0 0 25 25" xmlns="http://www.w3.org/2000/svg">
<path fill-rule="evenodd" stroke="none" d="M1.41833 4.29052C1.41833 3.80782 1.80965 3.4165 2.29235 3.4165H9.20574C9.3985 3.4165 9.58585 3.48023 9.73863 3.59775L12.1079 5.4203C12.2607 5.53783 12.4481 5.60155 12.6408 5.60155H22.5443C23.027 5.60155 23.4183 5.99286 23.4183 6.47557V20.8969C23.4183 21.3796 23.027 21.7709 22.5443 21.7709H2.29235C1.80965 21.7709 1.41833 21.3796 1.41833 20.8969V4.29052ZM8.08273 10.1243C8.08273 9.76226 8.37621 9.46878 8.73824 9.46878H19.1172C19.4792 9.46878 19.7727 9.76226 19.7727 10.1243C19.7727 10.4863 19.4792 10.7798 19.1172 10.7798H8.73824C8.37621 10.7798 8.08273 10.4863 8.08273 10.1243ZM8.73824 12.9649C8.37621 12.9649 8.08273 13.2583 8.08273 13.6204C8.08273 13.9824 8.37621 14.2759 8.73824 14.2759H19.1172C19.4792 14.2759 19.7727 13.9824 19.7727 13.6204C19.7727 13.2583 19.4792 12.9649 19.1172 12.9649H8.73824ZM8.08273 17.1164C8.08273 16.7544 8.37621 16.4609 8.73824 16.4609H19.1172C19.4792 16.4609 19.7727 16.7544 19.7727 17.1164C19.7727 17.4785 19.4792 17.772 19.1172 17.772H8.73824C8.37621 17.772 8.08273 17.4785 8.08273 17.1164ZM5.48799 10.7798C5.85002 10.7798 6.1435 10.4863 6.1435 10.1243C6.1435 9.76226 5.85002 9.46878 5.48799 9.46878C5.12595 9.46878 4.83247 9.76226 4.83247 10.1243C4.83247 10.4863 5.12595 10.7798 5.48799 10.7798ZM6.1435 13.6204C6.1435 13.9824 5.85002 14.2759 5.48799 14.2759C5.12595 14.2759 4.83247 13.9824 4.83247 13.6204C4.83247 13.2583 5.12595 12.9649 5.48799 12.9649C5.85002 12.9649 6.1435 13.2583 6.1435 13.6204ZM5.48799 17.772C5.85002 17.772 6.1435 17.4785 6.1435 17.1164C6.1435 16.7544 5.85002 16.4609 5.48799 16.4609C5.12595 16.4609 4.83247 16.7544 4.83247 17.1164C4.83247 17.4785 5.12595 17.772 5.48799 17.772Z"/>
</svg>
