<svg class="ionicon" viewBox="0 0 25 25" xmlns="http://www.w3.org/2000/svg">
<path fill-rule="evenodd" stroke="none" d="M12.7481 6.13854L12.2879 7.26861C12.0727 7.79695 11.5765 8.1575 11.0075 8.19888L9.7905 8.28738L10.723 9.07431C11.159 9.44222 11.3486 10.0256 11.2121 10.5795L10.9202 11.7643L11.9568 11.1206C12.4414 10.8196 13.0548 10.8196 13.5395 11.1206L14.576 11.7643L14.2842 10.5795C14.1477 10.0256 14.3372 9.44222 14.7732 9.07431L15.7058 8.28738L14.4888 8.19888C13.9198 8.1575 13.4236 7.79695 13.2084 7.26861L12.7481 6.13854Z"/>
<path fill-rule="evenodd" stroke="none" d="M21.3897 9.24838C21.3897 14.021 17.5207 17.8899 12.7481 17.8899C7.97553 17.8899 4.10657 14.021 4.10657 9.24838C4.10657 4.47577 7.97553 0.606812 12.7481 0.606812C17.5207 0.606812 21.3897 4.47577 21.3897 9.24838ZM13.2112 4.62434C13.0421 4.20913 12.4542 4.20913 12.2851 4.62434L11.3618 6.89142C11.29 7.06754 11.1246 7.18772 10.9349 7.20151L8.49351 7.37907C8.04637 7.41159 7.86469 7.97074 8.20732 8.25988L10.0781 9.83856C10.2234 9.9612 10.2866 10.1557 10.2411 10.3403L9.65556 12.7171C9.54832 13.1524 10.024 13.498 10.4048 13.2615L12.4844 11.9701C12.6459 11.8698 12.8504 11.8698 13.0119 11.9701L15.0914 13.2615C15.4723 13.498 15.9479 13.1524 15.8407 12.7171L15.2551 10.3403C15.2096 10.1557 15.2728 9.9612 15.4181 9.83856L17.2889 8.25988C17.6316 7.97074 17.4499 7.41159 17.0028 7.37907L14.5613 7.20151C14.3717 7.18772 14.2062 7.06753 14.1345 6.89142L13.2112 4.62434Z"/>
<path fill-rule="evenodd" stroke="none" d="M14.0503 18.7627C16.0837 18.487 17.915 17.5747 19.3367 16.233L21.0745 22.7187C21.1842 23.1282 20.7666 23.4798 20.3818 23.302L18.3254 22.3515C18.1063 22.2503 17.8461 22.32 17.707 22.5172L16.4014 24.3685C16.157 24.7149 15.6195 24.6192 15.5098 24.2097L14.0503 18.7627Z"/>
<path fill-rule="evenodd" stroke="none" d="M6.70746 16.7124C8.20142 17.923 10.066 18.6941 12.1046 18.829L10.6628 24.2097C10.5531 24.6192 10.0156 24.7149 9.77126 24.3685L8.46558 22.5172C8.32647 22.32 8.06631 22.2503 7.84721 22.3515L5.79082 23.302C5.40601 23.4798 4.98837 23.1282 5.09808 22.7187L6.70746 16.7124Z"/>
</svg>
