<svg width="31" height="31" viewBox="0 0 31 31" fill="none" xmlns="http://www.w3.org/2000/svg">
<path d="M15.5 0C6.95339 0 0 6.95339 0 15.5C0 24.0466 6.95339 31 15.5 31C24.0466 31 31 24.0466 31 15.5C31 6.95339 24.0466 0 15.5 0ZM15.5 25.0385C13.9425 25.0385 12.704 24.3782 12.5379 22.9832C12.5335 22.9415 12.5379 22.8994 12.5509 22.8595C12.5639 22.8197 12.5851 22.783 12.6133 22.7519C12.6414 22.7208 12.6758 22.696 12.7141 22.6791C12.7525 22.6622 12.794 22.6536 12.8359 22.6538H18.1603C18.2027 22.6535 18.2446 22.6623 18.2833 22.6794C18.322 22.6966 18.3566 22.7218 18.3848 22.7534C18.413 22.785 18.4342 22.8222 18.4469 22.8626C18.4596 22.903 18.4635 22.9457 18.4584 22.9877C18.2684 24.3566 17.0411 25.0385 15.5 25.0385ZM22.8029 21.4615H8.19712C7.31481 21.4615 6.85577 20.3438 7.36325 19.7476C8.58014 18.3064 9.4401 17.7006 9.4401 13.7264C9.4401 10.0847 11.3582 8.79252 12.9425 8.16209C13.0515 8.11665 13.1498 8.04889 13.2311 7.96315C13.3123 7.87741 13.3747 7.77561 13.4142 7.6643C13.6892 6.75144 14.4672 5.96154 15.5 5.96154C16.5328 5.96154 17.3093 6.75144 17.5865 7.66505C17.6263 7.77634 17.6889 7.8781 17.7702 7.96382C17.8516 8.04954 17.9499 8.11733 18.059 8.16284C19.6395 8.79178 21.5614 10.0862 21.5614 13.7272C21.5614 17.7013 22.4206 18.3071 23.6375 19.7483C24.1398 20.3438 23.68 21.4615 22.8029 21.4615Z" fill="#05668D"/>
</svg>
