<svg width="31" height="31" viewBox="0 0 31 31" fill="none" xmlns="http://www.w3.org/2000/svg">
<circle cx="15.5" cy="15.5" r="15.5" fill="#05668D"/>
<path d="M11.2729 14.688C11.1006 14.688 10.9352 14.7142 10.7707 14.7382C10.824 14.5589 10.8788 14.3766 10.9669 14.2128C11.055 13.9748 11.1926 13.7685 11.3293 13.5606C11.4437 13.3357 11.6454 13.1835 11.7937 12.9911C11.949 12.8041 12.1607 12.6797 12.3284 12.5244C12.493 12.3621 12.7086 12.281 12.8801 12.1667C13.0594 12.0639 13.2155 11.9503 13.3824 11.8962L13.7989 11.7247L14.1651 11.5724L13.7904 10.075L13.3291 10.1862C13.1815 10.2233 13.0014 10.2666 12.7967 10.3184C12.5873 10.357 12.364 10.4628 12.1152 10.5594C11.8694 10.6692 11.5851 10.7433 11.3208 10.9195C11.055 11.088 10.7483 11.2286 10.4778 11.4542C10.2159 11.6868 9.89983 11.8885 9.66647 12.1844C9.41148 12.461 9.15958 12.7516 8.96409 13.0823C8.73769 13.3976 8.58392 13.7437 8.42165 14.086C8.27484 14.4283 8.15662 14.7784 8.06003 15.1184C7.8769 15.7999 7.79499 16.4474 7.76331 17.0014C7.73704 17.5562 7.75249 18.0175 7.78495 18.3513C7.79654 18.509 7.81817 18.662 7.83363 18.7678L7.85294 18.8976L7.87303 18.893C8.01047 19.535 8.32684 20.1249 8.78557 20.5946C9.24429 21.0643 9.82661 21.3945 10.4652 21.5471C11.1037 21.6997 11.7724 21.6683 12.3939 21.4567C13.0154 21.2451 13.5643 20.8618 13.9771 20.3513C14.3898 19.8408 14.6497 19.2238 14.7264 18.5718C14.8032 17.9198 14.6938 17.2593 14.411 16.6669C14.1281 16.0744 13.6832 15.5742 13.1279 15.224C12.5726 14.8738 11.9294 14.6879 11.2729 14.688ZM19.7726 14.688C19.6003 14.688 19.4349 14.7142 19.2704 14.7382C19.3237 14.5589 19.3785 14.3766 19.4666 14.2128C19.5547 13.9748 19.6923 13.7685 19.829 13.5606C19.9434 13.3357 20.1451 13.1835 20.2934 12.9911C20.4487 12.8041 20.6604 12.6797 20.8281 12.5244C20.9927 12.3621 21.2083 12.281 21.3798 12.1667C21.5591 12.0639 21.7152 11.9503 21.8821 11.8962L22.2986 11.7247L22.6648 11.5724L22.2901 10.075L21.8288 10.1862C21.6812 10.2233 21.5011 10.2666 21.2964 10.3184C21.087 10.357 20.8637 10.4628 20.6149 10.5594C20.3699 10.6699 20.0848 10.7433 19.8205 10.9203C19.5547 11.0887 19.248 11.2294 18.9775 11.455C18.7156 11.6876 18.3995 11.8893 18.1662 12.1844C17.9112 12.461 17.6593 12.7516 17.4638 13.0823C17.2374 13.3976 17.0836 13.7437 16.9214 14.086C16.7745 14.4283 16.6563 14.7784 16.5597 15.1184C16.3766 15.7999 16.2947 16.4474 16.263 17.0014C16.2367 17.5562 16.2522 18.0175 16.2846 18.3513C16.2962 18.509 16.3179 18.662 16.3333 18.7678L16.3526 18.8976L16.3727 18.893C16.5102 19.535 16.8265 20.1249 17.2853 20.5946C17.744 21.0643 18.3263 21.3945 18.9649 21.5471C19.6034 21.6997 20.2721 21.6683 20.8936 21.4567C21.5151 21.2451 22.064 20.8618 22.4768 20.3513C22.8895 19.8408 23.1494 19.2238 23.2261 18.5718C23.3029 17.9198 23.1935 17.2593 22.9107 16.6669C22.6278 16.0744 22.1829 15.5742 21.6276 15.224C21.0723 14.8738 20.4291 14.6879 19.7726 14.688Z" fill="white"/>
</svg>
